<?xml version="1.0" encoding="utf-8" standalone="no"?>
<!DOCTYPE svg PUBLIC "-//W3C//DTD SVG 1.1//EN"
  "http://www.w3.org/Graphics/SVG/1.1/DTD/svg11.dtd">
<svg xmlns:xlink="http://www.w3.org/1999/xlink" width="460.8pt" height="345.6pt" viewBox="0 0 460.8 345.6" xmlns="http://www.w3.org/2000/svg" version="1.1">
 <metadata>
  <rdf:RDF xmlns:dc="http://purl.org/dc/elements/1.1/" xmlns:cc="http://creativecommons.org/ns#" xmlns:rdf="http://www.w3.org/1999/02/22-rdf-syntax-ns#">
   <cc:Work>
    <dc:type rdf:resource="http://purl.org/dc/dcmitype/StillImage"/>
    <dc:date>2024-03-26T16:50:49.702086</dc:date>
    <dc:format>image/svg+xml</dc:format>
    <dc:creator>
     <cc:Agent>
      <dc:title>Matplotlib v3.8.3, https://matplotlib.org/</dc:title>
     </cc:Agent>
    </dc:creator>
   </cc:Work>
  </rdf:RDF>
 </metadata>
 <defs>
  <style type="text/css">*{stroke-linejoin: round; stroke-linecap: butt}</style>
 </defs>
 <g id="figure_1">
  <g id="patch_1">
   <path d="M 0 345.6 
L 460.8 345.6 
L 460.8 0 
L 0 0 
z
" style="fill: #ffffff"/>
  </g>
  <g id="axes_1">
   <g id="patch_2">
    <path d="M 66.892587 128.010728 
L 443.52 128.010728 
L 443.52 17.28 
L 66.892587 17.28 
z
" style="fill: #ffffff"/>
   </g>
   <g id="PolyCollection_1">
    <path d="M 84.012015 122.123979 
L 84.012015 122.836237 
L 85.723957 122.836237 
L 87.4359 122.836237 
L 89.147843 122.836237 
L 90.859786 122.836237 
L 92.571729 122.836237 
L 94.283671 122.836237 
L 95.995614 122.836237 
L 97.707557 122.836237 
L 99.4195 122.836237 
L 101.131443 122.836237 
L 102.843385 122.836237 
L 104.555328 122.836237 
L 106.267271 122.836237 
L 107.979214 122.836237 
L 109.691157 122.836237 
L 111.403099 122.836237 
L 113.115042 122.836237 
L 114.826985 122.836237 
L 116.538928 122.836237 
L 118.25087 122.836237 
L 119.962813 122.836237 
L 121.674756 122.836237 
L 123.386699 122.836237 
L 125.098642 122.836237 
L 126.810584 122.836237 
L 128.522527 122.836237 
L 130.23447 122.836237 
L 131.946413 122.836237 
L 133.658356 122.836237 
L 135.370298 122.836237 
L 137.082241 122.836237 
L 138.794184 122.836237 
L 140.506127 122.836237 
L 142.218069 122.836237 
L 143.930012 122.836237 
L 145.641955 122.836237 
L 147.353898 122.836237 
L 149.065841 122.836237 
L 150.777783 122.836237 
L 152.489726 122.836237 
L 154.201669 122.836237 
L 155.913612 122.836237 
L 157.625555 122.836237 
L 159.337497 122.836237 
L 161.04944 122.836237 
L 162.761383 122.836237 
L 164.473326 122.836237 
L 166.185268 122.836237 
L 167.897211 122.836237 
L 169.609154 122.836237 
L 171.321097 122.836237 
L 173.03304 122.836237 
L 174.744982 122.836237 
L 176.456925 122.836237 
L 178.168868 122.836237 
L 179.880811 122.836237 
L 181.592754 122.836237 
L 183.304696 122.836237 
L 185.016639 122.836237 
L 186.728582 122.836237 
L 188.440525 122.836237 
L 190.152468 122.836237 
L 191.86441 122.836237 
L 193.576353 122.836237 
L 195.288296 122.836237 
L 197.000239 122.836237 
L 198.712181 122.836237 
L 200.424124 122.836237 
L 202.136067 122.836237 
L 203.84801 122.836237 
L 205.559953 122.836237 
L 207.271895 122.836237 
L 208.983838 122.836237 
L 210.695781 122.836237 
L 212.407724 122.836237 
L 214.119667 122.836237 
L 215.831609 122.836237 
L 217.543552 122.836237 
L 219.255495 122.836237 
L 220.967438 122.836237 
L 222.67938 122.836237 
L 224.391323 122.836237 
L 226.103266 122.836237 
L 227.815209 122.836237 
L 229.527152 122.836237 
L 231.239094 122.836237 
L 232.951037 122.836237 
L 234.66298 122.836237 
L 236.374923 122.836237 
L 238.086866 122.836237 
L 239.798808 122.836237 
L 241.510751 122.836237 
L 243.222694 122.836237 
L 244.934637 122.836237 
L 246.646579 122.836237 
L 248.358522 122.836237 
L 250.070465 122.836237 
L 251.782408 122.836237 
L 253.494351 122.836237 
L 255.206293 122.836237 
L 256.918236 122.836237 
L 258.630179 122.836237 
L 260.342122 122.836237 
L 262.054065 122.836237 
L 263.766007 122.836237 
L 265.47795 122.836237 
L 267.189893 122.836237 
L 268.901836 122.836237 
L 270.613779 122.836237 
L 272.325721 122.836237 
L 274.037664 122.836237 
L 275.749607 122.836237 
L 277.46155 122.836237 
L 279.173492 122.836237 
L 280.885435 122.836237 
L 282.597378 122.836237 
L 284.309321 122.836237 
L 286.021264 122.836237 
L 287.733206 122.836237 
L 289.445149 122.836237 
L 291.157092 122.836237 
L 292.869035 122.836237 
L 294.580978 122.836237 
L 296.29292 122.836237 
L 298.004863 122.836237 
L 299.716806 122.836237 
L 301.428749 122.836237 
L 303.140691 122.836237 
L 304.852634 122.836237 
L 306.564577 122.836237 
L 308.27652 122.836237 
L 309.988463 122.836237 
L 311.700405 122.836237 
L 313.412348 122.836237 
L 315.124291 122.836237 
L 316.836234 122.836237 
L 318.548177 122.836237 
L 320.260119 122.836237 
L 321.972062 122.836237 
L 323.684005 122.836237 
L 325.395948 122.836237 
L 327.10789 122.836237 
L 328.819833 122.836237 
L 330.531776 122.836237 
L 332.243719 122.836237 
L 333.955662 122.836237 
L 335.667604 122.836237 
L 337.379547 122.836237 
L 339.09149 122.836237 
L 340.803433 122.836237 
L 342.515376 122.836237 
L 344.227318 122.836237 
L 345.939261 122.836237 
L 347.651204 122.836237 
L 349.363147 122.836237 
L 351.075089 122.836237 
L 352.787032 122.836237 
L 354.498975 122.836237 
L 356.210918 122.836237 
L 357.922861 122.836237 
L 359.634803 122.836237 
L 361.346746 122.836237 
L 363.058689 122.836237 
L 364.770632 122.836237 
L 366.482575 122.836237 
L 368.194517 122.836237 
L 369.90646 122.836237 
L 371.618403 122.836237 
L 373.330346 122.836237 
L 375.042289 122.836237 
L 376.754231 122.836237 
L 378.466174 122.836237 
L 380.178117 122.836237 
L 381.89006 122.836237 
L 383.602002 122.836237 
L 385.313945 122.836237 
L 387.025888 122.836237 
L 388.737831 122.836237 
L 390.449774 122.836237 
L 392.161716 122.836237 
L 393.873659 122.836237 
L 395.585602 122.836237 
L 397.297545 122.836237 
L 399.009488 122.836237 
L 400.72143 122.836237 
L 402.433373 122.836237 
L 404.145316 122.836237 
L 405.857259 122.836237 
L 407.569201 122.836237 
L 409.281144 122.836237 
L 410.993087 122.836237 
L 412.70503 122.836237 
L 414.416973 122.836237 
L 416.128915 122.836237 
L 417.840858 122.836237 
L 419.552801 122.836237 
L 421.264744 122.836237 
L 422.976687 122.836237 
L 424.688629 122.836237 
L 426.400572 122.836237 
L 426.400572 122.123979 
L 426.400572 122.123979 
L 424.688629 122.123979 
L 422.976687 122.123979 
L 421.264744 122.123979 
L 419.552801 122.123979 
L 417.840858 122.123979 
L 416.128915 122.123979 
L 414.416973 122.123979 
L 412.70503 122.123979 
L 410.993087 122.123979 
L 409.281144 122.123979 
L 407.569201 122.123979 
L 405.857259 122.123979 
L 404.145316 122.123979 
L 402.433373 122.123979 
L 400.72143 122.123979 
L 399.009488 122.123979 
L 397.297545 122.123979 
L 395.585602 122.123979 
L 393.873659 122.123979 
L 392.161716 122.123979 
L 390.449774 122.123979 
L 388.737831 122.123979 
L 387.025888 122.123979 
L 385.313945 122.123979 
L 383.602002 122.123979 
L 381.89006 122.123979 
L 380.178117 122.123979 
L 378.466174 122.123979 
L 376.754231 122.123979 
L 375.042289 122.123979 
L 373.330346 122.123979 
L 371.618403 122.123979 
L 369.90646 122.123979 
L 368.194517 122.123979 
L 366.482575 122.123979 
L 364.770632 122.123979 
L 363.058689 122.123979 
L 361.346746 122.123979 
L 359.634803 122.123979 
L 357.922861 122.123979 
L 356.210918 122.123979 
L 354.498975 122.123979 
L 352.787032 122.123979 
L 351.075089 122.123979 
L 349.363147 122.123979 
L 347.651204 122.123979 
L 345.939261 122.123979 
L 344.227318 122.123979 
L 342.515376 122.123979 
L 340.803433 122.123979 
L 339.09149 122.123979 
L 337.379547 122.123979 
L 335.667604 122.123979 
L 333.955662 122.123979 
L 332.243719 122.123979 
L 330.531776 122.123979 
L 328.819833 122.123979 
L 327.10789 122.123979 
L 325.395948 122.123979 
L 323.684005 122.123979 
L 321.972062 122.123979 
L 320.260119 122.123979 
L 318.548177 122.123979 
L 316.836234 122.123979 
L 315.124291 122.123979 
L 313.412348 122.123979 
L 311.700405 122.123979 
L 309.988463 122.123979 
L 308.27652 122.123979 
L 306.564577 122.123979 
L 304.852634 122.123979 
L 303.140691 122.123979 
L 301.428749 122.123979 
L 299.716806 122.123979 
L 298.004863 122.123979 
L 296.29292 122.123979 
L 294.580978 122.123979 
L 292.869035 122.123979 
L 291.157092 122.123979 
L 289.445149 122.123979 
L 287.733206 122.123979 
L 286.021264 122.123979 
L 284.309321 122.123979 
L 282.597378 122.123979 
L 280.885435 122.123979 
L 279.173492 122.123979 
L 277.46155 122.123979 
L 275.749607 122.123979 
L 274.037664 122.123979 
L 272.325721 122.123979 
L 270.613779 122.123979 
L 268.901836 122.123979 
L 267.189893 122.123979 
L 265.47795 122.123979 
L 263.766007 122.123979 
L 262.054065 122.123979 
L 260.342122 122.123979 
L 258.630179 122.123979 
L 256.918236 122.123979 
L 255.206293 122.123979 
L 253.494351 122.123979 
L 251.782408 122.123979 
L 250.070465 122.123979 
L 248.358522 122.123979 
L 246.646579 122.123979 
L 244.934637 122.123979 
L 243.222694 122.123979 
L 241.510751 122.123979 
L 239.798808 122.123979 
L 238.086866 122.123979 
L 236.374923 122.123979 
L 234.66298 122.123979 
L 232.951037 122.123979 
L 231.239094 122.123979 
L 229.527152 122.123979 
L 227.815209 122.123979 
L 226.103266 122.123979 
L 224.391323 122.123979 
L 222.67938 122.123979 
L 220.967438 122.123979 
L 219.255495 122.123979 
L 217.543552 122.123979 
L 215.831609 122.123979 
L 214.119667 122.123979 
L 212.407724 122.123979 
L 210.695781 122.123979 
L 208.983838 122.123979 
L 207.271895 122.123979 
L 205.559953 122.123979 
L 203.84801 122.123979 
L 202.136067 122.123979 
L 200.424124 122.123979 
L 198.712181 122.123979 
L 197.000239 122.123979 
L 195.288296 122.123979 
L 193.576353 122.123979 
L 191.86441 122.123979 
L 190.152468 122.123979 
L 188.440525 122.123979 
L 186.728582 122.123979 
L 185.016639 122.123979 
L 183.304696 122.123979 
L 181.592754 122.123979 
L 179.880811 122.123979 
L 178.168868 122.123979 
L 176.456925 122.123979 
L 174.744982 122.123979 
L 173.03304 122.123979 
L 171.321097 122.123979 
L 169.609154 122.123979 
L 167.897211 122.123979 
L 166.185268 122.123979 
L 164.473326 122.123979 
L 162.761383 122.123979 
L 161.04944 122.123979 
L 159.337497 122.123979 
L 157.625555 122.123979 
L 155.913612 122.123979 
L 154.201669 122.123979 
L 152.489726 122.123979 
L 150.777783 122.123979 
L 149.065841 122.123979 
L 147.353898 122.123979 
L 145.641955 122.123979 
L 143.930012 122.123979 
L 142.218069 122.123979 
L 140.506127 122.123979 
L 138.794184 122.123979 
L 137.082241 122.123979 
L 135.370298 122.123979 
L 133.658356 122.123979 
L 131.946413 122.123979 
L 130.23447 122.123979 
L 128.522527 122.123979 
L 126.810584 122.123979 
L 125.098642 122.123979 
L 123.386699 122.123979 
L 121.674756 122.123979 
L 119.962813 122.123979 
L 118.25087 122.123979 
L 116.538928 122.123979 
L 114.826985 122.123979 
L 113.115042 122.123979 
L 111.403099 122.123979 
L 109.691157 122.123979 
L 107.979214 122.123979 
L 106.267271 122.123979 
L 104.555328 122.123979 
L 102.843385 122.123979 
L 101.131443 122.123979 
L 99.4195 122.123979 
L 97.707557 122.123979 
L 95.995614 122.123979 
L 94.283671 122.123979 
L 92.571729 122.123979 
L 90.859786 122.123979 
L 89.147843 122.123979 
L 87.4359 122.123979 
L 85.723957 122.123979 
L 84.012015 122.123979 
z
" clip-path="url(#pf66c86cbd9)" style="fill-opacity: 0.5"/>
   </g>
   <g id="matplotlib.axis_1">
    <g id="xtick_1">
     <g id="line2d_1">
      <path d="M 118.25087 128.010728 
L 118.25087 17.28 
" clip-path="url(#pf66c86cbd9)" style="fill: none; stroke: #b0b0b0; stroke-width: 0.8; stroke-linecap: square"/>
     </g>
     <g id="line2d_2">
      <defs>
       <path id="ma18e5b1cac" d="M 0 0 
L 0 3.5 
" style="stroke: #000000; stroke-width: 0.8"/>
      </defs>
      <g>
       <use xlink:href="#ma18e5b1cac" x="118.25087" y="128.010728" style="stroke: #000000; stroke-width: 0.8"/>
      </g>
     </g>
     <g id="text_1">
      <!-- $\mathdefault{−40}$ -->
      <g transform="translate(104.247885 150.580316) scale(0.16 -0.16)">
       <defs>
        <path id="CMSY10-0" d="M 4218 1472 
C 4326 1472 4442 1472 4442 1600 
C 4442 1728 4326 1728 4218 1728 
L 755 1728 
C 646 1728 531 1728 531 1600 
C 531 1472 646 1472 755 1472 
L 4218 1472 
z
" transform="scale(0.015625)"/>
        <path id="CMR17-34" d="M 2150 4147 
C 2150 4281 2144 4288 2029 4288 
L 128 1254 
L 128 1088 
L 1779 1088 
L 1779 460 
C 1779 230 1766 166 1318 166 
L 1197 166 
L 1197 0 
C 1402 12 1747 12 1965 12 
C 2182 12 2528 12 2733 0 
L 2733 166 
L 2611 166 
C 2163 166 2150 230 2150 460 
L 2150 1088 
L 2803 1088 
L 2803 1254 
L 2150 1254 
L 2150 4147 
z
M 1798 3723 
L 1798 1254 
L 256 1254 
L 1798 3723 
z
" transform="scale(0.015625)"/>
        <path id="CMR17-30" d="M 2688 2038 
C 2688 2430 2682 3099 2413 3613 
C 2176 4063 1798 4224 1466 4224 
C 1158 4224 768 4082 525 3620 
C 269 3137 243 2539 243 2038 
C 243 1671 250 1112 448 623 
C 723 -39 1216 -128 1466 -128 
C 1760 -128 2208 -7 2470 604 
C 2662 1048 2688 1568 2688 2038 
z
M 1466 -26 
C 1056 -26 813 328 723 816 
C 653 1196 653 1749 653 2109 
C 653 2604 653 3015 736 3407 
C 858 3954 1216 4121 1466 4121 
C 1728 4121 2067 3947 2189 3420 
C 2272 3054 2278 2623 2278 2109 
C 2278 1691 2278 1176 2202 797 
C 2067 96 1690 -26 1466 -26 
z
" transform="scale(0.015625)"/>
       </defs>
       <use xlink:href="#CMSY10-0" transform="scale(0.996264)"/>
       <use xlink:href="#CMR17-34" transform="translate(77.487468 0) scale(0.996264)"/>
       <use xlink:href="#CMR17-30" transform="translate(123.177945 0) scale(0.996264)"/>
      </g>
     </g>
    </g>
    <g id="xtick_2">
     <g id="line2d_3">
      <path d="M 186.728582 128.010728 
L 186.728582 17.28 
" clip-path="url(#pf66c86cbd9)" style="fill: none; stroke: #b0b0b0; stroke-width: 0.8; stroke-linecap: square"/>
     </g>
     <g id="line2d_4">
      <g>
       <use xlink:href="#ma18e5b1cac" x="186.728582" y="128.010728" style="stroke: #000000; stroke-width: 0.8"/>
      </g>
     </g>
     <g id="text_2">
      <!-- $\mathdefault{−20}$ -->
      <g transform="translate(172.725597 150.580316) scale(0.16 -0.16)">
       <defs>
        <path id="CMR17-32" d="M 2669 990 
L 2554 990 
C 2490 537 2438 460 2413 422 
C 2381 371 1920 371 1830 371 
L 602 371 
C 832 620 1280 1073 1824 1596 
C 2214 1966 2669 2400 2669 3033 
C 2669 3788 2067 4224 1395 4224 
C 691 4224 262 3603 262 3027 
C 262 2777 448 2745 525 2745 
C 589 2745 781 2783 781 3007 
C 781 3206 614 3264 525 3264 
C 486 3264 448 3257 422 3244 
C 544 3788 915 4057 1306 4057 
C 1862 4057 2227 3616 2227 3033 
C 2227 2477 1901 1998 1536 1583 
L 262 147 
L 262 0 
L 2515 0 
L 2669 990 
z
" transform="scale(0.015625)"/>
       </defs>
       <use xlink:href="#CMSY10-0" transform="scale(0.996264)"/>
       <use xlink:href="#CMR17-32" transform="translate(77.487468 0) scale(0.996264)"/>
       <use xlink:href="#CMR17-30" transform="translate(123.177945 0) scale(0.996264)"/>
      </g>
     </g>
    </g>
    <g id="xtick_3">
     <g id="line2d_5">
      <path d="M 255.206293 128.010728 
L 255.206293 17.28 
" clip-path="url(#pf66c86cbd9)" style="fill: none; stroke: #b0b0b0; stroke-width: 0.8; stroke-linecap: square"/>
     </g>
     <g id="line2d_6">
      <g>
       <use xlink:href="#ma18e5b1cac" x="255.206293" y="128.010728" style="stroke: #000000; stroke-width: 0.8"/>
      </g>
     </g>
     <g id="text_3">
      <!-- $\mathdefault{0}$ -->
      <g transform="translate(251.3043 150.580316) scale(0.16 -0.16)">
       <use xlink:href="#CMR17-30" transform="scale(0.996264)"/>
      </g>
     </g>
    </g>
    <g id="xtick_4">
     <g id="line2d_7">
      <path d="M 323.684005 128.010728 
L 323.684005 17.28 
" clip-path="url(#pf66c86cbd9)" style="fill: none; stroke: #b0b0b0; stroke-width: 0.8; stroke-linecap: square"/>
     </g>
     <g id="line2d_8">
      <g>
       <use xlink:href="#ma18e5b1cac" x="323.684005" y="128.010728" style="stroke: #000000; stroke-width: 0.8"/>
      </g>
     </g>
     <g id="text_4">
      <!-- $\mathdefault{20}$ -->
      <g transform="translate(315.880018 150.580316) scale(0.16 -0.16)">
       <use xlink:href="#CMR17-32" transform="scale(0.996264)"/>
       <use xlink:href="#CMR17-30" transform="translate(45.690477 0) scale(0.996264)"/>
      </g>
     </g>
    </g>
    <g id="xtick_5">
     <g id="line2d_9">
      <path d="M 392.161716 128.010728 
L 392.161716 17.28 
" clip-path="url(#pf66c86cbd9)" style="fill: none; stroke: #b0b0b0; stroke-width: 0.8; stroke-linecap: square"/>
     </g>
     <g id="line2d_10">
      <g>
       <use xlink:href="#ma18e5b1cac" x="392.161716" y="128.010728" style="stroke: #000000; stroke-width: 0.8"/>
      </g>
     </g>
     <g id="text_5">
      <!-- $\mathdefault{40}$ -->
      <g transform="translate(384.357729 150.580316) scale(0.16 -0.16)">
       <use xlink:href="#CMR17-34" transform="scale(0.996264)"/>
       <use xlink:href="#CMR17-30" transform="translate(45.690477 0) scale(0.996264)"/>
      </g>
     </g>
    </g>
   </g>
   <g id="matplotlib.axis_2">
    <g id="ytick_1">
     <g id="line2d_11">
      <path d="M 66.892587 122.480108 
L 443.52 122.480108 
" clip-path="url(#pf66c86cbd9)" style="fill: none; stroke: #b0b0b0; stroke-width: 0.8; stroke-linecap: square"/>
     </g>
     <g id="line2d_12">
      <defs>
       <path id="m5ee8313d1f" d="M 0 0 
L -3.5 0 
" style="stroke: #000000; stroke-width: 0.8"/>
      </defs>
      <g>
       <use xlink:href="#m5ee8313d1f" x="66.892587" y="122.480108" style="stroke: #000000; stroke-width: 0.8"/>
      </g>
     </g>
     <g id="text_6">
      <!-- $\mathdefault{0}$ -->
      <g transform="translate(47.5886 128.014902) scale(0.16 -0.16)">
       <use xlink:href="#CMR17-30" transform="scale(0.996264)"/>
      </g>
     </g>
    </g>
    <g id="ytick_2">
     <g id="line2d_13">
      <path d="M 66.892587 63.12527 
L 443.52 63.12527 
" clip-path="url(#pf66c86cbd9)" style="fill: none; stroke: #b0b0b0; stroke-width: 0.8; stroke-linecap: square"/>
     </g>
     <g id="line2d_14">
      <g>
       <use xlink:href="#m5ee8313d1f" x="66.892587" y="63.12527" style="stroke: #000000; stroke-width: 0.8"/>
      </g>
     </g>
     <g id="text_7">
      <!-- $\mathdefault{50}$ -->
      <g transform="translate(39.784613 68.660064) scale(0.16 -0.16)">
       <defs>
        <path id="CMR17-35" d="M 730 3750 
C 794 3724 1056 3641 1325 3641 
C 1920 3641 2246 3961 2432 4140 
C 2432 4191 2432 4224 2394 4224 
C 2387 4224 2374 4224 2323 4198 
C 2099 4102 1837 4032 1517 4032 
C 1325 4032 1037 4055 723 4191 
C 653 4224 640 4224 634 4224 
C 602 4224 595 4217 595 4090 
L 595 2231 
C 595 2113 595 2080 659 2080 
C 691 2080 704 2093 736 2139 
C 941 2435 1222 2560 1542 2560 
C 1766 2560 2246 2415 2246 1293 
C 2246 1087 2246 716 2054 422 
C 1894 159 1645 25 1370 25 
C 947 25 518 319 403 812 
C 429 806 480 793 506 793 
C 589 793 749 838 749 1036 
C 749 1209 627 1280 506 1280 
C 358 1280 262 1190 262 1011 
C 262 454 704 -128 1382 -128 
C 2042 -128 2669 441 2669 1267 
C 2669 2054 2170 2662 1549 2662 
C 1222 2662 947 2540 730 2304 
L 730 3750 
z
" transform="scale(0.015625)"/>
       </defs>
       <use xlink:href="#CMR17-35" transform="scale(0.996264)"/>
       <use xlink:href="#CMR17-30" transform="translate(45.690477 0) scale(0.996264)"/>
      </g>
     </g>
    </g>
    <g id="text_8">
     <!-- Emission (K) -->
     <g transform="translate(31.799557 117.926031) rotate(-90) scale(0.16 -0.16)">
      <defs>
       <path id="CMR17-45" d="M 3885 1614 
L 3770 1614 
C 3629 676 3546 166 2419 166 
L 1530 166 
C 1274 166 1261 198 1261 415 
L 1261 2176 
L 1862 2176 
C 2464 2176 2522 1959 2522 1429 
L 2637 1429 
L 2637 3086 
L 2522 3086 
C 2522 2558 2464 2342 1862 2342 
L 1261 2342 
L 1261 3924 
C 1261 4141 1274 4172 1530 4172 
L 2406 4172 
C 3398 4172 3514 3778 3603 2933 
L 3718 2933 
L 3565 4339 
L 326 4339 
L 326 4172 
C 768 4172 838 4172 838 3886 
L 838 453 
C 838 166 768 166 326 166 
L 326 0 
L 3654 0 
L 3885 1614 
z
" transform="scale(0.015625)"/>
       <path id="CMR17-6d" d="M 4326 1954 
C 4326 2276 4269 2816 3507 2816 
C 3072 2816 2771 2520 2656 2173 
L 2650 2173 
C 2573 2700 2195 2816 1837 2816 
C 1331 2816 1069 2424 973 2166 
L 966 2166 
L 966 2816 
L 211 2745 
L 211 2578 
C 589 2578 646 2540 646 2231 
L 646 443 
C 646 198 621 166 211 166 
L 211 0 
C 365 12 646 12 813 12 
C 979 12 1267 12 1421 0 
L 1421 166 
C 1011 166 986 192 986 443 
L 986 1678 
C 986 2269 1344 2713 1792 2713 
C 2266 2713 2317 2289 2317 1980 
L 2317 443 
C 2317 198 2291 166 1882 166 
L 1882 0 
C 2035 12 2317 12 2483 12 
C 2650 12 2938 12 3091 0 
L 3091 166 
C 2682 166 2656 192 2656 443 
L 2656 1678 
C 2656 2269 3014 2713 3462 2713 
C 3936 2713 3987 2289 3987 1980 
L 3987 443 
C 3987 198 3962 166 3552 166 
L 3552 0 
C 3706 12 3987 12 4154 12 
C 4320 12 4608 12 4762 0 
L 4762 166 
C 4352 166 4326 192 4326 443 
L 4326 1954 
z
" transform="scale(0.015625)"/>
       <path id="CMR17-69" d="M 992 3961 
C 992 4102 877 4224 730 4224 
C 589 4224 467 4108 467 3961 
C 467 3820 582 3699 730 3699 
C 870 3699 992 3814 992 3961 
z
M 243 2745 
L 243 2579 
C 602 2579 653 2540 653 2231 
L 653 443 
C 653 198 627 166 218 166 
L 218 0 
C 371 12 646 12 806 12 
C 960 12 1222 12 1370 0 
L 1370 166 
C 992 166 979 205 979 436 
L 979 2816 
L 243 2745 
z
" transform="scale(0.015625)"/>
       <path id="CMR17-73" d="M 1978 2688 
C 1978 2803 1971 2809 1933 2809 
C 1907 2809 1901 2803 1824 2707 
C 1805 2681 1747 2617 1728 2592 
C 1523 2809 1235 2816 1126 2816 
C 416 2816 160 2444 160 2073 
C 160 1497 813 1363 998 1324 
C 1402 1241 1542 1216 1677 1100 
C 1760 1024 1901 883 1901 652 
C 1901 384 1747 38 1158 38 
C 602 38 403 460 288 1024 
C 269 1113 269 1120 218 1120 
C 166 1120 160 1113 160 985 
L 160 64 
C 160 -52 166 -58 205 -58 
C 237 -58 243 -52 275 0 
C 314 57 410 211 448 275 
C 576 102 800 -64 1158 -64 
C 1792 -64 2131 281 2131 780 
C 2131 1107 1958 1280 1875 1356 
C 1683 1555 1459 1600 1190 1651 
C 838 1728 390 1817 390 2208 
C 390 2374 480 2726 1126 2726 
C 1811 2726 1850 2086 1862 1881 
C 1869 1849 1901 1843 1920 1843 
C 1978 1843 1978 1862 1978 1971 
L 1978 2688 
z
" transform="scale(0.015625)"/>
       <path id="CMR17-6f" d="M 2758 1356 
C 2758 2176 2163 2816 1466 2816 
C 768 2816 173 2176 173 1356 
C 173 550 768 -64 1466 -64 
C 2163 -64 2758 550 2758 1356 
z
M 1466 51 
C 1165 51 909 230 762 480 
C 602 768 582 1126 582 1408 
C 582 1676 595 2009 762 2297 
C 890 2508 1139 2713 1466 2713 
C 1754 2713 1997 2553 2150 2329 
C 2349 2028 2349 1606 2349 1408 
C 2349 1158 2336 774 2163 467 
C 1984 172 1709 51 1466 51 
z
" transform="scale(0.015625)"/>
       <path id="CMR17-6e" d="M 2656 1954 
C 2656 2282 2592 2816 1837 2816 
C 1331 2816 1069 2424 973 2166 
L 966 2166 
L 966 2816 
L 211 2745 
L 211 2578 
C 589 2578 646 2540 646 2231 
L 646 443 
C 646 198 621 166 211 166 
L 211 0 
C 365 12 646 12 813 12 
C 979 12 1267 12 1421 0 
L 1421 166 
C 1011 166 986 192 986 443 
L 986 1678 
C 986 2269 1344 2713 1792 2713 
C 2266 2713 2317 2289 2317 1980 
L 2317 443 
C 2317 198 2291 166 1882 166 
L 1882 0 
C 2035 12 2317 12 2483 12 
C 2650 12 2938 12 3091 0 
L 3091 166 
C 2682 166 2656 192 2656 443 
L 2656 1954 
z
" transform="scale(0.015625)"/>
       <path id="CMR17-28" d="M 1958 -1562 
C 1958 -1556 1958 -1543 1939 -1524 
C 1645 -1223 858 -403 858 1596 
C 858 3595 1632 4408 1946 4729 
C 1946 4735 1958 4748 1958 4767 
C 1958 4787 1939 4800 1914 4800 
C 1843 4800 1299 4325 986 3620 
C 666 2909 576 2218 576 1603 
C 576 1141 621 360 1005 -467 
C 1312 -1133 1837 -1600 1914 -1600 
C 1946 -1600 1958 -1588 1958 -1562 
z
" transform="scale(0.015625)"/>
       <path id="CMR17-4b" d="M 2362 2669 
L 3469 3771 
C 3699 3994 3942 4172 4301 4185 
L 4301 4352 
C 4173 4345 4013 4339 3885 4339 
C 3712 4339 3411 4339 3245 4352 
L 3245 4185 
C 3411 4172 3437 4057 3437 4013 
C 3437 3968 3411 3898 3386 3860 
L 1261 1739 
L 1261 3898 
C 1261 4185 1331 4185 1773 4185 
L 1773 4352 
C 1587 4339 1248 4339 1050 4339 
C 851 4339 512 4339 326 4352 
L 326 4185 
C 768 4185 838 4185 838 3898 
L 838 453 
C 838 166 768 166 326 166 
L 326 0 
C 512 12 851 12 1050 12 
C 1248 12 1587 12 1773 0 
L 1773 166 
C 1331 166 1261 166 1261 453 
L 1261 1580 
L 2080 2389 
L 3290 542 
C 3328 478 3373 395 3373 332 
C 3373 166 3194 166 3110 166 
L 3110 0 
C 3315 12 3610 12 3821 12 
C 3974 12 4237 12 4384 0 
L 4384 166 
C 4077 166 3981 204 3789 497 
L 2362 2669 
z
" transform="scale(0.015625)"/>
       <path id="CMR17-29" d="M 1683 1596 
C 1683 2057 1638 2839 1254 3665 
C 947 4332 422 4800 346 4800 
C 326 4800 301 4793 301 4761 
C 301 4748 307 4742 314 4729 
C 621 4408 1402 3595 1402 1603 
C 1402 -396 627 -1210 314 -1530 
C 307 -1543 301 -1549 301 -1562 
C 301 -1594 326 -1600 346 -1600 
C 416 -1600 960 -1127 1274 -422 
C 1594 289 1683 981 1683 1596 
z
" transform="scale(0.015625)"/>
      </defs>
      <use xlink:href="#CMR17-45" transform="scale(0.996264)"/>
      <use xlink:href="#CMR17-6d" transform="translate(62.586301 0) scale(0.996264)"/>
      <use xlink:href="#CMR17-69" transform="translate(139.50589 0) scale(0.996264)"/>
      <use xlink:href="#CMR17-73" transform="translate(164.376949 0) scale(0.996264)"/>
      <use xlink:href="#CMR17-73" transform="translate(200.178287 0) scale(0.996264)"/>
      <use xlink:href="#CMR17-69" transform="translate(235.979624 0) scale(0.996264)"/>
      <use xlink:href="#CMR17-6f" transform="translate(260.850683 0) scale(0.996264)"/>
      <use xlink:href="#CMR17-6e" transform="translate(306.54116 0) scale(0.996264)"/>
      <use xlink:href="#CMR17-28" transform="translate(387.512496 0) scale(0.996264)"/>
      <use xlink:href="#CMR17-4b" transform="translate(422.793264 0) scale(0.996264)"/>
      <use xlink:href="#CMR17-29" transform="translate(494.468041 0) scale(0.996264)"/>
     </g>
    </g>
   </g>
   <g id="line2d_15">
    <path d="M 84.012015 122.677204 
L 85.723957 122.420106 
L 87.4359 122.493134 
L 89.147843 122.847618 
L 90.859786 122.364422 
L 92.571729 122.157021 
L 97.707557 122.54577 
L 101.131443 122.189319 
L 102.843385 122.643647 
L 104.555328 122.622216 
L 106.267271 122.977513 
L 107.979214 122.914029 
L 109.691157 122.204171 
L 111.403099 122.459206 
L 113.115042 122.351136 
L 114.826985 122.654784 
L 118.25087 122.450038 
L 119.962813 122.87034 
L 121.674756 122.315917 
L 123.386699 122.804922 
L 125.098642 122.447984 
L 126.810584 122.680667 
L 138.794184 122.683196 
L 140.506127 122.185058 
L 142.218069 122.774823 
L 143.930012 122.618151 
L 145.641955 122.575929 
L 147.353898 121.833499 
L 149.065841 122.371412 
L 150.777783 122.192414 
L 152.489726 122.81336 
L 154.201669 122.593103 
L 161.04944 122.282648 
L 162.761383 122.087254 
L 164.473326 122.604902 
L 167.897211 122.19293 
L 169.609154 122.563055 
L 173.03304 121.885816 
L 174.744982 122.637654 
L 176.456925 122.280831 
L 178.168868 122.521771 
L 179.880811 122.098816 
L 181.592754 122.108484 
L 183.304696 122.672335 
L 185.016639 122.107192 
L 186.728582 122.531291 
L 190.152468 122.481333 
L 191.86441 121.680615 
L 193.576353 122.373533 
L 195.288296 122.069493 
L 197.000239 122.252152 
L 198.712181 121.915994 
L 202.136067 122.221978 
L 203.84801 121.943685 
L 205.559953 121.352008 
L 207.271895 121.960441 
L 208.983838 121.745387 
L 210.695781 121.275637 
L 212.407724 121.692153 
L 214.119667 120.872439 
L 215.831609 121.060301 
L 217.543552 120.057435 
L 220.967438 120.033888 
L 222.67938 119.010794 
L 226.103266 118.371224 
L 227.815209 117.154923 
L 229.527152 116.899597 
L 231.239094 115.51368 
L 234.66298 113.359032 
L 236.374923 111.81497 
L 239.798808 107.782132 
L 241.510751 104.644732 
L 243.222694 100.708543 
L 244.934637 97.448159 
L 246.646579 90.98448 
L 248.358522 83.769395 
L 250.070465 74.760316 
L 253.494351 54.470212 
L 255.206293 43.945731 
L 256.918236 34.851604 
L 258.630179 27.501797 
L 260.342122 23.268087 
L 262.054065 22.313215 
L 263.766007 24.401155 
L 265.47795 28.194262 
L 268.901836 40.304272 
L 272.325721 54.537685 
L 274.037664 60.601876 
L 275.749607 66.144465 
L 277.46155 71.023861 
L 279.173492 75.057062 
L 280.885435 78.572389 
L 282.597378 81.100068 
L 286.021264 86.404526 
L 287.733206 87.708409 
L 292.869035 93.774187 
L 294.580978 95.317781 
L 296.29292 96.060985 
L 298.004863 98.652464 
L 299.716806 100.021579 
L 301.428749 101.197655 
L 304.852634 104.209721 
L 306.564577 105.946117 
L 308.27652 106.771708 
L 309.988463 107.941181 
L 311.700405 109.299147 
L 315.124291 110.408771 
L 316.836234 111.478656 
L 318.548177 113.294242 
L 321.972062 114.414119 
L 323.684005 115.333247 
L 327.10789 116.541026 
L 328.819833 117.255452 
L 330.531776 117.755005 
L 332.243719 117.935948 
L 333.955662 118.711597 
L 339.09149 119.906831 
L 340.803433 119.946572 
L 344.227318 120.434308 
L 345.939261 120.729775 
L 347.651204 121.204469 
L 349.363147 120.996683 
L 351.075089 121.14078 
L 352.787032 121.488197 
L 354.498975 121.541644 
L 356.210918 121.461084 
L 357.922861 121.731904 
L 359.634803 121.888534 
L 361.346746 121.705784 
L 363.058689 121.820419 
L 366.482575 122.281555 
L 368.194517 121.974558 
L 369.90646 122.322002 
L 371.618403 122.426768 
L 373.330346 122.085236 
L 378.466174 122.752804 
L 380.178117 121.872167 
L 381.89006 122.626341 
L 385.313945 122.476145 
L 387.025888 122.809047 
L 388.737831 122.697997 
L 390.449774 122.023517 
L 392.161716 122.733182 
L 393.873659 121.860254 
L 395.585602 122.329423 
L 397.297545 122.36272 
L 399.009488 122.240902 
L 400.72143 122.48397 
L 402.433373 122.596083 
L 404.145316 122.898583 
L 405.857259 121.836927 
L 407.569201 122.698048 
L 409.281144 122.261975 
L 410.993087 122.576201 
L 412.70503 122.718645 
L 414.416973 121.93127 
L 416.128915 122.212189 
L 417.840858 122.262555 
L 421.264744 121.979017 
L 422.976687 122.685872 
L 424.688629 122.110619 
L 426.400572 122.963224 
L 426.400572 122.963224 
" clip-path="url(#pf66c86cbd9)" style="fill: none; stroke: #000000; stroke-width: 1.5; stroke-linecap: square"/>
   </g>
   <g id="patch_3">
    <path d="M 66.892587 128.010728 
L 66.892587 17.28 
" style="fill: none; stroke: #000000; stroke-width: 0.8; stroke-linejoin: miter; stroke-linecap: square"/>
   </g>
   <g id="patch_4">
    <path d="M 443.52 128.010728 
L 443.52 17.28 
" style="fill: none; stroke: #000000; stroke-width: 0.8; stroke-linejoin: miter; stroke-linecap: square"/>
   </g>
   <g id="patch_5">
    <path d="M 66.892587 128.010728 
L 443.52 128.010728 
" style="fill: none; stroke: #000000; stroke-width: 0.8; stroke-linejoin: miter; stroke-linecap: square"/>
   </g>
   <g id="patch_6">
    <path d="M 66.892587 17.28 
L 443.52 17.28 
" style="fill: none; stroke: #000000; stroke-width: 0.8; stroke-linejoin: miter; stroke-linecap: square"/>
   </g>
  </g>
  <g id="axes_2">
   <g id="patch_7">
    <path d="M 66.892587 281.69052 
L 443.52 281.69052 
L 443.52 170.959792 
L 66.892587 170.959792 
z
" style="fill: #ffffff"/>
   </g>
   <g id="PolyCollection_2">
    <path d="M 84.012015 274.355813 
L 84.012015 276.13199 
L 85.723957 276.13199 
L 87.4359 276.13199 
L 89.147843 276.13199 
L 90.859786 276.13199 
L 92.571729 276.13199 
L 94.283671 276.13199 
L 95.995614 276.13199 
L 97.707557 276.13199 
L 99.4195 276.13199 
L 101.131443 276.13199 
L 102.843385 276.13199 
L 104.555328 276.13199 
L 106.267271 276.13199 
L 107.979214 276.13199 
L 109.691157 276.13199 
L 111.403099 276.13199 
L 113.115042 276.13199 
L 114.826985 276.13199 
L 116.538928 276.13199 
L 118.25087 276.13199 
L 119.962813 276.13199 
L 121.674756 276.13199 
L 123.386699 276.13199 
L 125.098642 276.13199 
L 126.810584 276.13199 
L 128.522527 276.13199 
L 130.23447 276.13199 
L 131.946413 276.13199 
L 133.658356 276.13199 
L 135.370298 276.13199 
L 137.082241 276.13199 
L 138.794184 276.13199 
L 140.506127 276.13199 
L 142.218069 276.13199 
L 143.930012 276.13199 
L 145.641955 276.13199 
L 147.353898 276.13199 
L 149.065841 276.13199 
L 150.777783 276.13199 
L 152.489726 276.13199 
L 154.201669 276.13199 
L 155.913612 276.13199 
L 157.625555 276.13199 
L 159.337497 276.13199 
L 161.04944 276.13199 
L 162.761383 276.13199 
L 164.473326 276.13199 
L 166.185268 276.13199 
L 167.897211 276.13199 
L 169.609154 276.13199 
L 171.321097 276.13199 
L 173.03304 276.13199 
L 174.744982 276.13199 
L 176.456925 276.13199 
L 178.168868 276.13199 
L 179.880811 276.13199 
L 181.592754 276.13199 
L 183.304696 276.13199 
L 185.016639 276.13199 
L 186.728582 276.13199 
L 188.440525 276.13199 
L 190.152468 276.13199 
L 191.86441 276.13199 
L 193.576353 276.13199 
L 195.288296 276.13199 
L 197.000239 276.13199 
L 198.712181 276.13199 
L 200.424124 276.13199 
L 202.136067 276.13199 
L 203.84801 276.13199 
L 205.559953 276.13199 
L 207.271895 276.13199 
L 208.983838 276.13199 
L 210.695781 276.13199 
L 212.407724 276.13199 
L 214.119667 276.13199 
L 215.831609 276.13199 
L 217.543552 276.13199 
L 219.255495 276.13199 
L 220.967438 276.13199 
L 222.67938 276.13199 
L 224.391323 276.13199 
L 226.103266 276.13199 
L 227.815209 276.13199 
L 229.527152 276.13199 
L 231.239094 276.13199 
L 232.951037 276.13199 
L 234.66298 276.13199 
L 236.374923 276.13199 
L 238.086866 276.13199 
L 239.798808 276.13199 
L 241.510751 276.13199 
L 243.222694 276.13199 
L 244.934637 276.13199 
L 246.646579 276.13199 
L 248.358522 276.13199 
L 250.070465 276.13199 
L 251.782408 276.13199 
L 253.494351 276.13199 
L 255.206293 276.13199 
L 256.918236 276.13199 
L 258.630179 276.13199 
L 260.342122 276.13199 
L 262.054065 276.13199 
L 263.766007 276.13199 
L 265.47795 276.13199 
L 267.189893 276.13199 
L 268.901836 276.13199 
L 270.613779 276.13199 
L 272.325721 276.13199 
L 274.037664 276.13199 
L 275.749607 276.13199 
L 277.46155 276.13199 
L 279.173492 276.13199 
L 280.885435 276.13199 
L 282.597378 276.13199 
L 284.309321 276.13199 
L 286.021264 276.13199 
L 287.733206 276.13199 
L 289.445149 276.13199 
L 291.157092 276.13199 
L 292.869035 276.13199 
L 294.580978 276.13199 
L 296.29292 276.13199 
L 298.004863 276.13199 
L 299.716806 276.13199 
L 301.428749 276.13199 
L 303.140691 276.13199 
L 304.852634 276.13199 
L 306.564577 276.13199 
L 308.27652 276.13199 
L 309.988463 276.13199 
L 311.700405 276.13199 
L 313.412348 276.13199 
L 315.124291 276.13199 
L 316.836234 276.13199 
L 318.548177 276.13199 
L 320.260119 276.13199 
L 321.972062 276.13199 
L 323.684005 276.13199 
L 325.395948 276.13199 
L 327.10789 276.13199 
L 328.819833 276.13199 
L 330.531776 276.13199 
L 332.243719 276.13199 
L 333.955662 276.13199 
L 335.667604 276.13199 
L 337.379547 276.13199 
L 339.09149 276.13199 
L 340.803433 276.13199 
L 342.515376 276.13199 
L 344.227318 276.13199 
L 345.939261 276.13199 
L 347.651204 276.13199 
L 349.363147 276.13199 
L 351.075089 276.13199 
L 352.787032 276.13199 
L 354.498975 276.13199 
L 356.210918 276.13199 
L 357.922861 276.13199 
L 359.634803 276.13199 
L 361.346746 276.13199 
L 363.058689 276.13199 
L 364.770632 276.13199 
L 366.482575 276.13199 
L 368.194517 276.13199 
L 369.90646 276.13199 
L 371.618403 276.13199 
L 373.330346 276.13199 
L 375.042289 276.13199 
L 376.754231 276.13199 
L 378.466174 276.13199 
L 380.178117 276.13199 
L 381.89006 276.13199 
L 383.602002 276.13199 
L 385.313945 276.13199 
L 387.025888 276.13199 
L 388.737831 276.13199 
L 390.449774 276.13199 
L 392.161716 276.13199 
L 393.873659 276.13199 
L 395.585602 276.13199 
L 397.297545 276.13199 
L 399.009488 276.13199 
L 400.72143 276.13199 
L 402.433373 276.13199 
L 404.145316 276.13199 
L 405.857259 276.13199 
L 407.569201 276.13199 
L 409.281144 276.13199 
L 410.993087 276.13199 
L 412.70503 276.13199 
L 414.416973 276.13199 
L 416.128915 276.13199 
L 417.840858 276.13199 
L 419.552801 276.13199 
L 421.264744 276.13199 
L 422.976687 276.13199 
L 424.688629 276.13199 
L 426.400572 276.13199 
L 426.400572 274.355813 
L 426.400572 274.355813 
L 424.688629 274.355813 
L 422.976687 274.355813 
L 421.264744 274.355813 
L 419.552801 274.355813 
L 417.840858 274.355813 
L 416.128915 274.355813 
L 414.416973 274.355813 
L 412.70503 274.355813 
L 410.993087 274.355813 
L 409.281144 274.355813 
L 407.569201 274.355813 
L 405.857259 274.355813 
L 404.145316 274.355813 
L 402.433373 274.355813 
L 400.72143 274.355813 
L 399.009488 274.355813 
L 397.297545 274.355813 
L 395.585602 274.355813 
L 393.873659 274.355813 
L 392.161716 274.355813 
L 390.449774 274.355813 
L 388.737831 274.355813 
L 387.025888 274.355813 
L 385.313945 274.355813 
L 383.602002 274.355813 
L 381.89006 274.355813 
L 380.178117 274.355813 
L 378.466174 274.355813 
L 376.754231 274.355813 
L 375.042289 274.355813 
L 373.330346 274.355813 
L 371.618403 274.355813 
L 369.90646 274.355813 
L 368.194517 274.355813 
L 366.482575 274.355813 
L 364.770632 274.355813 
L 363.058689 274.355813 
L 361.346746 274.355813 
L 359.634803 274.355813 
L 357.922861 274.355813 
L 356.210918 274.355813 
L 354.498975 274.355813 
L 352.787032 274.355813 
L 351.075089 274.355813 
L 349.363147 274.355813 
L 347.651204 274.355813 
L 345.939261 274.355813 
L 344.227318 274.355813 
L 342.515376 274.355813 
L 340.803433 274.355813 
L 339.09149 274.355813 
L 337.379547 274.355813 
L 335.667604 274.355813 
L 333.955662 274.355813 
L 332.243719 274.355813 
L 330.531776 274.355813 
L 328.819833 274.355813 
L 327.10789 274.355813 
L 325.395948 274.355813 
L 323.684005 274.355813 
L 321.972062 274.355813 
L 320.260119 274.355813 
L 318.548177 274.355813 
L 316.836234 274.355813 
L 315.124291 274.355813 
L 313.412348 274.355813 
L 311.700405 274.355813 
L 309.988463 274.355813 
L 308.27652 274.355813 
L 306.564577 274.355813 
L 304.852634 274.355813 
L 303.140691 274.355813 
L 301.428749 274.355813 
L 299.716806 274.355813 
L 298.004863 274.355813 
L 296.29292 274.355813 
L 294.580978 274.355813 
L 292.869035 274.355813 
L 291.157092 274.355813 
L 289.445149 274.355813 
L 287.733206 274.355813 
L 286.021264 274.355813 
L 284.309321 274.355813 
L 282.597378 274.355813 
L 280.885435 274.355813 
L 279.173492 274.355813 
L 277.46155 274.355813 
L 275.749607 274.355813 
L 274.037664 274.355813 
L 272.325721 274.355813 
L 270.613779 274.355813 
L 268.901836 274.355813 
L 267.189893 274.355813 
L 265.47795 274.355813 
L 263.766007 274.355813 
L 262.054065 274.355813 
L 260.342122 274.355813 
L 258.630179 274.355813 
L 256.918236 274.355813 
L 255.206293 274.355813 
L 253.494351 274.355813 
L 251.782408 274.355813 
L 250.070465 274.355813 
L 248.358522 274.355813 
L 246.646579 274.355813 
L 244.934637 274.355813 
L 243.222694 274.355813 
L 241.510751 274.355813 
L 239.798808 274.355813 
L 238.086866 274.355813 
L 236.374923 274.355813 
L 234.66298 274.355813 
L 232.951037 274.355813 
L 231.239094 274.355813 
L 229.527152 274.355813 
L 227.815209 274.355813 
L 226.103266 274.355813 
L 224.391323 274.355813 
L 222.67938 274.355813 
L 220.967438 274.355813 
L 219.255495 274.355813 
L 217.543552 274.355813 
L 215.831609 274.355813 
L 214.119667 274.355813 
L 212.407724 274.355813 
L 210.695781 274.355813 
L 208.983838 274.355813 
L 207.271895 274.355813 
L 205.559953 274.355813 
L 203.84801 274.355813 
L 202.136067 274.355813 
L 200.424124 274.355813 
L 198.712181 274.355813 
L 197.000239 274.355813 
L 195.288296 274.355813 
L 193.576353 274.355813 
L 191.86441 274.355813 
L 190.152468 274.355813 
L 188.440525 274.355813 
L 186.728582 274.355813 
L 185.016639 274.355813 
L 183.304696 274.355813 
L 181.592754 274.355813 
L 179.880811 274.355813 
L 178.168868 274.355813 
L 176.456925 274.355813 
L 174.744982 274.355813 
L 173.03304 274.355813 
L 171.321097 274.355813 
L 169.609154 274.355813 
L 167.897211 274.355813 
L 166.185268 274.355813 
L 164.473326 274.355813 
L 162.761383 274.355813 
L 161.04944 274.355813 
L 159.337497 274.355813 
L 157.625555 274.355813 
L 155.913612 274.355813 
L 154.201669 274.355813 
L 152.489726 274.355813 
L 150.777783 274.355813 
L 149.065841 274.355813 
L 147.353898 274.355813 
L 145.641955 274.355813 
L 143.930012 274.355813 
L 142.218069 274.355813 
L 140.506127 274.355813 
L 138.794184 274.355813 
L 137.082241 274.355813 
L 135.370298 274.355813 
L 133.658356 274.355813 
L 131.946413 274.355813 
L 130.23447 274.355813 
L 128.522527 274.355813 
L 126.810584 274.355813 
L 125.098642 274.355813 
L 123.386699 274.355813 
L 121.674756 274.355813 
L 119.962813 274.355813 
L 118.25087 274.355813 
L 116.538928 274.355813 
L 114.826985 274.355813 
L 113.115042 274.355813 
L 111.403099 274.355813 
L 109.691157 274.355813 
L 107.979214 274.355813 
L 106.267271 274.355813 
L 104.555328 274.355813 
L 102.843385 274.355813 
L 101.131443 274.355813 
L 99.4195 274.355813 
L 97.707557 274.355813 
L 95.995614 274.355813 
L 94.283671 274.355813 
L 92.571729 274.355813 
L 90.859786 274.355813 
L 89.147843 274.355813 
L 87.4359 274.355813 
L 85.723957 274.355813 
L 84.012015 274.355813 
z
" clip-path="url(#p5e2856e8d7)" style="fill-opacity: 0.5"/>
   </g>
   <g id="matplotlib.axis_3">
    <g id="xtick_6">
     <g id="line2d_16">
      <path d="M 118.25087 281.69052 
L 118.25087 170.959792 
" clip-path="url(#p5e2856e8d7)" style="fill: none; stroke: #b0b0b0; stroke-width: 0.8; stroke-linecap: square"/>
     </g>
     <g id="line2d_17">
      <g>
       <use xlink:href="#ma18e5b1cac" x="118.25087" y="281.69052" style="stroke: #000000; stroke-width: 0.8"/>
      </g>
     </g>
     <g id="text_9">
      <!-- $\mathdefault{−40}$ -->
      <g transform="translate(104.247885 304.260108) scale(0.16 -0.16)">
       <use xlink:href="#CMSY10-0" transform="scale(0.996264)"/>
       <use xlink:href="#CMR17-34" transform="translate(77.487468 0) scale(0.996264)"/>
       <use xlink:href="#CMR17-30" transform="translate(123.177945 0) scale(0.996264)"/>
      </g>
     </g>
    </g>
    <g id="xtick_7">
     <g id="line2d_18">
      <path d="M 186.728582 281.69052 
L 186.728582 170.959792 
" clip-path="url(#p5e2856e8d7)" style="fill: none; stroke: #b0b0b0; stroke-width: 0.8; stroke-linecap: square"/>
     </g>
     <g id="line2d_19">
      <g>
       <use xlink:href="#ma18e5b1cac" x="186.728582" y="281.69052" style="stroke: #000000; stroke-width: 0.8"/>
      </g>
     </g>
     <g id="text_10">
      <!-- $\mathdefault{−20}$ -->
      <g transform="translate(172.725597 304.260108) scale(0.16 -0.16)">
       <use xlink:href="#CMSY10-0" transform="scale(0.996264)"/>
       <use xlink:href="#CMR17-32" transform="translate(77.487468 0) scale(0.996264)"/>
       <use xlink:href="#CMR17-30" transform="translate(123.177945 0) scale(0.996264)"/>
      </g>
     </g>
    </g>
    <g id="xtick_8">
     <g id="line2d_20">
      <path d="M 255.206293 281.69052 
L 255.206293 170.959792 
" clip-path="url(#p5e2856e8d7)" style="fill: none; stroke: #b0b0b0; stroke-width: 0.8; stroke-linecap: square"/>
     </g>
     <g id="line2d_21">
      <g>
       <use xlink:href="#ma18e5b1cac" x="255.206293" y="281.69052" style="stroke: #000000; stroke-width: 0.8"/>
      </g>
     </g>
     <g id="text_11">
      <!-- $\mathdefault{0}$ -->
      <g transform="translate(251.3043 304.260108) scale(0.16 -0.16)">
       <use xlink:href="#CMR17-30" transform="scale(0.996264)"/>
      </g>
     </g>
    </g>
    <g id="xtick_9">
     <g id="line2d_22">
      <path d="M 323.684005 281.69052 
L 323.684005 170.959792 
" clip-path="url(#p5e2856e8d7)" style="fill: none; stroke: #b0b0b0; stroke-width: 0.8; stroke-linecap: square"/>
     </g>
     <g id="line2d_23">
      <g>
       <use xlink:href="#ma18e5b1cac" x="323.684005" y="281.69052" style="stroke: #000000; stroke-width: 0.8"/>
      </g>
     </g>
     <g id="text_12">
      <!-- $\mathdefault{20}$ -->
      <g transform="translate(315.880018 304.260108) scale(0.16 -0.16)">
       <use xlink:href="#CMR17-32" transform="scale(0.996264)"/>
       <use xlink:href="#CMR17-30" transform="translate(45.690477 0) scale(0.996264)"/>
      </g>
     </g>
    </g>
    <g id="xtick_10">
     <g id="line2d_24">
      <path d="M 392.161716 281.69052 
L 392.161716 170.959792 
" clip-path="url(#p5e2856e8d7)" style="fill: none; stroke: #b0b0b0; stroke-width: 0.8; stroke-linecap: square"/>
     </g>
     <g id="line2d_25">
      <g>
       <use xlink:href="#ma18e5b1cac" x="392.161716" y="281.69052" style="stroke: #000000; stroke-width: 0.8"/>
      </g>
     </g>
     <g id="text_13">
      <!-- $\mathdefault{40}$ -->
      <g transform="translate(384.357729 304.260108) scale(0.16 -0.16)">
       <use xlink:href="#CMR17-34" transform="scale(0.996264)"/>
       <use xlink:href="#CMR17-30" transform="translate(45.690477 0) scale(0.996264)"/>
      </g>
     </g>
    </g>
    <g id="text_14">
     <!-- Velocity (km s$^{-1}$) -->
     <g transform="translate(195.327689 324.334944) scale(0.16 -0.16)">
      <defs>
       <path id="CMR17-56" d="M 3776 3762 
C 3834 3903 3936 4179 4365 4185 
L 4365 4352 
C 4218 4339 4051 4339 3891 4339 
C 3738 4339 3475 4339 3328 4352 
L 3328 4185 
C 3648 4166 3661 3942 3661 3903 
C 3661 3833 3642 3788 3622 3737 
L 2362 448 
L 1043 3903 
C 1024 3948 1011 3980 1011 4012 
C 1011 4185 1267 4185 1402 4185 
L 1402 4352 
C 1197 4339 896 4339 685 4339 
C 518 4339 218 4339 64 4352 
L 64 4185 
C 435 4185 506 4160 582 3955 
L 2106 -26 
C 2138 -116 2144 -128 2214 -128 
C 2285 -128 2291 -116 2323 -26 
L 3776 3762 
z
" transform="scale(0.015625)"/>
       <path id="CMR17-65" d="M 2438 1503 
C 2464 1529 2464 1542 2464 1606 
C 2464 2251 2118 2816 1389 2816 
C 710 2816 173 2175 173 1394 
C 173 554 781 -64 1459 -64 
C 2176 -64 2458 619 2458 755 
C 2458 800 2419 800 2406 800 
C 2362 800 2355 787 2330 709 
C 2189 270 1837 51 1504 51 
C 1229 51 954 206 781 490 
C 582 819 582 1200 582 1503 
L 2438 1503 
z
M 589 1600 
C 634 2511 1126 2713 1382 2713 
C 1818 2713 2112 2308 2118 1600 
L 589 1600 
z
" transform="scale(0.015625)"/>
       <path id="CMR17-6c" d="M 979 4416 
L 218 4345 
L 218 4179 
C 595 4179 653 4141 653 3835 
L 653 439 
C 653 198 627 166 218 166 
L 218 0 
C 371 12 653 12 813 12 
C 979 12 1261 12 1414 0 
L 1414 166 
C 1005 166 979 191 979 439 
L 979 4416 
z
" transform="scale(0.015625)"/>
       <path id="CMR17-63" d="M 2234 2240 
C 2112 2240 1933 2240 1933 2015 
C 1933 1836 2080 1785 2163 1785 
C 2208 1785 2394 1804 2394 2028 
C 2394 2476 1958 2816 1466 2816 
C 787 2816 211 2201 211 1379 
C 211 521 813 -64 1466 -64 
C 2259 -64 2458 676 2458 747 
C 2458 773 2451 792 2406 792 
C 2362 792 2355 786 2330 702 
C 2163 180 1798 51 1523 51 
C 1114 51 621 431 621 1385 
C 621 2358 1094 2700 1472 2700 
C 1722 2700 2093 2582 2234 2240 
z
" transform="scale(0.015625)"/>
       <path id="CMR17-74" d="M 966 2585 
L 1862 2585 
L 1862 2752 
L 966 2752 
L 966 3968 
L 851 3968 
C 838 3292 614 2700 70 2687 
L 70 2585 
L 627 2585 
L 627 778 
C 627 655 627 -64 1370 -64 
C 1747 -64 1965 308 1965 784 
L 1965 1151 
L 1850 1151 
L 1850 790 
C 1850 347 1677 51 1408 51 
C 1222 51 966 179 966 765 
L 966 2585 
z
" transform="scale(0.015625)"/>
       <path id="CMR17-79" d="M 2496 2183 
C 2656 2579 2944 2585 3034 2585 
L 3034 2752 
C 2912 2745 2752 2739 2630 2739 
C 2496 2739 2285 2739 2157 2752 
L 2157 2585 
C 2400 2566 2406 2384 2406 2332 
C 2406 2268 2394 2235 2362 2158 
L 1664 409 
L 902 2300 
C 870 2378 870 2423 870 2430 
C 870 2572 1018 2585 1171 2585 
L 1171 2752 
C 1018 2739 742 2739 582 2739 
C 410 2739 205 2739 64 2752 
L 64 2585 
C 410 2585 448 2553 531 2345 
L 1485 -31 
C 1197 -795 1030 -1242 627 -1242 
C 557 -1242 397 -1223 282 -1106 
C 429 -1093 493 -1002 493 -892 
C 493 -782 416 -685 288 -685 
C 147 -685 77 -782 77 -899 
C 77 -1158 339 -1344 627 -1344 
C 998 -1344 1229 -983 1357 -659 
L 2496 2183 
z
" transform="scale(0.015625)"/>
       <path id="CMR17-6b" d="M 1670 1679 
C 1664 1692 1632 1730 1632 1749 
C 1632 1762 2086 2175 2144 2226 
C 2509 2532 2739 2563 2906 2570 
L 2906 2735 
C 2867 2735 2854 2735 2848 2729 
L 2534 2722 
C 2355 2722 2080 2722 1907 2735 
L 1907 2570 
C 1997 2563 2061 2513 2061 2423 
C 2061 2296 1933 2175 1926 2175 
L 960 1298 
L 960 4416 
L 198 4345 
L 198 4179 
C 576 4179 634 4141 634 3835 
L 634 439 
C 634 198 608 166 198 166 
L 198 0 
C 352 12 634 12 794 12 
C 954 12 1235 12 1389 0 
L 1389 166 
C 979 166 954 191 954 439 
L 954 1139 
L 1395 1540 
L 2042 586 
C 2118 471 2182 382 2182 299 
C 2182 185 2067 166 1990 166 
L 1990 0 
C 2144 12 2419 12 2579 12 
C 2694 12 2931 6 3040 0 
L 3040 166 
C 2739 166 2669 223 2477 503 
L 1670 1679 
z
" transform="scale(0.015625)"/>
       <path id="CMR17-31" d="M 1702 4083 
C 1702 4217 1696 4224 1606 4224 
C 1357 3927 979 3833 621 3820 
C 602 3820 570 3820 563 3808 
C 557 3795 557 3782 557 3648 
C 755 3648 1088 3686 1344 3839 
L 1344 467 
C 1344 243 1331 166 781 166 
L 589 166 
L 589 0 
C 896 6 1216 12 1523 12 
C 1830 12 2150 6 2458 0 
L 2458 166 
L 2266 166 
C 1715 166 1702 236 1702 467 
L 1702 4083 
z
" transform="scale(0.015625)"/>
      </defs>
      <use xlink:href="#CMR17-56" transform="scale(0.996264)"/>
      <use xlink:href="#CMR17-65" transform="translate(61.265174 0) scale(0.996264)"/>
      <use xlink:href="#CMR17-6c" transform="translate(101.750835 0) scale(0.996264)"/>
      <use xlink:href="#CMR17-6f" transform="translate(126.621893 0) scale(0.996264)"/>
      <use xlink:href="#CMR17-63" transform="translate(174.914809 0) scale(0.996264)"/>
      <use xlink:href="#CMR17-69" transform="translate(215.40047 0) scale(0.996264)"/>
      <use xlink:href="#CMR17-74" transform="translate(240.271528 0) scale(0.996264)"/>
      <use xlink:href="#CMR17-79" transform="translate(272.949842 0) scale(0.996264)"/>
      <use xlink:href="#CMR17-28" transform="translate(351.318724 0) scale(0.996264)"/>
      <use xlink:href="#CMR17-6b" transform="translate(386.599492 0) scale(0.996264)"/>
      <use xlink:href="#CMR17-6d" transform="translate(434.892408 0) scale(0.996264)"/>
      <use xlink:href="#CMR17-73" transform="translate(541.887964 0) scale(0.996264)"/>
      <use xlink:href="#CMSY10-0" transform="translate(577.689302 36.153639) scale(0.697382)"/>
      <use xlink:href="#CMR17-31" transform="translate(631.930295 36.153639) scale(0.697382)"/>
      <use xlink:href="#CMR17-29" transform="translate(664.411609 0) scale(0.996264)"/>
     </g>
    </g>
   </g>
   <g id="matplotlib.axis_4">
    <g id="ytick_3">
     <g id="line2d_26">
      <path d="M 66.892587 275.243901 
L 443.52 275.243901 
" clip-path="url(#p5e2856e8d7)" style="fill: none; stroke: #b0b0b0; stroke-width: 0.8; stroke-linecap: square"/>
     </g>
     <g id="line2d_27">
      <g>
       <use xlink:href="#m5ee8313d1f" x="66.892587" y="275.243901" style="stroke: #000000; stroke-width: 0.8"/>
      </g>
     </g>
     <g id="text_15">
      <!-- $\mathdefault{0.0}$ -->
      <g transform="translate(35.449064 280.778696) scale(0.16 -0.16)">
       <defs>
        <path id="CMMI12-3a" d="M 1178 307 
C 1178 492 1024 620 870 620 
C 685 620 557 467 557 313 
C 557 128 710 0 864 0 
C 1050 0 1178 153 1178 307 
z
" transform="scale(0.015625)"/>
       </defs>
       <use xlink:href="#CMR17-30" transform="scale(0.996264)"/>
       <use xlink:href="#CMMI12-3a" transform="translate(45.690477 0) scale(0.996264)"/>
       <use xlink:href="#CMR17-30" transform="translate(72.787654 0) scale(0.996264)"/>
      </g>
     </g>
    </g>
    <g id="ytick_4">
     <g id="line2d_28">
      <path d="M 66.892587 216.03801 
L 443.52 216.03801 
" clip-path="url(#p5e2856e8d7)" style="fill: none; stroke: #b0b0b0; stroke-width: 0.8; stroke-linecap: square"/>
     </g>
     <g id="line2d_29">
      <g>
       <use xlink:href="#m5ee8313d1f" x="66.892587" y="216.03801" style="stroke: #000000; stroke-width: 0.8"/>
      </g>
     </g>
     <g id="text_16">
      <!-- $\mathdefault{0.1}$ -->
      <g transform="translate(35.449064 221.572804) scale(0.16 -0.16)">
       <use xlink:href="#CMR17-30" transform="scale(0.996264)"/>
       <use xlink:href="#CMMI12-3a" transform="translate(45.690477 0) scale(0.996264)"/>
       <use xlink:href="#CMR17-31" transform="translate(72.787654 0) scale(0.996264)"/>
      </g>
     </g>
    </g>
    <g id="text_17">
     <!-- Absorption -->
     <g transform="translate(28.349588 264.3018) rotate(-90) scale(0.16 -0.16)">
      <defs>
       <path id="CMR17-41" d="M 2323 4441 
C 2291 4524 2278 4544 2214 4544 
C 2150 4544 2138 4524 2106 4441 
L 749 580 
C 627 236 371 166 147 166 
L 147 0 
C 262 12 518 12 640 12 
C 800 12 1056 12 1210 0 
L 1210 166 
C 909 179 864 382 864 459 
C 864 516 877 548 890 586 
L 1229 1536 
L 2906 1536 
L 3290 453 
C 3322 376 3322 363 3322 338 
C 3322 166 3046 166 2925 166 
L 2925 0 
C 3110 12 3443 12 3642 12 
C 3808 12 4128 12 4282 0 
L 4282 166 
C 3942 166 3827 166 3744 402 
L 2323 4441 
z
M 2067 3924 
L 2848 1702 
L 1286 1702 
L 2067 3924 
z
" transform="scale(0.015625)"/>
       <path id="CMR17-62" d="M 960 4416 
L 198 4345 
L 198 4179 
C 576 4179 634 4141 634 3843 
L 634 -13 
L 749 -13 
L 934 445 
C 1120 141 1395 -64 1766 -64 
C 2406 -64 3053 503 3053 1382 
C 3053 2209 2477 2816 1830 2816 
C 1434 2816 1152 2603 960 2351 
L 960 4416 
z
M 973 2022 
C 973 2138 973 2157 1062 2293 
C 1312 2681 1670 2713 1792 2713 
C 1984 2713 2643 2610 2643 1388 
C 2643 109 1888 38 1734 38 
C 1536 38 1248 115 1043 490 
C 973 613 973 626 973 742 
L 973 2022 
z
" transform="scale(0.015625)"/>
       <path id="CMR17-72" d="M 960 1517 
C 960 2134 1222 2713 1702 2713 
C 1747 2713 1792 2707 1837 2687 
C 1837 2687 1696 2642 1696 2475 
C 1696 2321 1818 2257 1914 2257 
C 1990 2257 2131 2302 2131 2482 
C 2131 2687 1926 2816 1709 2816 
C 1222 2816 1011 2340 947 2115 
L 941 2115 
L 941 2816 
L 198 2745 
L 198 2578 
C 576 2578 634 2540 634 2231 
L 634 443 
C 634 198 608 166 198 166 
L 198 0 
C 352 12 646 12 813 12 
C 998 12 1325 12 1498 0 
L 1498 166 
C 1037 166 960 166 960 455 
L 960 1517 
z
" transform="scale(0.015625)"/>
       <path id="CMR17-70" d="M 1408 -1114 
C 998 -1114 973 -1088 973 -834 
L 973 380 
C 1158 109 1427 -64 1766 -64 
C 2406 -64 3053 503 3053 1382 
C 3053 2196 2496 2816 1837 2816 
C 1453 2816 1139 2603 960 2345 
L 960 2816 
L 198 2745 
L 198 2577 
C 576 2577 634 2539 634 2228 
L 634 -834 
C 634 -1081 608 -1114 198 -1114 
L 198 -1280 
C 352 -1268 634 -1268 800 -1268 
C 966 -1268 1254 -1268 1408 -1280 
L 1408 -1114 
z
M 973 2015 
C 973 2106 973 2241 1222 2481 
C 1254 2506 1472 2700 1792 2700 
C 2259 2700 2643 2112 2643 1376 
C 2643 639 2234 38 1728 38 
C 1498 38 1248 148 1056 451 
C 973 594 973 632 973 736 
L 973 2015 
z
" transform="scale(0.015625)"/>
      </defs>
      <use xlink:href="#CMR17-41" transform="scale(0.996264)"/>
      <use xlink:href="#CMR17-62" transform="translate(69.07243 0) scale(0.996264)"/>
      <use xlink:href="#CMR17-73" transform="translate(119.9678 0) scale(0.996264)"/>
      <use xlink:href="#CMR17-6f" transform="translate(155.769137 0) scale(0.996264)"/>
      <use xlink:href="#CMR17-72" transform="translate(201.459614 0) scale(0.996264)"/>
      <use xlink:href="#CMR17-70" transform="translate(236.740382 0) scale(0.996264)"/>
      <use xlink:href="#CMR17-74" transform="translate(287.635752 0) scale(0.996264)"/>
      <use xlink:href="#CMR17-69" transform="translate(322.91652 0) scale(0.996264)"/>
      <use xlink:href="#CMR17-6f" transform="translate(347.787578 0) scale(0.996264)"/>
      <use xlink:href="#CMR17-6e" transform="translate(393.478055 0) scale(0.996264)"/>
     </g>
    </g>
   </g>
   <g id="line2d_30">
    <path d="M 84.012015 276.245014 
L 85.723957 274.443241 
L 87.4359 275.333608 
L 89.147843 274.783984 
L 90.859786 275.422109 
L 92.571729 274.732198 
L 94.283671 273.894239 
L 95.995614 274.541676 
L 97.707557 275.374245 
L 99.4195 276.481343 
L 101.131443 275.432003 
L 102.843385 275.088368 
L 104.555328 273.9921 
L 107.979214 275.776254 
L 109.691157 275.736795 
L 111.403099 275.162172 
L 113.115042 275.194823 
L 114.826985 276.08448 
L 116.538928 275.968063 
L 118.25087 275.337532 
L 119.962813 275.371595 
L 121.674756 274.822964 
L 123.386699 275.545298 
L 125.098642 275.407248 
L 128.522527 276.139759 
L 130.23447 274.480097 
L 131.946413 274.735591 
L 133.658356 275.656715 
L 135.370298 274.764115 
L 137.082241 275.298725 
L 138.794184 275.267004 
L 140.506127 275.87125 
L 142.218069 275.541057 
L 143.930012 276.566046 
L 147.353898 274.561382 
L 149.065841 274.489404 
L 150.777783 275.171551 
L 152.489726 275.039456 
L 154.201669 275.089232 
L 155.913612 275.923644 
L 157.625555 275.574087 
L 159.337497 274.996964 
L 161.04944 275.697899 
L 162.761383 275.396622 
L 164.473326 275.50249 
L 166.185268 275.317058 
L 169.609154 276.015664 
L 171.321097 276.329456 
L 173.03304 274.75225 
L 174.744982 275.235486 
L 176.456925 275.086841 
L 178.168868 275.807859 
L 179.880811 274.677197 
L 181.592754 275.282527 
L 183.304696 274.19765 
L 185.016639 274.911205 
L 186.728582 276.657305 
L 190.152468 274.352977 
L 191.86441 275.617254 
L 193.576353 274.366511 
L 195.288296 275.869589 
L 197.000239 274.921943 
L 198.712181 274.705643 
L 202.136067 274.599935 
L 203.84801 275.725231 
L 205.559953 274.738187 
L 210.695781 275.981168 
L 214.119667 275.826316 
L 215.831609 275.541018 
L 219.255495 274.158192 
L 220.967438 275.264873 
L 224.391323 275.175694 
L 226.103266 273.959931 
L 227.815209 274.141822 
L 229.527152 273.759655 
L 231.239094 274.280637 
L 232.951037 274.674006 
L 234.66298 273.513842 
L 236.374923 274.328461 
L 238.086866 273.230458 
L 239.798808 271.431026 
L 241.510751 270.508022 
L 243.222694 268.561784 
L 244.934637 264.589298 
L 246.646579 258.40896 
L 248.358522 251.039329 
L 250.070465 241.687106 
L 251.782408 229.085886 
L 253.494351 214.050361 
L 255.206293 200.716192 
L 256.918236 188.851373 
L 258.630179 179.187194 
L 260.342122 175.993007 
L 262.054065 177.903465 
L 263.766007 184.136261 
L 270.613779 228.496801 
L 272.325721 237.893888 
L 274.037664 246.452261 
L 275.749607 253.511399 
L 277.46155 259.210115 
L 279.173492 262.774257 
L 280.885435 264.653892 
L 282.597378 267.694071 
L 284.309321 267.955454 
L 287.733206 270.73984 
L 289.445149 270.547912 
L 291.157092 271.694616 
L 292.869035 271.920153 
L 294.580978 271.257829 
L 296.29292 272.881536 
L 298.004863 271.504664 
L 301.428749 272.733634 
L 303.140691 272.85517 
L 304.852634 272.64866 
L 306.564577 272.941191 
L 308.27652 273.854709 
L 309.988463 273.19321 
L 311.700405 273.486665 
L 313.412348 274.484369 
L 315.124291 273.650859 
L 316.836234 273.107193 
L 318.548177 274.999467 
L 320.260119 274.959661 
L 321.972062 273.44399 
L 323.684005 275.010714 
L 325.395948 275.396202 
L 328.819833 274.151756 
L 330.531776 274.309686 
L 332.243719 275.068454 
L 333.955662 274.818083 
L 335.667604 275.337664 
L 337.379547 275.278087 
L 340.803433 274.876835 
L 342.515376 273.943692 
L 344.227318 275.523848 
L 347.651204 275.219679 
L 349.363147 276.012754 
L 351.075089 274.916593 
L 352.787032 275.477861 
L 354.498975 275.066327 
L 356.210918 274.80655 
L 357.922861 273.857178 
L 359.634803 275.474834 
L 361.346746 275.76965 
L 363.058689 275.402666 
L 364.770632 275.181921 
L 366.482575 274.469013 
L 368.194517 275.755306 
L 369.90646 274.562426 
L 371.618403 276.020981 
L 373.330346 275.628918 
L 375.042289 275.599558 
L 376.754231 276.010556 
L 378.466174 275.268949 
L 380.178117 275.521699 
L 381.89006 274.830621 
L 383.602002 275.512999 
L 385.313945 274.495905 
L 387.025888 275.663673 
L 388.737831 274.714341 
L 390.449774 274.742878 
L 392.161716 274.292637 
L 393.873659 275.53139 
L 395.585602 275.653609 
L 397.297545 275.530672 
L 399.009488 275.213106 
L 400.72143 274.69013 
L 402.433373 275.425331 
L 404.145316 274.939236 
L 405.857259 275.845288 
L 409.281144 275.096497 
L 410.993087 274.69805 
L 412.70503 275.689351 
L 414.416973 275.130818 
L 416.128915 274.89968 
L 417.840858 275.099012 
L 419.552801 274.80828 
L 421.264744 274.838177 
L 422.976687 275.528687 
L 426.400572 274.655622 
L 426.400572 274.655622 
" clip-path="url(#p5e2856e8d7)" style="fill: none; stroke: #000000; stroke-width: 1.5; stroke-linecap: square"/>
   </g>
   <g id="patch_8">
    <path d="M 66.892587 281.69052 
L 66.892587 170.959792 
" style="fill: none; stroke: #000000; stroke-width: 0.8; stroke-linejoin: miter; stroke-linecap: square"/>
   </g>
   <g id="patch_9">
    <path d="M 443.52 281.69052 
L 443.52 170.959792 
" style="fill: none; stroke: #000000; stroke-width: 0.8; stroke-linejoin: miter; stroke-linecap: square"/>
   </g>
   <g id="patch_10">
    <path d="M 66.892587 281.69052 
L 443.52 281.69052 
" style="fill: none; stroke: #000000; stroke-width: 0.8; stroke-linejoin: miter; stroke-linecap: square"/>
   </g>
   <g id="patch_11">
    <path d="M 66.892587 170.959792 
L 443.52 170.959792 
" style="fill: none; stroke: #000000; stroke-width: 0.8; stroke-linejoin: miter; stroke-linecap: square"/>
   </g>
  </g>
 </g>
 <defs>
  <clipPath id="pf66c86cbd9">
   <rect x="66.892587" y="17.28" width="376.627413" height="110.730728"/>
  </clipPath>
  <clipPath id="p5e2856e8d7">
   <rect x="66.892587" y="170.959792" width="376.627413" height="110.730728"/>
  </clipPath>
 </defs>
</svg>
