<?xml version="1.0" encoding="UTF-8" standalone="no"?>
<!DOCTYPE svg PUBLIC "-//W3C//DTD SVG 1.1//EN"
 "http://www.w3.org/Graphics/SVG/1.1/DTD/svg11.dtd">
<!-- Generated by graphviz version 9.0.0 (20231125.0833)
 -->
<!-- Pages: 1 -->
<svg width="3150pt" height="1215pt"
 viewBox="0.00 0.00 3149.59 1214.74" xmlns="http://www.w3.org/2000/svg" xmlns:xlink="http://www.w3.org/1999/xlink">
<g id="graph0" class="graph" transform="scale(1 1) rotate(0) translate(4 1210.74)">
<polygon fill="white" stroke="none" points="-4,4 -4,-1210.74 3145.59,-1210.74 3145.59,4 -4,4"/>
<g id="clust1" class="cluster">
<title>clusterv_em (201)</title>
<path fill="none" stroke="black" d="M20,-8C20,-8 174,-8 174,-8 180,-8 186,-14 186,-20 186,-20 186,-571.87 186,-571.87 186,-577.87 180,-583.87 174,-583.87 174,-583.87 20,-583.87 20,-583.87 14,-583.87 8,-577.87 8,-571.87 8,-571.87 8,-20 8,-20 8,-14 14,-8 20,-8"/>
<text text-anchor="middle" x="138.62" y="-15.95" font-family="Times,serif" font-size="14.00">v_em (201)</text>
</g>
<g id="clust2" class="cluster">
<title>clusterv_abs (201)</title>
<path fill="none" stroke="black" d="M2061,-8C2061,-8 2219,-8 2219,-8 2225,-8 2231,-14 2231,-20 2231,-20 2231,-571.87 2231,-571.87 2231,-577.87 2225,-583.87 2219,-583.87 2219,-583.87 2061,-583.87 2061,-583.87 2055,-583.87 2049,-577.87 2049,-571.87 2049,-571.87 2049,-20 2049,-20 2049,-14 2055,-8 2061,-8"/>
<text text-anchor="middle" x="2182.12" y="-15.95" font-family="Times,serif" font-size="14.00">v_abs (201)</text>
</g>
<g id="clust3" class="cluster">
<title>clustercoeff (3)</title>
<path fill="none" stroke="black" d="M276,-229.5C276,-229.5 664,-229.5 664,-229.5 670,-229.5 676,-235.5 676,-241.5 676,-241.5 676,-343.25 676,-343.25 676,-349.25 670,-355.25 664,-355.25 664,-355.25 276,-355.25 276,-355.25 270,-355.25 264,-349.25 264,-343.25 264,-343.25 264,-241.5 264,-241.5 264,-235.5 270,-229.5 276,-229.5"/>
<text text-anchor="middle" x="639.12" y="-237.45" font-family="Times,serif" font-size="14.00">coeff (3)</text>
</g>
<g id="clust4" class="cluster">
<title>clustercloud (4)</title>
<path fill="none" stroke="black" d="M696,-241.87C696,-241.87 1841,-241.87 1841,-241.87 1847,-241.87 1853,-247.87 1853,-253.87 1853,-253.87 1853,-1186.74 1853,-1186.74 1853,-1192.74 1847,-1198.74 1841,-1198.74 1841,-1198.74 696,-1198.74 696,-1198.74 690,-1198.74 684,-1192.74 684,-1186.74 684,-1186.74 684,-253.87 684,-253.87 684,-247.87 690,-241.87 696,-241.87"/>
<text text-anchor="middle" x="1813.88" y="-249.82" font-family="Times,serif" font-size="14.00">cloud (4)</text>
</g>
<!-- emission_spectrum -->
<g id="node1" class="node">
<title>emission_spectrum</title>
<path fill="lightgrey" stroke="black" d="M165.62,-101C165.62,-101 36.38,-101 36.38,-101 30.38,-101 24.38,-95 24.38,-89 24.38,-89 24.38,-53.25 24.38,-53.25 24.38,-47.25 30.38,-41.25 36.38,-41.25 36.38,-41.25 165.62,-41.25 165.62,-41.25 171.62,-41.25 177.62,-47.25 177.62,-53.25 177.62,-53.25 177.62,-89 177.62,-89 177.62,-95 171.62,-101 165.62,-101"/>
<text text-anchor="middle" x="101" y="-83.7" font-family="Times,serif" font-size="14.00">emission_spectrum</text>
<text text-anchor="middle" x="101" y="-66.45" font-family="Times,serif" font-size="14.00">~</text>
<text text-anchor="middle" x="101" y="-49.2" font-family="Times,serif" font-size="14.00">ConstantData</text>
</g>
<!-- emission_velocity -->
<g id="node2" class="node">
<title>emission_velocity</title>
<path fill="lightgrey" stroke="black" d="M145.62,-455.37C145.62,-455.37 28.38,-455.37 28.38,-455.37 22.38,-455.37 16.38,-449.37 16.38,-443.37 16.38,-443.37 16.38,-407.62 16.38,-407.62 16.38,-401.62 22.38,-395.62 28.38,-395.62 28.38,-395.62 145.62,-395.62 145.62,-395.62 151.62,-395.62 157.62,-401.62 157.62,-407.62 157.62,-407.62 157.62,-443.37 157.62,-443.37 157.62,-449.37 151.62,-455.37 145.62,-455.37"/>
<text text-anchor="middle" x="87" y="-438.07" font-family="Times,serif" font-size="14.00">emission_velocity</text>
<text text-anchor="middle" x="87" y="-420.82" font-family="Times,serif" font-size="14.00">~</text>
<text text-anchor="middle" x="87" y="-403.57" font-family="Times,serif" font-size="14.00">ConstantData</text>
</g>
<!-- emission -->
<g id="node3" class="node">
<title>emission</title>
<ellipse fill="lightgrey" stroke="black" cx="122" cy="-179.25" rx="55.86" ry="42.25"/>
<text text-anchor="middle" x="122" y="-191.82" font-family="Times,serif" font-size="14.00">emission</text>
<text text-anchor="middle" x="122" y="-174.57" font-family="Times,serif" font-size="14.00">~</text>
<text text-anchor="middle" x="122" y="-157.32" font-family="Times,serif" font-size="14.00">Normal</text>
</g>
<!-- emission_velocity&#45;&gt;emission -->
<g id="edge1" class="edge">
<title>emission_velocity&#45;&gt;emission</title>
<path fill="none" stroke="black" d="M96.63,-395.3C96.63,-395.3 96.63,-228.89 96.63,-228.89"/>
<polygon fill="black" stroke="black" points="100.13,-228.89 96.63,-218.89 93.13,-228.89 100.13,-228.89"/>
</g>
<!-- emission_velocity&#45;&gt;emission -->
<g id="edge2" class="edge">
<title>emission_velocity&#45;&gt;emission</title>
<path fill="none" stroke="black" d="M127.13,-395.3C127.13,-395.3 127.13,-233.18 127.13,-233.18"/>
<polygon fill="black" stroke="black" points="130.63,-233.18 127.13,-223.18 123.63,-233.18 130.63,-233.18"/>
</g>
<!-- emission&#45;&gt;emission_spectrum -->
<g id="edge3" class="edge">
<title>emission&#45;&gt;emission_spectrum</title>
<path fill="none" stroke="black" d="M121.88,-136.52C121.88,-136.52 121.88,-112.74 121.88,-112.74"/>
<polygon fill="black" stroke="black" points="125.38,-112.74 121.88,-102.74 118.38,-112.74 125.38,-112.74"/>
</g>
<!-- emission_noise -->
<g id="node4" class="node">
<title>emission_noise</title>
<path fill="lightgrey" stroke="black" d="M165.62,-575.87C165.62,-575.87 66.38,-575.87 66.38,-575.87 60.38,-575.87 54.38,-569.87 54.38,-563.87 54.38,-563.87 54.38,-528.12 54.38,-528.12 54.38,-522.12 60.38,-516.12 66.38,-516.12 66.38,-516.12 165.62,-516.12 165.62,-516.12 171.62,-516.12 177.62,-522.12 177.62,-528.12 177.62,-528.12 177.62,-563.87 177.62,-563.87 177.62,-569.87 171.62,-575.87 165.62,-575.87"/>
<text text-anchor="middle" x="116" y="-558.57" font-family="Times,serif" font-size="14.00">emission_noise</text>
<text text-anchor="middle" x="116" y="-541.32" font-family="Times,serif" font-size="14.00">~</text>
<text text-anchor="middle" x="116" y="-524.07" font-family="Times,serif" font-size="14.00">ConstantData</text>
</g>
<!-- emission_noise&#45;&gt;emission -->
<g id="edge4" class="edge">
<title>emission_noise&#45;&gt;emission</title>
<path fill="none" stroke="black" d="M162.62,-515.67C162.62,-515.67 162.62,-220.35 162.62,-220.35"/>
<polygon fill="black" stroke="black" points="166.13,-220.35 162.63,-210.35 159.13,-220.35 166.13,-220.35"/>
</g>
<!-- absorption -->
<g id="node5" class="node">
<title>absorption</title>
<ellipse fill="lightgrey" stroke="black" cx="2123" cy="-179.25" rx="65.41" ry="42.25"/>
<text text-anchor="middle" x="2123" y="-191.82" font-family="Times,serif" font-size="14.00">absorption</text>
<text text-anchor="middle" x="2123" y="-174.57" font-family="Times,serif" font-size="14.00">~</text>
<text text-anchor="middle" x="2123" y="-157.32" font-family="Times,serif" font-size="14.00">Normal</text>
</g>
<!-- absorption_spectrum -->
<g id="node7" class="node">
<title>absorption_spectrum</title>
<path fill="lightgrey" stroke="black" d="M2211.38,-101C2211.38,-101 2068.62,-101 2068.62,-101 2062.62,-101 2056.62,-95 2056.62,-89 2056.62,-89 2056.62,-53.25 2056.62,-53.25 2056.62,-47.25 2062.62,-41.25 2068.62,-41.25 2068.62,-41.25 2211.38,-41.25 2211.38,-41.25 2217.38,-41.25 2223.38,-47.25 2223.38,-53.25 2223.38,-53.25 2223.38,-89 2223.38,-89 2223.38,-95 2217.38,-101 2211.38,-101"/>
<text text-anchor="middle" x="2140" y="-83.7" font-family="Times,serif" font-size="14.00">absorption_spectrum</text>
<text text-anchor="middle" x="2140" y="-66.45" font-family="Times,serif" font-size="14.00">~</text>
<text text-anchor="middle" x="2140" y="-49.2" font-family="Times,serif" font-size="14.00">ConstantData</text>
</g>
<!-- absorption&#45;&gt;absorption_spectrum -->
<g id="edge5" class="edge">
<title>absorption&#45;&gt;absorption_spectrum</title>
<path fill="none" stroke="black" d="M2123,-136.52C2123,-136.52 2123,-112.74 2123,-112.74"/>
<polygon fill="black" stroke="black" points="2126.5,-112.74 2123,-102.74 2119.5,-112.74 2126.5,-112.74"/>
</g>
<!-- absorption_noise -->
<g id="node6" class="node">
<title>absorption_noise</title>
<path fill="lightgrey" stroke="black" d="M2181.38,-334.87C2181.38,-334.87 2068.62,-334.87 2068.62,-334.87 2062.62,-334.87 2056.62,-328.87 2056.62,-322.87 2056.62,-322.87 2056.62,-287.12 2056.62,-287.12 2056.62,-281.12 2062.62,-275.12 2068.62,-275.12 2068.62,-275.12 2181.38,-275.12 2181.38,-275.12 2187.38,-275.12 2193.38,-281.12 2193.38,-287.12 2193.38,-287.12 2193.38,-322.87 2193.38,-322.87 2193.38,-328.87 2187.38,-334.87 2181.38,-334.87"/>
<text text-anchor="middle" x="2125" y="-317.57" font-family="Times,serif" font-size="14.00">absorption_noise</text>
<text text-anchor="middle" x="2125" y="-300.32" font-family="Times,serif" font-size="14.00">~</text>
<text text-anchor="middle" x="2125" y="-283.07" font-family="Times,serif" font-size="14.00">ConstantData</text>
</g>
<!-- absorption_noise&#45;&gt;absorption -->
<g id="edge6" class="edge">
<title>absorption_noise&#45;&gt;absorption</title>
<path fill="none" stroke="black" d="M2144.8,-274.88C2144.8,-274.88 2144.8,-231.1 2144.8,-231.1"/>
<polygon fill="black" stroke="black" points="2148.3,-231.1 2144.8,-221.1 2141.3,-231.1 2148.3,-231.1"/>
</g>
<!-- absorption_velocity -->
<g id="node8" class="node">
<title>absorption_velocity</title>
<path fill="lightgrey" stroke="black" d="M2211.38,-575.87C2211.38,-575.87 2080.62,-575.87 2080.62,-575.87 2074.62,-575.87 2068.62,-569.87 2068.62,-563.87 2068.62,-563.87 2068.62,-528.12 2068.62,-528.12 2068.62,-522.12 2074.62,-516.12 2080.62,-516.12 2080.62,-516.12 2211.38,-516.12 2211.38,-516.12 2217.38,-516.12 2223.38,-522.12 2223.38,-528.12 2223.38,-528.12 2223.38,-563.87 2223.38,-563.87 2223.38,-569.87 2217.38,-575.87 2211.38,-575.87"/>
<text text-anchor="middle" x="2146" y="-558.57" font-family="Times,serif" font-size="14.00">absorption_velocity</text>
<text text-anchor="middle" x="2146" y="-541.32" font-family="Times,serif" font-size="14.00">~</text>
<text text-anchor="middle" x="2146" y="-524.07" font-family="Times,serif" font-size="14.00">ConstantData</text>
</g>
<!-- absorption_velocity&#45;&gt;absorption -->
<g id="edge7" class="edge">
<title>absorption_velocity&#45;&gt;absorption</title>
<path fill="none" stroke="black" d="M2203.38,-515.9C2203.38,-430.54 2203.38,-193 2203.38,-193 2203.38,-193 2196.65,-193 2196.65,-193"/>
<polygon fill="black" stroke="black" points="2196.65,-189.5 2186.65,-193 2196.65,-196.5 2196.65,-189.5"/>
</g>
<!-- absorption_velocity&#45;&gt;absorption -->
<g id="edge8" class="edge">
<title>absorption_velocity&#45;&gt;absorption</title>
<path fill="none" stroke="black" d="M2213.38,-515.78C2213.38,-425.67 2213.38,-165 2213.38,-165 2213.38,-165 2196.29,-165 2196.29,-165"/>
<polygon fill="black" stroke="black" points="2196.29,-161.5 2186.29,-165 2196.29,-168.5 2196.29,-161.5"/>
</g>
<!-- emission_coeffs -->
<g id="node9" class="node">
<title>emission_coeffs</title>
<ellipse fill="none" stroke="black" cx="362" cy="-305" rx="89.8" ry="42.25"/>
<text text-anchor="middle" x="362" y="-317.57" font-family="Times,serif" font-size="14.00">emission_coeffs</text>
<text text-anchor="middle" x="362" y="-300.32" font-family="Times,serif" font-size="14.00">~</text>
<text text-anchor="middle" x="362" y="-283.07" font-family="Times,serif" font-size="14.00">Normal</text>
</g>
<!-- emission_coeffs&#45;&gt;emission -->
<g id="edge9" class="edge">
<title>emission_coeffs&#45;&gt;emission</title>
<path fill="none" stroke="black" d="M271.75,-304C222.97,-304 172.62,-304 172.62,-304 172.62,-304 172.62,-209.44 172.62,-209.44"/>
<polygon fill="black" stroke="black" points="176.13,-209.44 172.63,-199.44 169.13,-209.44 176.13,-209.44"/>
</g>
<!-- absorption_coeffs -->
<g id="node10" class="node">
<title>absorption_coeffs</title>
<ellipse fill="none" stroke="black" cx="569" cy="-305" rx="99.35" ry="42.25"/>
<text text-anchor="middle" x="569" y="-317.57" font-family="Times,serif" font-size="14.00">absorption_coeffs</text>
<text text-anchor="middle" x="569" y="-300.32" font-family="Times,serif" font-size="14.00">~</text>
<text text-anchor="middle" x="569" y="-283.07" font-family="Times,serif" font-size="14.00">Normal</text>
</g>
<!-- absorption_coeffs&#45;&gt;absorption -->
<g id="edge10" class="edge">
<title>absorption_coeffs&#45;&gt;absorption</title>
<path fill="none" stroke="black" d="M618.67,-268C881.84,-268 2101.2,-268 2101.2,-268 2101.2,-268 2101.2,-230.98 2101.2,-230.98"/>
<polygon fill="black" stroke="black" points="2104.7,-230.98 2101.2,-220.98 2097.7,-230.98 2104.7,-230.98"/>
</g>
<!-- log10_n_alpha_offset -->
<g id="node11" class="node">
<title>log10_n_alpha_offset</title>
<ellipse fill="none" stroke="black" cx="1729" cy="-1027.99" rx="115.79" ry="42.25"/>
<text text-anchor="middle" x="1729" y="-1040.57" font-family="Times,serif" font-size="14.00">log10_n_alpha_offset</text>
<text text-anchor="middle" x="1729" y="-1023.32" font-family="Times,serif" font-size="14.00">~</text>
<text text-anchor="middle" x="1729" y="-1006.07" font-family="Times,serif" font-size="14.00">Normal</text>
</g>
<!-- log10_n_alpha -->
<g id="node25" class="node">
<title>log10_n_alpha</title>
<polygon fill="none" stroke="black" points="1660.62,-696.37 1543.38,-696.37 1543.38,-636.62 1660.62,-636.62 1660.62,-696.37"/>
<text text-anchor="middle" x="1602" y="-679.07" font-family="Times,serif" font-size="14.00">log10_n_alpha</text>
<text text-anchor="middle" x="1602" y="-661.82" font-family="Times,serif" font-size="14.00">~</text>
<text text-anchor="middle" x="1602" y="-644.57" font-family="Times,serif" font-size="14.00">Deterministic</text>
</g>
<!-- log10_n_alpha_offset&#45;&gt;log10_n_alpha -->
<g id="edge25" class="edge">
<title>log10_n_alpha_offset&#45;&gt;log10_n_alpha</title>
<path fill="none" stroke="black" d="M1625.06,-1009.07C1625.06,-1009.07 1625.06,-708.13 1625.06,-708.13"/>
<polygon fill="black" stroke="black" points="1628.56,-708.13 1625.06,-698.13 1621.56,-708.13 1628.56,-708.13"/>
</g>
<!-- log10_kinetic_temp_offset -->
<g id="node12" class="node">
<title>log10_kinetic_temp_offset</title>
<ellipse fill="none" stroke="black" cx="1433" cy="-1027.99" rx="141.77" ry="42.25"/>
<text text-anchor="middle" x="1433" y="-1040.57" font-family="Times,serif" font-size="14.00">log10_kinetic_temp_offset</text>
<text text-anchor="middle" x="1433" y="-1023.32" font-family="Times,serif" font-size="14.00">~</text>
<text text-anchor="middle" x="1433" y="-1006.07" font-family="Times,serif" font-size="14.00">Normal</text>
</g>
<!-- log10_kinetic_temp -->
<g id="node23" class="node">
<title>log10_kinetic_temp</title>
<polygon fill="none" stroke="black" points="1525,-696.37 1371,-696.37 1371,-636.62 1525,-636.62 1525,-696.37"/>
<text text-anchor="middle" x="1448" y="-679.07" font-family="Times,serif" font-size="14.00">log10_kinetic_temp</text>
<text text-anchor="middle" x="1448" y="-661.82" font-family="Times,serif" font-size="14.00">~</text>
<text text-anchor="middle" x="1448" y="-644.57" font-family="Times,serif" font-size="14.00">Deterministic</text>
</g>
<!-- log10_kinetic_temp_offset&#45;&gt;log10_kinetic_temp -->
<g id="edge26" class="edge">
<title>log10_kinetic_temp_offset&#45;&gt;log10_kinetic_temp</title>
<path fill="none" stroke="black" d="M1409.5,-986.17C1409.5,-986.17 1409.5,-707.98 1409.5,-707.98"/>
<polygon fill="black" stroke="black" points="1413,-707.98 1409.5,-697.98 1406,-707.98 1413,-707.98"/>
</g>
<!-- log10_depth -->
<g id="node13" class="node">
<title>log10_depth</title>
<polygon fill="none" stroke="black" points="996.75,-696.37 883.25,-696.37 883.25,-636.62 996.75,-636.62 996.75,-696.37"/>
<text text-anchor="middle" x="940" y="-679.07" font-family="Times,serif" font-size="14.00">log10_depth</text>
<text text-anchor="middle" x="940" y="-661.82" font-family="Times,serif" font-size="14.00">~</text>
<text text-anchor="middle" x="940" y="-644.57" font-family="Times,serif" font-size="14.00">Deterministic</text>
</g>
<!-- log10_nonthermal_fwhm -->
<g id="node15" class="node">
<title>log10_nonthermal_fwhm</title>
<polygon fill="none" stroke="black" points="1226.75,-575.87 1035.25,-575.87 1035.25,-516.12 1226.75,-516.12 1226.75,-575.87"/>
<text text-anchor="middle" x="1131" y="-558.57" font-family="Times,serif" font-size="14.00">log10_nonthermal_fwhm</text>
<text text-anchor="middle" x="1131" y="-541.32" font-family="Times,serif" font-size="14.00">~</text>
<text text-anchor="middle" x="1131" y="-524.07" font-family="Times,serif" font-size="14.00">Deterministic</text>
</g>
<!-- log10_depth&#45;&gt;log10_nonthermal_fwhm -->
<g id="edge27" class="edge">
<title>log10_depth&#45;&gt;log10_nonthermal_fwhm</title>
<path fill="none" stroke="black" d="M940,-636.15C940,-600.16 940,-545 940,-545 940,-545 1023.43,-545 1023.43,-545"/>
<polygon fill="black" stroke="black" points="1023.43,-548.5 1033.43,-545 1023.43,-541.5 1023.43,-548.5"/>
</g>
<!-- log10_spin_temp -->
<g id="node14" class="node">
<title>log10_spin_temp</title>
<polygon fill="none" stroke="black" points="1564,-575.87 1428,-575.87 1428,-516.12 1564,-516.12 1564,-575.87"/>
<text text-anchor="middle" x="1496" y="-558.57" font-family="Times,serif" font-size="14.00">log10_spin_temp</text>
<text text-anchor="middle" x="1496" y="-541.32" font-family="Times,serif" font-size="14.00">~</text>
<text text-anchor="middle" x="1496" y="-524.07" font-family="Times,serif" font-size="14.00">Deterministic</text>
</g>
<!-- log10_spin_temp&#45;&gt;emission -->
<g id="edge28" class="edge">
<title>log10_spin_temp&#45;&gt;emission</title>
<path fill="none" stroke="black" d="M1518.67,-515.64C1518.67,-430.73 1518.67,-197 1518.67,-197 1518.67,-197 184.46,-197 184.46,-197"/>
<polygon fill="black" stroke="black" points="184.46,-193.5 174.46,-197 184.46,-200.5 184.46,-193.5"/>
</g>
<!-- log10_peak_tau -->
<g id="node18" class="node">
<title>log10_peak_tau</title>
<polygon fill="none" stroke="black" points="1383.12,-334.87 1256.88,-334.87 1256.88,-275.12 1383.12,-275.12 1383.12,-334.87"/>
<text text-anchor="middle" x="1320" y="-317.57" font-family="Times,serif" font-size="14.00">log10_peak_tau</text>
<text text-anchor="middle" x="1320" y="-300.32" font-family="Times,serif" font-size="14.00">~</text>
<text text-anchor="middle" x="1320" y="-283.07" font-family="Times,serif" font-size="14.00">Deterministic</text>
</g>
<!-- log10_spin_temp&#45;&gt;log10_peak_tau -->
<g id="edge29" class="edge">
<title>log10_spin_temp&#45;&gt;log10_peak_tau</title>
<path fill="none" stroke="black" d="M1473.33,-515.84C1473.33,-450.97 1473.33,-304 1473.33,-304 1473.33,-304 1394.77,-304 1394.77,-304"/>
<polygon fill="black" stroke="black" points="1394.77,-300.5 1384.77,-304 1394.77,-307.5 1394.77,-300.5"/>
</g>
<!-- log10_fwhm -->
<g id="node22" class="node">
<title>log10_fwhm</title>
<polygon fill="none" stroke="black" points="1285.75,-455.37 1172.25,-455.37 1172.25,-395.62 1285.75,-395.62 1285.75,-455.37"/>
<text text-anchor="middle" x="1229" y="-438.07" font-family="Times,serif" font-size="14.00">log10_fwhm</text>
<text text-anchor="middle" x="1229" y="-420.82" font-family="Times,serif" font-size="14.00">~</text>
<text text-anchor="middle" x="1229" y="-403.57" font-family="Times,serif" font-size="14.00">Deterministic</text>
</g>
<!-- log10_nonthermal_fwhm&#45;&gt;log10_fwhm -->
<g id="edge30" class="edge">
<title>log10_nonthermal_fwhm&#45;&gt;log10_fwhm</title>
<path fill="none" stroke="black" d="M1199.5,-515.9C1199.5,-515.9 1199.5,-467.14 1199.5,-467.14"/>
<polygon fill="black" stroke="black" points="1203,-467.14 1199.5,-457.14 1196,-467.14 1203,-467.14"/>
</g>
<!-- larson_power -->
<g id="node16" class="node">
<title>larson_power</title>
<polygon fill="none" stroke="black" points="1352.75,-696.37 1239.25,-696.37 1239.25,-636.62 1352.75,-636.62 1352.75,-696.37"/>
<text text-anchor="middle" x="1296" y="-679.07" font-family="Times,serif" font-size="14.00">larson_power</text>
<text text-anchor="middle" x="1296" y="-661.82" font-family="Times,serif" font-size="14.00">~</text>
<text text-anchor="middle" x="1296" y="-644.57" font-family="Times,serif" font-size="14.00">Deterministic</text>
</g>
<!-- larson_power&#45;&gt;log10_nonthermal_fwhm -->
<g id="edge31" class="edge">
<title>larson_power&#45;&gt;log10_nonthermal_fwhm</title>
<path fill="none" stroke="black" d="M1238.81,-666C1235.21,-666 1233,-666 1233,-666 1233,-666 1233,-545 1233,-545 1233,-545 1232.42,-545 1232.42,-545"/>
<polygon fill="black" stroke="black" points="1238.74,-541.5 1228.74,-545 1238.74,-548.5 1238.74,-541.5"/>
</g>
<!-- log10_NHI -->
<g id="node17" class="node">
<title>log10_NHI</title>
<polygon fill="none" stroke="black" points="1072.75,-816.87 959.25,-816.87 959.25,-757.12 1072.75,-757.12 1072.75,-816.87"/>
<text text-anchor="middle" x="1016" y="-799.57" font-family="Times,serif" font-size="14.00">log10_NHI</text>
<text text-anchor="middle" x="1016" y="-782.32" font-family="Times,serif" font-size="14.00">~</text>
<text text-anchor="middle" x="1016" y="-765.07" font-family="Times,serif" font-size="14.00">Deterministic</text>
</g>
<!-- log10_NHI&#45;&gt;log10_depth -->
<g id="edge32" class="edge">
<title>log10_NHI&#45;&gt;log10_depth</title>
<path fill="none" stroke="black" d="M978,-756.9C978,-756.9 978,-708.14 978,-708.14"/>
<polygon fill="black" stroke="black" points="981.5,-708.14 978,-698.14 974.5,-708.14 981.5,-708.14"/>
</g>
<!-- log10_NHI&#45;&gt;log10_peak_tau -->
<g id="edge33" class="edge">
<title>log10_NHI&#45;&gt;log10_peak_tau</title>
<path fill="none" stroke="black" d="M1016,-756.78C1016,-651.04 1016,-304 1016,-304 1016,-304 1245.13,-304 1245.13,-304"/>
<polygon fill="black" stroke="black" points="1245.13,-307.5 1255.13,-304 1245.13,-300.5 1245.13,-307.5"/>
</g>
<!-- log10_peak_tau&#45;&gt;emission -->
<g id="edge34" class="edge">
<title>log10_peak_tau&#45;&gt;emission</title>
<path fill="none" stroke="black" d="M1298.96,-274.62C1298.96,-246.5 1298.96,-209 1298.96,-209 1298.96,-209 173.69,-209 173.69,-209"/>
<polygon fill="black" stroke="black" points="173.69,-205.5 163.69,-209 173.69,-212.5 173.69,-205.5"/>
</g>
<!-- log10_peak_tau&#45;&gt;absorption -->
<g id="edge35" class="edge">
<title>log10_peak_tau&#45;&gt;absorption</title>
<path fill="none" stroke="black" d="M1341.04,-274.81C1341.04,-232.59 1341.04,-161 1341.04,-161 1341.04,-161 2052.07,-161 2052.07,-161"/>
<polygon fill="black" stroke="black" points="2052.07,-164.5 2062.07,-161 2052.07,-157.5 2052.07,-164.5"/>
</g>
<!-- log10_thermal_fwhm -->
<g id="node19" class="node">
<title>log10_thermal_fwhm</title>
<polygon fill="none" stroke="black" points="1409.62,-575.87 1244.38,-575.87 1244.38,-516.12 1409.62,-516.12 1409.62,-575.87"/>
<text text-anchor="middle" x="1327" y="-558.57" font-family="Times,serif" font-size="14.00">log10_thermal_fwhm</text>
<text text-anchor="middle" x="1327" y="-541.32" font-family="Times,serif" font-size="14.00">~</text>
<text text-anchor="middle" x="1327" y="-524.07" font-family="Times,serif" font-size="14.00">Deterministic</text>
</g>
<!-- log10_thermal_fwhm&#45;&gt;log10_fwhm -->
<g id="edge36" class="edge">
<title>log10_thermal_fwhm&#45;&gt;log10_fwhm</title>
<path fill="none" stroke="black" d="M1265.06,-515.9C1265.06,-515.9 1265.06,-467.14 1265.06,-467.14"/>
<polygon fill="black" stroke="black" points="1268.56,-467.14 1265.06,-457.14 1261.56,-467.14 1268.56,-467.14"/>
</g>
<!-- larson_power_offset -->
<g id="node20" class="node">
<title>larson_power_offset</title>
<ellipse fill="none" stroke="black" cx="1162" cy="-1027.99" rx="111.55" ry="42.25"/>
<text text-anchor="middle" x="1162" y="-1040.57" font-family="Times,serif" font-size="14.00">larson_power_offset</text>
<text text-anchor="middle" x="1162" y="-1023.32" font-family="Times,serif" font-size="14.00">~</text>
<text text-anchor="middle" x="1162" y="-1006.07" font-family="Times,serif" font-size="14.00">Normal</text>
</g>
<!-- larson_power_offset&#45;&gt;larson_power -->
<g id="edge37" class="edge">
<title>larson_power_offset&#45;&gt;larson_power</title>
<path fill="none" stroke="black" d="M1256.4,-1005.11C1256.4,-1005.11 1256.4,-708.22 1256.4,-708.22"/>
<polygon fill="black" stroke="black" points="1259.9,-708.22 1256.4,-698.22 1252.9,-708.22 1259.9,-708.22"/>
</g>
<!-- log10_density_offset -->
<g id="node21" class="node">
<title>log10_density_offset</title>
<ellipse fill="none" stroke="black" cx="806" cy="-1148.49" rx="114.2" ry="42.25"/>
<text text-anchor="middle" x="806" y="-1161.07" font-family="Times,serif" font-size="14.00">log10_density_offset</text>
<text text-anchor="middle" x="806" y="-1143.82" font-family="Times,serif" font-size="14.00">~</text>
<text text-anchor="middle" x="806" y="-1126.57" font-family="Times,serif" font-size="14.00">Normal</text>
</g>
<!-- log10_density -->
<g id="node28" class="node">
<title>log10_density</title>
<polygon fill="none" stroke="black" points="807.5,-816.87 692.5,-816.87 692.5,-757.12 807.5,-757.12 807.5,-816.87"/>
<text text-anchor="middle" x="750" y="-799.57" font-family="Times,serif" font-size="14.00">log10_density</text>
<text text-anchor="middle" x="750" y="-782.32" font-family="Times,serif" font-size="14.00">~</text>
<text text-anchor="middle" x="750" y="-765.07" font-family="Times,serif" font-size="14.00">Deterministic</text>
</g>
<!-- log10_density_offset&#45;&gt;log10_density -->
<g id="edge38" class="edge">
<title>log10_density_offset&#45;&gt;log10_density</title>
<path fill="none" stroke="black" d="M705.28,-1128.28C705.28,-1128.28 705.28,-828.84 705.28,-828.84"/>
<polygon fill="black" stroke="black" points="708.78,-828.84 705.28,-818.84 701.78,-828.84 708.78,-828.84"/>
</g>
<!-- log10_fwhm&#45;&gt;emission -->
<g id="edge39" class="edge">
<title>log10_fwhm&#45;&gt;emission</title>
<path fill="none" stroke="black" d="M1171.94,-425C951.48,-425 167.62,-425 167.62,-425 167.62,-425 167.62,-215.68 167.62,-215.68"/>
<polygon fill="black" stroke="black" points="171.13,-215.68 167.63,-205.68 164.13,-215.68 171.13,-215.68"/>
</g>
<!-- log10_fwhm&#45;&gt;absorption -->
<g id="edge40" class="edge">
<title>log10_fwhm&#45;&gt;absorption</title>
<path fill="none" stroke="black" d="M1214.56,-395.38C1214.56,-323.72 1214.56,-149 1214.56,-149 1214.56,-149 2065.19,-149 2065.19,-149"/>
<polygon fill="black" stroke="black" points="2065.19,-152.5 2075.19,-149 2065.19,-145.5 2065.19,-152.5"/>
</g>
<!-- log10_fwhm&#45;&gt;log10_peak_tau -->
<g id="edge41" class="edge">
<title>log10_fwhm&#45;&gt;log10_peak_tau</title>
<path fill="none" stroke="black" d="M1271.31,-395.4C1271.31,-395.4 1271.31,-346.64 1271.31,-346.64"/>
<polygon fill="black" stroke="black" points="1274.81,-346.64 1271.31,-336.64 1267.81,-346.64 1274.81,-346.64"/>
</g>
<!-- log10_kinetic_temp&#45;&gt;log10_spin_temp -->
<g id="edge42" class="edge">
<title>log10_kinetic_temp&#45;&gt;log10_spin_temp</title>
<path fill="none" stroke="black" d="M1492.67,-636.4C1492.67,-636.4 1492.67,-587.64 1492.67,-587.64"/>
<polygon fill="black" stroke="black" points="1496.17,-587.64 1492.67,-577.64 1489.17,-587.64 1496.17,-587.64"/>
</g>
<!-- log10_kinetic_temp&#45;&gt;log10_thermal_fwhm -->
<g id="edge43" class="edge">
<title>log10_kinetic_temp&#45;&gt;log10_thermal_fwhm</title>
<path fill="none" stroke="black" d="M1390.31,-636.4C1390.31,-636.4 1390.31,-587.64 1390.31,-587.64"/>
<polygon fill="black" stroke="black" points="1393.81,-587.64 1390.31,-577.64 1386.81,-587.64 1393.81,-587.64"/>
</g>
<!-- velocity -->
<g id="node24" class="node">
<title>velocity</title>
<polygon fill="none" stroke="black" points="1844.75,-334.87 1731.25,-334.87 1731.25,-275.12 1844.75,-275.12 1844.75,-334.87"/>
<text text-anchor="middle" x="1788" y="-317.57" font-family="Times,serif" font-size="14.00">velocity</text>
<text text-anchor="middle" x="1788" y="-300.32" font-family="Times,serif" font-size="14.00">~</text>
<text text-anchor="middle" x="1788" y="-283.07" font-family="Times,serif" font-size="14.00">Deterministic</text>
</g>
<!-- velocity&#45;&gt;emission -->
<g id="edge44" class="edge">
<title>velocity&#45;&gt;emission</title>
<path fill="none" stroke="black" d="M1769.08,-274.72C1769.08,-239.17 1769.08,-185 1769.08,-185 1769.08,-185 189.26,-185 189.26,-185"/>
<polygon fill="black" stroke="black" points="189.26,-181.5 179.26,-185 189.26,-188.5 189.26,-181.5"/>
</g>
<!-- velocity&#45;&gt;absorption -->
<g id="edge45" class="edge">
<title>velocity&#45;&gt;absorption</title>
<path fill="none" stroke="black" d="M1806.92,-274.72C1806.92,-235.75 1806.92,-173 1806.92,-173 1806.92,-173 2046.38,-173 2046.38,-173"/>
<polygon fill="black" stroke="black" points="2046.38,-176.5 2056.38,-173 2046.38,-169.5 2046.38,-176.5"/>
</g>
<!-- log10_n_alpha&#45;&gt;log10_spin_temp -->
<g id="edge46" class="edge">
<title>log10_n_alpha&#45;&gt;log10_spin_temp</title>
<path fill="none" stroke="black" d="M1553.69,-636.4C1553.69,-636.4 1553.69,-587.64 1553.69,-587.64"/>
<polygon fill="black" stroke="black" points="1557.19,-587.64 1553.69,-577.64 1550.19,-587.64 1557.19,-587.64"/>
</g>
<!-- log10_larson_linewidth_offset -->
<g id="node26" class="node">
<title>log10_larson_linewidth_offset</title>
<ellipse fill="none" stroke="black" cx="872" cy="-1027.99" rx="160.34" ry="42.25"/>
<text text-anchor="middle" x="872" y="-1040.57" font-family="Times,serif" font-size="14.00">log10_larson_linewidth_offset</text>
<text text-anchor="middle" x="872" y="-1023.32" font-family="Times,serif" font-size="14.00">~</text>
<text text-anchor="middle" x="872" y="-1006.07" font-family="Times,serif" font-size="14.00">Normal</text>
</g>
<!-- log10_larson_linewidth -->
<g id="node30" class="node">
<title>log10_larson_linewidth</title>
<polygon fill="none" stroke="black" points="1221.12,-696.37 1040.88,-696.37 1040.88,-636.62 1221.12,-636.62 1221.12,-696.37"/>
<text text-anchor="middle" x="1131" y="-679.07" font-family="Times,serif" font-size="14.00">log10_larson_linewidth</text>
<text text-anchor="middle" x="1131" y="-661.82" font-family="Times,serif" font-size="14.00">~</text>
<text text-anchor="middle" x="1131" y="-644.57" font-family="Times,serif" font-size="14.00">Deterministic</text>
</g>
<!-- log10_larson_linewidth_offset&#45;&gt;log10_larson_linewidth -->
<g id="edge47" class="edge">
<title>log10_larson_linewidth_offset&#45;&gt;log10_larson_linewidth</title>
<path fill="none" stroke="black" d="M933.92,-988.67C933.92,-904.61 933.92,-715 933.92,-715 933.92,-715 1056.81,-715 1056.81,-715 1056.81,-715 1056.81,-708.18 1056.81,-708.18"/>
<polygon fill="black" stroke="black" points="1060.31,-708.18 1056.81,-698.18 1053.31,-708.18 1060.31,-708.18"/>
</g>
<!-- velocity_offset -->
<g id="node27" class="node">
<title>velocity_offset</title>
<ellipse fill="none" stroke="black" cx="1762" cy="-666.5" rx="83.44" ry="42.25"/>
<text text-anchor="middle" x="1762" y="-679.07" font-family="Times,serif" font-size="14.00">velocity_offset</text>
<text text-anchor="middle" x="1762" y="-661.82" font-family="Times,serif" font-size="14.00">~</text>
<text text-anchor="middle" x="1762" y="-644.57" font-family="Times,serif" font-size="14.00">Normal</text>
</g>
<!-- velocity_offset&#45;&gt;velocity -->
<g id="edge48" class="edge">
<title>velocity_offset&#45;&gt;velocity</title>
<path fill="none" stroke="black" d="M1759.62,-623.97C1759.62,-623.97 1759.62,-346.83 1759.62,-346.83"/>
<polygon fill="black" stroke="black" points="1763.13,-346.83 1759.63,-336.83 1756.13,-346.83 1763.13,-346.83"/>
</g>
<!-- log10_density&#45;&gt;log10_depth -->
<g id="edge49" class="edge">
<title>log10_density&#45;&gt;log10_depth</title>
<path fill="none" stroke="black" d="M807.7,-786C853.04,-786 908.58,-786 908.58,-786 908.58,-786 908.58,-708.17 908.58,-708.17"/>
<polygon fill="black" stroke="black" points="912.08,-708.17 908.58,-698.17 905.08,-708.17 912.08,-708.17"/>
</g>
<!-- log10_density&#45;&gt;log10_spin_temp -->
<g id="edge50" class="edge">
<title>log10_density&#45;&gt;log10_spin_temp</title>
<path fill="none" stroke="black" d="M750,-756.73C750,-711.1 750,-630 750,-630 750,-630 1460.33,-630 1460.33,-630 1460.33,-630 1460.33,-587.84 1460.33,-587.84"/>
<polygon fill="black" stroke="black" points="1463.83,-587.84 1460.33,-577.84 1456.83,-587.84 1463.83,-587.84"/>
</g>
<!-- log10_NHI_offset -->
<g id="node29" class="node">
<title>log10_NHI_offset</title>
<ellipse fill="none" stroke="black" cx="1594" cy="-1148.49" rx="97.76" ry="42.25"/>
<text text-anchor="middle" x="1594" y="-1161.07" font-family="Times,serif" font-size="14.00">log10_NHI_offset</text>
<text text-anchor="middle" x="1594" y="-1143.82" font-family="Times,serif" font-size="14.00">~</text>
<text text-anchor="middle" x="1594" y="-1126.57" font-family="Times,serif" font-size="14.00">Normal</text>
</g>
<!-- log10_NHI_offset&#45;&gt;log10_NHI -->
<g id="edge51" class="edge">
<title>log10_NHI_offset&#45;&gt;log10_NHI</title>
<path fill="none" stroke="black" d="M1495.84,-1148C1337.05,-1148 1041.4,-1148 1041.4,-1148 1041.4,-1148 1041.4,-828.67 1041.4,-828.67"/>
<polygon fill="black" stroke="black" points="1044.9,-828.67 1041.4,-818.67 1037.9,-828.67 1044.9,-828.67"/>
</g>
<!-- log10_larson_linewidth&#45;&gt;log10_nonthermal_fwhm -->
<g id="edge52" class="edge">
<title>log10_larson_linewidth&#45;&gt;log10_nonthermal_fwhm</title>
<path fill="none" stroke="black" d="M1131,-636.4C1131,-636.4 1131,-587.64 1131,-587.64"/>
<polygon fill="black" stroke="black" points="1134.5,-587.64 1131,-577.64 1127.5,-587.64 1134.5,-587.64"/>
</g>
<!-- velocity_mu -->
<g id="node31" class="node">
<title>velocity_mu</title>
<ellipse fill="none" stroke="black" cx="1932" cy="-425.5" rx="71.24" ry="42.25"/>
<text text-anchor="middle" x="1932" y="-438.07" font-family="Times,serif" font-size="14.00">velocity_mu</text>
<text text-anchor="middle" x="1932" y="-420.82" font-family="Times,serif" font-size="14.00">~</text>
<text text-anchor="middle" x="1932" y="-403.57" font-family="Times,serif" font-size="14.00">Normal</text>
</g>
<!-- velocity_mu&#45;&gt;velocity -->
<g id="edge11" class="edge">
<title>velocity_mu&#45;&gt;velocity</title>
<path fill="none" stroke="black" d="M1894.78,-389C1860.98,-389 1816.38,-389 1816.38,-389 1816.38,-389 1816.38,-346.84 1816.38,-346.84"/>
<polygon fill="black" stroke="black" points="1819.88,-346.84 1816.38,-336.84 1812.88,-346.84 1819.88,-346.84"/>
</g>
<!-- log10_kinetic_temp_mu -->
<g id="node32" class="node">
<title>log10_kinetic_temp_mu</title>
<ellipse fill="none" stroke="black" cx="2588" cy="-787" rx="129.58" ry="42.25"/>
<text text-anchor="middle" x="2588" y="-799.57" font-family="Times,serif" font-size="14.00">log10_kinetic_temp_mu</text>
<text text-anchor="middle" x="2588" y="-782.32" font-family="Times,serif" font-size="14.00">~</text>
<text text-anchor="middle" x="2588" y="-765.07" font-family="Times,serif" font-size="14.00">Normal</text>
</g>
<!-- log10_kinetic_temp_mu&#45;&gt;log10_kinetic_temp -->
<g id="edge12" class="edge">
<title>log10_kinetic_temp_mu&#45;&gt;log10_kinetic_temp</title>
<path fill="none" stroke="black" d="M2588,-744.38C2588,-736.14 2588,-730 2588,-730 2588,-730 1486.5,-730 1486.5,-730 1486.5,-730 1486.5,-708.27 1486.5,-708.27"/>
<polygon fill="black" stroke="black" points="1490,-708.27 1486.5,-698.27 1483,-708.27 1490,-708.27"/>
</g>
<!-- velocity_sigma -->
<g id="node33" class="node">
<title>velocity_sigma</title>
<ellipse fill="none" stroke="black" cx="1955" cy="-546" rx="85.56" ry="42.25"/>
<text text-anchor="middle" x="1955" y="-558.57" font-family="Times,serif" font-size="14.00">velocity_sigma</text>
<text text-anchor="middle" x="1955" y="-541.32" font-family="Times,serif" font-size="14.00">~</text>
<text text-anchor="middle" x="1955" y="-524.07" font-family="Times,serif" font-size="14.00">HalfNormal</text>
</g>
<!-- velocity_sigma&#45;&gt;velocity -->
<g id="edge13" class="edge">
<title>velocity_sigma&#45;&gt;velocity</title>
<path fill="none" stroke="black" d="M1911.99,-509C1862.51,-509 1788,-509 1788,-509 1788,-509 1788,-346.61 1788,-346.61"/>
<polygon fill="black" stroke="black" points="1791.5,-346.61 1788,-336.61 1784.5,-346.61 1791.5,-346.61"/>
</g>
<!-- larson_power_sigma -->
<g id="node34" class="node">
<title>larson_power_sigma</title>
<ellipse fill="none" stroke="black" cx="2327" cy="-787" rx="113.67" ry="42.25"/>
<text text-anchor="middle" x="2327" y="-799.57" font-family="Times,serif" font-size="14.00">larson_power_sigma</text>
<text text-anchor="middle" x="2327" y="-782.32" font-family="Times,serif" font-size="14.00">~</text>
<text text-anchor="middle" x="2327" y="-765.07" font-family="Times,serif" font-size="14.00">HalfNormal</text>
</g>
<!-- larson_power_sigma&#45;&gt;larson_power -->
<g id="edge14" class="edge">
<title>larson_power_sigma&#45;&gt;larson_power</title>
<path fill="none" stroke="black" d="M2218.35,-774.12C2218.35,-759.31 2218.35,-737 2218.35,-737 2218.35,-737 1332.24,-737 1332.24,-737 1332.24,-737 1332.24,-708.32 1332.24,-708.32"/>
<polygon fill="black" stroke="black" points="1335.74,-708.32 1332.24,-698.32 1328.74,-708.32 1335.74,-708.32"/>
</g>
<!-- log10_NHI_mu -->
<g id="node35" class="node">
<title>log10_NHI_mu</title>
<ellipse fill="none" stroke="black" cx="1947" cy="-907.5" rx="85.56" ry="42.25"/>
<text text-anchor="middle" x="1947" y="-920.07" font-family="Times,serif" font-size="14.00">log10_NHI_mu</text>
<text text-anchor="middle" x="1947" y="-902.82" font-family="Times,serif" font-size="14.00">~</text>
<text text-anchor="middle" x="1947" y="-885.57" font-family="Times,serif" font-size="14.00">Normal</text>
</g>
<!-- log10_NHI_mu&#45;&gt;log10_NHI -->
<g id="edge15" class="edge">
<title>log10_NHI_mu&#45;&gt;log10_NHI</title>
<path fill="none" stroke="black" d="M1865.69,-921C1646.81,-921 1061.6,-921 1061.6,-921 1061.6,-921 1061.6,-828.58 1061.6,-828.58"/>
<polygon fill="black" stroke="black" points="1065.1,-828.58 1061.6,-818.58 1058.1,-828.58 1065.1,-828.58"/>
</g>
<!-- log10_NHI_sigma -->
<g id="node36" class="node">
<title>log10_NHI_sigma</title>
<ellipse fill="none" stroke="black" cx="574" cy="-1027.99" rx="99.88" ry="42.25"/>
<text text-anchor="middle" x="574" y="-1040.57" font-family="Times,serif" font-size="14.00">log10_NHI_sigma</text>
<text text-anchor="middle" x="574" y="-1023.32" font-family="Times,serif" font-size="14.00">~</text>
<text text-anchor="middle" x="574" y="-1006.07" font-family="Times,serif" font-size="14.00">HalfNormal</text>
</g>
<!-- log10_NHI_sigma&#45;&gt;log10_NHI -->
<g id="edge16" class="edge">
<title>log10_NHI_sigma&#45;&gt;log10_NHI</title>
<path fill="none" stroke="black" d="M636.17,-994.64C636.17,-980.4 636.17,-967 636.17,-967 636.17,-967 995.79,-967 995.79,-967 995.79,-967 995.79,-828.64 995.79,-828.64"/>
<polygon fill="black" stroke="black" points="999.29,-828.64 995.79,-818.64 992.29,-828.64 999.29,-828.64"/>
</g>
<!-- log10_n_alpha_sigma -->
<g id="node37" class="node">
<title>log10_n_alpha_sigma</title>
<ellipse fill="none" stroke="black" cx="2892" cy="-787" rx="117.91" ry="42.25"/>
<text text-anchor="middle" x="2892" y="-799.57" font-family="Times,serif" font-size="14.00">log10_n_alpha_sigma</text>
<text text-anchor="middle" x="2892" y="-782.32" font-family="Times,serif" font-size="14.00">~</text>
<text text-anchor="middle" x="2892" y="-765.07" font-family="Times,serif" font-size="14.00">HalfNormal</text>
</g>
<!-- log10_n_alpha_sigma&#45;&gt;log10_n_alpha -->
<g id="edge17" class="edge">
<title>log10_n_alpha_sigma&#45;&gt;log10_n_alpha</title>
<path fill="none" stroke="black" d="M2892,-744.31C2892,-732.57 2892,-723 2892,-723 2892,-723 1648.77,-723 1648.77,-723 1648.77,-723 1648.77,-708.25 1648.77,-708.25"/>
<polygon fill="black" stroke="black" points="1652.27,-708.25 1648.77,-698.25 1645.27,-708.25 1652.27,-708.25"/>
</g>
<!-- larson_power_mu -->
<g id="node38" class="node">
<title>larson_power_mu</title>
<ellipse fill="none" stroke="black" cx="2493" cy="-907.5" rx="99.35" ry="42.25"/>
<text text-anchor="middle" x="2493" y="-920.07" font-family="Times,serif" font-size="14.00">larson_power_mu</text>
<text text-anchor="middle" x="2493" y="-902.82" font-family="Times,serif" font-size="14.00">~</text>
<text text-anchor="middle" x="2493" y="-885.57" font-family="Times,serif" font-size="14.00">Normal</text>
</g>
<!-- larson_power_mu&#45;&gt;larson_power -->
<g id="edge18" class="edge">
<title>larson_power_mu&#45;&gt;larson_power</title>
<path fill="none" stroke="black" d="M2417.16,-879.76C2417.16,-865.06 2417.16,-850 2417.16,-850 2417.16,-850 1311.73,-850 1311.73,-850 1311.73,-850 1311.73,-708.31 1311.73,-708.31"/>
<polygon fill="black" stroke="black" points="1315.23,-708.31 1311.73,-698.31 1308.23,-708.31 1315.23,-708.31"/>
</g>
<!-- log10_n_alpha_mu -->
<g id="node39" class="node">
<title>log10_n_alpha_mu</title>
<ellipse fill="none" stroke="black" cx="3038" cy="-907.5" rx="103.59" ry="42.25"/>
<text text-anchor="middle" x="3038" y="-920.07" font-family="Times,serif" font-size="14.00">log10_n_alpha_mu</text>
<text text-anchor="middle" x="3038" y="-902.82" font-family="Times,serif" font-size="14.00">~</text>
<text text-anchor="middle" x="3038" y="-885.57" font-family="Times,serif" font-size="14.00">Normal</text>
</g>
<!-- log10_n_alpha_mu&#45;&gt;log10_n_alpha -->
<g id="edge19" class="edge">
<title>log10_n_alpha_mu&#45;&gt;log10_n_alpha</title>
<path fill="none" stroke="black" d="M2972.16,-874.68C2972.16,-855.88 2972.16,-836 2972.16,-836 2972.16,-836 1636.92,-836 1636.92,-836 1636.92,-836 1636.92,-708.31 1636.92,-708.31"/>
<polygon fill="black" stroke="black" points="1640.42,-708.31 1636.92,-698.31 1633.42,-708.31 1640.42,-708.31"/>
</g>
<!-- log10_density_mu -->
<g id="node40" class="node">
<title>log10_density_mu</title>
<ellipse fill="none" stroke="black" cx="502" cy="-907.5" rx="102" ry="42.25"/>
<text text-anchor="middle" x="502" y="-920.07" font-family="Times,serif" font-size="14.00">log10_density_mu</text>
<text text-anchor="middle" x="502" y="-902.82" font-family="Times,serif" font-size="14.00">~</text>
<text text-anchor="middle" x="502" y="-885.57" font-family="Times,serif" font-size="14.00">Normal</text>
</g>
<!-- log10_density_mu&#45;&gt;log10_density -->
<g id="edge20" class="edge">
<title>log10_density_mu&#45;&gt;log10_density</title>
<path fill="none" stroke="black" d="M598.43,-893C648.31,-893 698.89,-893 698.89,-893 698.89,-893 698.89,-828.6 698.89,-828.6"/>
<polygon fill="black" stroke="black" points="702.39,-828.6 698.89,-818.6 695.39,-828.6 702.39,-828.6"/>
</g>
<!-- log10_density_sigma -->
<g id="node41" class="node">
<title>log10_density_sigma</title>
<ellipse fill="none" stroke="black" cx="340" cy="-1027.99" rx="116.32" ry="42.25"/>
<text text-anchor="middle" x="340" y="-1040.57" font-family="Times,serif" font-size="14.00">log10_density_sigma</text>
<text text-anchor="middle" x="340" y="-1023.32" font-family="Times,serif" font-size="14.00">~</text>
<text text-anchor="middle" x="340" y="-1006.07" font-family="Times,serif" font-size="14.00">HalfNormal</text>
</g>
<!-- log10_density_sigma&#45;&gt;log10_density -->
<g id="edge21" class="edge">
<title>log10_density_sigma&#45;&gt;log10_density</title>
<path fill="none" stroke="black" d="M336.1,-985.29C336.1,-915.82 336.1,-786 336.1,-786 336.1,-786 680.5,-786 680.5,-786"/>
<polygon fill="black" stroke="black" points="680.5,-789.5 690.5,-786 680.5,-782.5 680.5,-789.5"/>
</g>
<!-- log10_larson_linewidth_mu -->
<g id="node42" class="node">
<title>log10_larson_linewidth_mu</title>
<ellipse fill="none" stroke="black" cx="2009" cy="-787" rx="148.14" ry="42.25"/>
<text text-anchor="middle" x="2009" y="-799.57" font-family="Times,serif" font-size="14.00">log10_larson_linewidth_mu</text>
<text text-anchor="middle" x="2009" y="-782.32" font-family="Times,serif" font-size="14.00">~</text>
<text text-anchor="middle" x="2009" y="-765.07" font-family="Times,serif" font-size="14.00">Normal</text>
</g>
<!-- log10_larson_linewidth_mu&#45;&gt;log10_larson_linewidth -->
<g id="edge22" class="edge">
<title>log10_larson_linewidth_mu&#45;&gt;log10_larson_linewidth</title>
<path fill="none" stroke="black" d="M1934.69,-750C1729.77,-750 1171.67,-750 1171.67,-750 1171.67,-750 1171.67,-708.16 1171.67,-708.16"/>
<polygon fill="black" stroke="black" points="1175.17,-708.16 1171.67,-698.16 1168.17,-708.16 1175.17,-708.16"/>
</g>
<!-- log10_larson_linewidth_sigma -->
<g id="node43" class="node">
<title>log10_larson_linewidth_sigma</title>
<ellipse fill="none" stroke="black" cx="2213" cy="-907.5" rx="162.46" ry="42.25"/>
<text text-anchor="middle" x="2213" y="-920.07" font-family="Times,serif" font-size="14.00">log10_larson_linewidth_sigma</text>
<text text-anchor="middle" x="2213" y="-902.82" font-family="Times,serif" font-size="14.00">~</text>
<text text-anchor="middle" x="2213" y="-885.57" font-family="Times,serif" font-size="14.00">HalfNormal</text>
</g>
<!-- log10_larson_linewidth_sigma&#45;&gt;log10_larson_linewidth -->
<g id="edge23" class="edge">
<title>log10_larson_linewidth_sigma&#45;&gt;log10_larson_linewidth</title>
<path fill="none" stroke="black" d="M2103.84,-875.87C2103.84,-866.17 2103.84,-858 2103.84,-858 2103.84,-858 1122.21,-858 1122.21,-858 1122.21,-858 1122.21,-708.35 1122.21,-708.35"/>
<polygon fill="black" stroke="black" points="1125.71,-708.35 1122.21,-698.35 1118.71,-708.35 1125.71,-708.35"/>
</g>
<!-- log10_kinetic_temp_sigma -->
<g id="node44" class="node">
<title>log10_kinetic_temp_sigma</title>
<ellipse fill="none" stroke="black" cx="2754" cy="-907.5" rx="143.9" ry="42.25"/>
<text text-anchor="middle" x="2754" y="-920.07" font-family="Times,serif" font-size="14.00">log10_kinetic_temp_sigma</text>
<text text-anchor="middle" x="2754" y="-902.82" font-family="Times,serif" font-size="14.00">~</text>
<text text-anchor="middle" x="2754" y="-885.57" font-family="Times,serif" font-size="14.00">HalfNormal</text>
</g>
<!-- log10_kinetic_temp_sigma&#45;&gt;log10_kinetic_temp -->
<g id="edge24" class="edge">
<title>log10_kinetic_temp_sigma&#45;&gt;log10_kinetic_temp</title>
<path fill="none" stroke="black" d="M2663.84,-874.11C2663.84,-858.38 2663.84,-843 2663.84,-843 2663.84,-843 1448,-843 1448,-843 1448,-843 1448,-708.35 1448,-708.35"/>
<polygon fill="black" stroke="black" points="1451.5,-708.35 1448,-698.35 1444.5,-708.35 1451.5,-708.35"/>
</g>
</g>
</svg>
