<?xml version="1.0" encoding="UTF-8" standalone="no"?>
<!DOCTYPE svg PUBLIC "-//W3C//DTD SVG 1.1//EN"
 "http://www.w3.org/Graphics/SVG/1.1/DTD/svg11.dtd">
<!-- Generated by graphviz version 9.0.0 (20231125.0833)
 -->
<!-- Pages: 1 -->
<svg width="1627pt" height="804pt"
 viewBox="0.00 0.00 1627.00 803.75" xmlns="http://www.w3.org/2000/svg" xmlns:xlink="http://www.w3.org/1999/xlink">
<g id="graph0" class="graph" transform="scale(1 1) rotate(0) translate(4 799.75)">
<polygon fill="white" stroke="none" points="-4,4 -4,-799.75 1623,-799.75 1623,4 -4,4"/>
<g id="clust1" class="cluster">
<title>clusterv_em (201)</title>
<path fill="none" stroke="black" d="M20,-8C20,-8 174,-8 174,-8 180,-8 186,-14 186,-20 186,-20 186,-534.75 186,-534.75 186,-540.75 180,-546.75 174,-546.75 174,-546.75 20,-546.75 20,-546.75 14,-546.75 8,-540.75 8,-534.75 8,-534.75 8,-20 8,-20 8,-14 14,-8 20,-8"/>
<text text-anchor="middle" x="138.62" y="-15.95" font-family="Times,serif" font-size="14.00">v_em (201)</text>
</g>
<g id="clust2" class="cluster">
<title>clusterv_abs (201)</title>
<path fill="none" stroke="black" d="M1441,-8C1441,-8 1599,-8 1599,-8 1605,-8 1611,-14 1611,-20 1611,-20 1611,-534.75 1611,-534.75 1611,-540.75 1605,-546.75 1599,-546.75 1599,-546.75 1441,-546.75 1441,-546.75 1435,-546.75 1429,-540.75 1429,-534.75 1429,-534.75 1429,-20 1429,-20 1429,-14 1435,-8 1441,-8"/>
<text text-anchor="middle" x="1562.12" y="-15.95" font-family="Times,serif" font-size="14.00">v_abs (201)</text>
</g>
<g id="clust3" class="cluster">
<title>clustercoeff (3)</title>
<path fill="none" stroke="black" d="M999,-229.5C999,-229.5 1387,-229.5 1387,-229.5 1393,-229.5 1399,-235.5 1399,-241.5 1399,-241.5 1399,-343.25 1399,-343.25 1399,-349.25 1393,-355.25 1387,-355.25 1387,-355.25 999,-355.25 999,-355.25 993,-355.25 987,-349.25 987,-343.25 987,-343.25 987,-241.5 987,-241.5 987,-235.5 993,-229.5 999,-229.5"/>
<text text-anchor="middle" x="1362.12" y="-237.45" font-family="Times,serif" font-size="14.00">coeff (3)</text>
</g>
<g id="clust4" class="cluster">
<title>clustercloud (4)</title>
<path fill="none" stroke="black" d="M206,-229.5C206,-229.5 967,-229.5 967,-229.5 973,-229.5 979,-235.5 979,-241.5 979,-241.5 979,-775.75 979,-775.75 979,-781.75 973,-787.75 967,-787.75 967,-787.75 206,-787.75 206,-787.75 200,-787.75 194,-781.75 194,-775.75 194,-775.75 194,-241.5 194,-241.5 194,-235.5 200,-229.5 206,-229.5"/>
<text text-anchor="middle" x="939.88" y="-237.45" font-family="Times,serif" font-size="14.00">cloud (4)</text>
</g>
<!-- emission_spectrum -->
<g id="node1" class="node">
<title>emission_spectrum</title>
<path fill="lightgrey" stroke="black" d="M165.62,-101C165.62,-101 36.38,-101 36.38,-101 30.38,-101 24.38,-95 24.38,-89 24.38,-89 24.38,-53.25 24.38,-53.25 24.38,-47.25 30.38,-41.25 36.38,-41.25 36.38,-41.25 165.62,-41.25 165.62,-41.25 171.62,-41.25 177.62,-47.25 177.62,-53.25 177.62,-53.25 177.62,-89 177.62,-89 177.62,-95 171.62,-101 165.62,-101"/>
<text text-anchor="middle" x="101" y="-83.7" font-family="Times,serif" font-size="14.00">emission_spectrum</text>
<text text-anchor="middle" x="101" y="-66.45" font-family="Times,serif" font-size="14.00">~</text>
<text text-anchor="middle" x="101" y="-49.2" font-family="Times,serif" font-size="14.00">ConstantData</text>
</g>
<!-- emission_velocity -->
<g id="node2" class="node">
<title>emission_velocity</title>
<path fill="lightgrey" stroke="black" d="M165.62,-443C165.62,-443 48.38,-443 48.38,-443 42.38,-443 36.38,-437 36.38,-431 36.38,-431 36.38,-395.25 36.38,-395.25 36.38,-389.25 42.38,-383.25 48.38,-383.25 48.38,-383.25 165.62,-383.25 165.62,-383.25 171.62,-383.25 177.62,-389.25 177.62,-395.25 177.62,-395.25 177.62,-431 177.62,-431 177.62,-437 171.62,-443 165.62,-443"/>
<text text-anchor="middle" x="107" y="-425.7" font-family="Times,serif" font-size="14.00">emission_velocity</text>
<text text-anchor="middle" x="107" y="-408.45" font-family="Times,serif" font-size="14.00">~</text>
<text text-anchor="middle" x="107" y="-391.2" font-family="Times,serif" font-size="14.00">ConstantData</text>
</g>
<!-- emission -->
<g id="node3" class="node">
<title>emission</title>
<ellipse fill="lightgrey" stroke="black" cx="122" cy="-179.25" rx="55.86" ry="42.25"/>
<text text-anchor="middle" x="122" y="-191.82" font-family="Times,serif" font-size="14.00">emission</text>
<text text-anchor="middle" x="122" y="-174.57" font-family="Times,serif" font-size="14.00">~</text>
<text text-anchor="middle" x="122" y="-157.32" font-family="Times,serif" font-size="14.00">Normal</text>
</g>
<!-- emission_velocity&#45;&gt;emission -->
<g id="edge1" class="edge">
<title>emission_velocity&#45;&gt;emission</title>
<path fill="none" stroke="black" d="M88.44,-383.03C88.44,-383.03 88.44,-224.91 88.44,-224.91"/>
<polygon fill="black" stroke="black" points="91.94,-224.91 88.44,-214.91 84.94,-224.91 91.94,-224.91"/>
</g>
<!-- emission_velocity&#45;&gt;emission -->
<g id="edge2" class="edge">
<title>emission_velocity&#45;&gt;emission</title>
<path fill="none" stroke="black" d="M110.73,-383.03C110.73,-383.03 110.73,-232.59 110.73,-232.59"/>
<polygon fill="black" stroke="black" points="114.23,-232.59 110.73,-222.59 107.23,-232.59 114.23,-232.59"/>
</g>
<!-- emission&#45;&gt;emission_spectrum -->
<g id="edge3" class="edge">
<title>emission&#45;&gt;emission_spectrum</title>
<path fill="none" stroke="black" d="M121.88,-136.52C121.88,-136.52 121.88,-112.74 121.88,-112.74"/>
<polygon fill="black" stroke="black" points="125.38,-112.74 121.88,-102.74 118.38,-112.74 125.38,-112.74"/>
</g>
<!-- emission_noise -->
<g id="node4" class="node">
<title>emission_noise</title>
<path fill="lightgrey" stroke="black" d="M127.62,-538.75C127.62,-538.75 28.38,-538.75 28.38,-538.75 22.38,-538.75 16.38,-532.75 16.38,-526.75 16.38,-526.75 16.38,-491 16.38,-491 16.38,-485 22.38,-479 28.38,-479 28.38,-479 127.62,-479 127.62,-479 133.62,-479 139.62,-485 139.62,-491 139.62,-491 139.62,-526.75 139.62,-526.75 139.62,-532.75 133.62,-538.75 127.62,-538.75"/>
<text text-anchor="middle" x="78" y="-521.45" font-family="Times,serif" font-size="14.00">emission_noise</text>
<text text-anchor="middle" x="78" y="-504.2" font-family="Times,serif" font-size="14.00">~</text>
<text text-anchor="middle" x="78" y="-486.95" font-family="Times,serif" font-size="14.00">ConstantData</text>
</g>
<!-- emission_noise&#45;&gt;emission -->
<g id="edge4" class="edge">
<title>emission_noise&#45;&gt;emission</title>
<path fill="none" stroke="black" d="M30.38,-478.72C30.38,-397.29 30.38,-179 30.38,-179 30.38,-179 54.29,-179 54.29,-179"/>
<polygon fill="black" stroke="black" points="54.29,-182.5 64.29,-179 54.29,-175.5 54.29,-182.5"/>
</g>
<!-- absorption -->
<g id="node5" class="node">
<title>absorption</title>
<ellipse fill="lightgrey" stroke="black" cx="1502" cy="-179.25" rx="65.41" ry="42.25"/>
<text text-anchor="middle" x="1502" y="-191.82" font-family="Times,serif" font-size="14.00">absorption</text>
<text text-anchor="middle" x="1502" y="-174.57" font-family="Times,serif" font-size="14.00">~</text>
<text text-anchor="middle" x="1502" y="-157.32" font-family="Times,serif" font-size="14.00">Normal</text>
</g>
<!-- absorption_spectrum -->
<g id="node7" class="node">
<title>absorption_spectrum</title>
<path fill="lightgrey" stroke="black" d="M1591.38,-101C1591.38,-101 1448.62,-101 1448.62,-101 1442.62,-101 1436.62,-95 1436.62,-89 1436.62,-89 1436.62,-53.25 1436.62,-53.25 1436.62,-47.25 1442.62,-41.25 1448.62,-41.25 1448.62,-41.25 1591.38,-41.25 1591.38,-41.25 1597.38,-41.25 1603.38,-47.25 1603.38,-53.25 1603.38,-53.25 1603.38,-89 1603.38,-89 1603.38,-95 1597.38,-101 1591.38,-101"/>
<text text-anchor="middle" x="1520" y="-83.7" font-family="Times,serif" font-size="14.00">absorption_spectrum</text>
<text text-anchor="middle" x="1520" y="-66.45" font-family="Times,serif" font-size="14.00">~</text>
<text text-anchor="middle" x="1520" y="-49.2" font-family="Times,serif" font-size="14.00">ConstantData</text>
</g>
<!-- absorption&#45;&gt;absorption_spectrum -->
<g id="edge5" class="edge">
<title>absorption&#45;&gt;absorption_spectrum</title>
<path fill="none" stroke="black" d="M1502.02,-136.52C1502.02,-136.52 1502.02,-112.74 1502.02,-112.74"/>
<polygon fill="black" stroke="black" points="1505.52,-112.74 1502.02,-102.74 1498.52,-112.74 1505.52,-112.74"/>
</g>
<!-- absorption_noise -->
<g id="node6" class="node">
<title>absorption_noise</title>
<path fill="lightgrey" stroke="black" d="M1591.38,-334.87C1591.38,-334.87 1478.62,-334.87 1478.62,-334.87 1472.62,-334.87 1466.62,-328.87 1466.62,-322.87 1466.62,-322.87 1466.62,-287.12 1466.62,-287.12 1466.62,-281.12 1472.62,-275.12 1478.62,-275.12 1478.62,-275.12 1591.38,-275.12 1591.38,-275.12 1597.38,-275.12 1603.38,-281.12 1603.38,-287.12 1603.38,-287.12 1603.38,-322.87 1603.38,-322.87 1603.38,-328.87 1597.38,-334.87 1591.38,-334.87"/>
<text text-anchor="middle" x="1535" y="-317.57" font-family="Times,serif" font-size="14.00">absorption_noise</text>
<text text-anchor="middle" x="1535" y="-300.32" font-family="Times,serif" font-size="14.00">~</text>
<text text-anchor="middle" x="1535" y="-283.07" font-family="Times,serif" font-size="14.00">ConstantData</text>
</g>
<!-- absorption_noise&#45;&gt;absorption -->
<g id="edge6" class="edge">
<title>absorption_noise&#45;&gt;absorption</title>
<path fill="none" stroke="black" d="M1517.02,-274.88C1517.02,-274.88 1517.02,-232.05 1517.02,-232.05"/>
<polygon fill="black" stroke="black" points="1520.52,-232.05 1517.02,-222.05 1513.52,-232.05 1520.52,-232.05"/>
</g>
<!-- absorption_velocity -->
<g id="node8" class="node">
<title>absorption_velocity</title>
<path fill="lightgrey" stroke="black" d="M1579.38,-538.75C1579.38,-538.75 1448.62,-538.75 1448.62,-538.75 1442.62,-538.75 1436.62,-532.75 1436.62,-526.75 1436.62,-526.75 1436.62,-491 1436.62,-491 1436.62,-485 1442.62,-479 1448.62,-479 1448.62,-479 1579.38,-479 1579.38,-479 1585.38,-479 1591.38,-485 1591.38,-491 1591.38,-491 1591.38,-526.75 1591.38,-526.75 1591.38,-532.75 1585.38,-538.75 1579.38,-538.75"/>
<text text-anchor="middle" x="1514" y="-521.45" font-family="Times,serif" font-size="14.00">absorption_velocity</text>
<text text-anchor="middle" x="1514" y="-504.2" font-family="Times,serif" font-size="14.00">~</text>
<text text-anchor="middle" x="1514" y="-486.95" font-family="Times,serif" font-size="14.00">ConstantData</text>
</g>
<!-- absorption_velocity&#45;&gt;absorption -->
<g id="edge7" class="edge">
<title>absorption_velocity&#45;&gt;absorption</title>
<path fill="none" stroke="black" d="M1454.62,-478.75C1454.62,-478.75 1454.62,-220.23 1454.62,-220.23"/>
<polygon fill="black" stroke="black" points="1458.13,-220.23 1454.63,-210.23 1451.13,-220.23 1458.13,-220.23"/>
</g>
<!-- absorption_velocity&#45;&gt;absorption -->
<g id="edge8" class="edge">
<title>absorption_velocity&#45;&gt;absorption</title>
<path fill="none" stroke="black" d="M1460.62,-478.75C1460.62,-478.75 1460.62,-223.61 1460.62,-223.61"/>
<polygon fill="black" stroke="black" points="1464.13,-223.61 1460.63,-213.61 1457.13,-223.61 1464.13,-223.61"/>
</g>
<!-- emission_coeffs -->
<g id="node9" class="node">
<title>emission_coeffs</title>
<ellipse fill="none" stroke="black" cx="1085" cy="-305" rx="89.8" ry="42.25"/>
<text text-anchor="middle" x="1085" y="-317.57" font-family="Times,serif" font-size="14.00">emission_coeffs</text>
<text text-anchor="middle" x="1085" y="-300.32" font-family="Times,serif" font-size="14.00">~</text>
<text text-anchor="middle" x="1085" y="-283.07" font-family="Times,serif" font-size="14.00">Normal</text>
</g>
<!-- emission_coeffs&#45;&gt;emission -->
<g id="edge9" class="edge">
<title>emission_coeffs&#45;&gt;emission</title>
<path fill="none" stroke="black" d="M1085,-262.51C1085,-216.93 1085,-151 1085,-151 1085,-151 175.51,-151 175.51,-151"/>
<polygon fill="black" stroke="black" points="175.51,-147.5 165.51,-151 175.51,-154.5 175.51,-147.5"/>
</g>
<!-- absorption_coeffs -->
<g id="node10" class="node">
<title>absorption_coeffs</title>
<ellipse fill="none" stroke="black" cx="1292" cy="-305" rx="99.35" ry="42.25"/>
<text text-anchor="middle" x="1292" y="-317.57" font-family="Times,serif" font-size="14.00">absorption_coeffs</text>
<text text-anchor="middle" x="1292" y="-300.32" font-family="Times,serif" font-size="14.00">~</text>
<text text-anchor="middle" x="1292" y="-283.07" font-family="Times,serif" font-size="14.00">Normal</text>
</g>
<!-- absorption_coeffs&#45;&gt;absorption -->
<g id="edge10" class="edge">
<title>absorption_coeffs&#45;&gt;absorption</title>
<path fill="none" stroke="black" d="M1341.74,-268C1385.61,-268 1442.62,-268 1442.62,-268 1442.62,-268 1442.62,-209.15 1442.62,-209.15"/>
<polygon fill="black" stroke="black" points="1446.13,-209.15 1442.63,-199.15 1439.13,-209.15 1446.13,-209.15"/>
</g>
<!-- log10_fwhm -->
<g id="node11" class="node">
<title>log10_fwhm</title>
<polygon fill="none" stroke="black" points="691.75,-443 578.25,-443 578.25,-383.25 691.75,-383.25 691.75,-443"/>
<text text-anchor="middle" x="635" y="-425.7" font-family="Times,serif" font-size="14.00">log10_fwhm</text>
<text text-anchor="middle" x="635" y="-408.45" font-family="Times,serif" font-size="14.00">~</text>
<text text-anchor="middle" x="635" y="-391.2" font-family="Times,serif" font-size="14.00">Deterministic</text>
</g>
<!-- log10_fwhm&#45;&gt;emission -->
<g id="edge11" class="edge">
<title>log10_fwhm&#45;&gt;emission</title>
<path fill="none" stroke="black" d="M577.79,-413C504.55,-413 387,-413 387,-413 387,-413 387,-165 387,-165 387,-165 186.5,-165 186.5,-165"/>
<polygon fill="black" stroke="black" points="186.5,-161.5 176.5,-165 186.5,-168.5 186.5,-161.5"/>
</g>
<!-- log10_fwhm&#45;&gt;absorption -->
<g id="edge12" class="edge">
<title>log10_fwhm&#45;&gt;absorption</title>
<path fill="none" stroke="black" d="M692.21,-413C877.41,-413 1448.62,-413 1448.62,-413 1448.62,-413 1448.62,-215.78 1448.62,-215.78"/>
<polygon fill="black" stroke="black" points="1452.13,-215.78 1448.63,-205.78 1445.13,-215.78 1452.13,-215.78"/>
</g>
<!-- log10_peak_tau -->
<g id="node20" class="node">
<title>log10_peak_tau</title>
<polygon fill="none" stroke="black" points="698.12,-334.87 571.88,-334.87 571.88,-275.12 698.12,-275.12 698.12,-334.87"/>
<text text-anchor="middle" x="635" y="-317.57" font-family="Times,serif" font-size="14.00">log10_peak_tau</text>
<text text-anchor="middle" x="635" y="-300.32" font-family="Times,serif" font-size="14.00">~</text>
<text text-anchor="middle" x="635" y="-283.07" font-family="Times,serif" font-size="14.00">Deterministic</text>
</g>
<!-- log10_fwhm&#45;&gt;log10_peak_tau -->
<g id="edge13" class="edge">
<title>log10_fwhm&#45;&gt;log10_peak_tau</title>
<path fill="none" stroke="black" d="M616.08,-383C616.08,-383 616.08,-346.84 616.08,-346.84"/>
<polygon fill="black" stroke="black" points="619.58,-346.84 616.08,-336.84 612.58,-346.84 619.58,-346.84"/>
</g>
<!-- log10_depth -->
<g id="node12" class="node">
<title>log10_depth</title>
<polygon fill="none" stroke="black" points="755.75,-646.87 642.25,-646.87 642.25,-587.12 755.75,-587.12 755.75,-646.87"/>
<text text-anchor="middle" x="699" y="-629.57" font-family="Times,serif" font-size="14.00">log10_depth</text>
<text text-anchor="middle" x="699" y="-612.32" font-family="Times,serif" font-size="14.00">~</text>
<text text-anchor="middle" x="699" y="-595.07" font-family="Times,serif" font-size="14.00">Deterministic</text>
</g>
<!-- log10_nonthermal_fwhm -->
<g id="node14" class="node">
<title>log10_nonthermal_fwhm</title>
<polygon fill="none" stroke="black" points="899.75,-538.75 708.25,-538.75 708.25,-479 899.75,-479 899.75,-538.75"/>
<text text-anchor="middle" x="804" y="-521.45" font-family="Times,serif" font-size="14.00">log10_nonthermal_fwhm</text>
<text text-anchor="middle" x="804" y="-504.2" font-family="Times,serif" font-size="14.00">~</text>
<text text-anchor="middle" x="804" y="-486.95" font-family="Times,serif" font-size="14.00">Deterministic</text>
</g>
<!-- log10_depth&#45;&gt;log10_nonthermal_fwhm -->
<g id="edge14" class="edge">
<title>log10_depth&#45;&gt;log10_nonthermal_fwhm</title>
<path fill="none" stroke="black" d="M732,-586.88C732,-586.88 732,-550.72 732,-550.72"/>
<polygon fill="black" stroke="black" points="735.5,-550.72 732,-540.72 728.5,-550.72 735.5,-550.72"/>
</g>
<!-- log10_spin_temp -->
<g id="node13" class="node">
<title>log10_spin_temp</title>
<polygon fill="none" stroke="black" points="455,-538.75 319,-538.75 319,-479 455,-479 455,-538.75"/>
<text text-anchor="middle" x="387" y="-521.45" font-family="Times,serif" font-size="14.00">log10_spin_temp</text>
<text text-anchor="middle" x="387" y="-504.2" font-family="Times,serif" font-size="14.00">~</text>
<text text-anchor="middle" x="387" y="-486.95" font-family="Times,serif" font-size="14.00">Deterministic</text>
</g>
<!-- log10_spin_temp&#45;&gt;emission -->
<g id="edge15" class="edge">
<title>log10_spin_temp&#45;&gt;emission</title>
<path fill="none" stroke="black" d="M353,-478.72C353,-397.29 353,-179 353,-179 353,-179 189.73,-179 189.73,-179"/>
<polygon fill="black" stroke="black" points="189.73,-175.5 179.73,-179 189.73,-182.5 189.73,-175.5"/>
</g>
<!-- log10_spin_temp&#45;&gt;log10_peak_tau -->
<g id="edge16" class="edge">
<title>log10_spin_temp&#45;&gt;log10_peak_tau</title>
<path fill="none" stroke="black" d="M421,-478.85C421,-424.19 421,-314 421,-314 421,-314 560.15,-314 560.15,-314"/>
<polygon fill="black" stroke="black" points="560.15,-317.5 570.15,-314 560.15,-310.5 560.15,-317.5"/>
</g>
<!-- log10_nonthermal_fwhm&#45;&gt;log10_fwhm -->
<g id="edge17" class="edge">
<title>log10_nonthermal_fwhm&#45;&gt;log10_fwhm</title>
<path fill="none" stroke="black" d="M707.82,-508C691.22,-508 679.19,-508 679.19,-508 679.19,-508 679.19,-454.92 679.19,-454.92"/>
<polygon fill="black" stroke="black" points="682.69,-454.92 679.19,-444.92 675.69,-454.92 682.69,-454.92"/>
</g>
<!-- larson_power -->
<g id="node15" class="node">
<title>larson_power</title>
<ellipse fill="none" stroke="black" cx="852" cy="-617" rx="78.67" ry="42.25"/>
<text text-anchor="middle" x="852" y="-629.57" font-family="Times,serif" font-size="14.00">larson_power</text>
<text text-anchor="middle" x="852" y="-612.32" font-family="Times,serif" font-size="14.00">~</text>
<text text-anchor="middle" x="852" y="-595.07" font-family="Times,serif" font-size="14.00">Normal</text>
</g>
<!-- larson_power&#45;&gt;log10_nonthermal_fwhm -->
<g id="edge18" class="edge">
<title>larson_power&#45;&gt;log10_nonthermal_fwhm</title>
<path fill="none" stroke="black" d="M836.54,-575.19C836.54,-575.19 836.54,-550.68 836.54,-550.68"/>
<polygon fill="black" stroke="black" points="840.04,-550.68 836.54,-540.68 833.04,-550.68 840.04,-550.68"/>
</g>
<!-- log10_NHI -->
<g id="node16" class="node">
<title>log10_NHI</title>
<ellipse fill="none" stroke="black" cx="906" cy="-737.5" rx="64.88" ry="42.25"/>
<text text-anchor="middle" x="906" y="-750.07" font-family="Times,serif" font-size="14.00">log10_NHI</text>
<text text-anchor="middle" x="906" y="-732.82" font-family="Times,serif" font-size="14.00">~</text>
<text text-anchor="middle" x="906" y="-715.57" font-family="Times,serif" font-size="14.00">Normal</text>
</g>
<!-- log10_NHI&#45;&gt;log10_depth -->
<g id="edge19" class="edge">
<title>log10_NHI&#45;&gt;log10_depth</title>
<path fill="none" stroke="black" d="M885.89,-696.9C885.89,-683.06 885.89,-671 885.89,-671 885.89,-671 717.92,-671 717.92,-671 717.92,-671 717.92,-658.67 717.92,-658.67"/>
<polygon fill="black" stroke="black" points="721.42,-658.67 717.92,-648.67 714.42,-658.67 721.42,-658.67"/>
</g>
<!-- log10_NHI&#45;&gt;log10_peak_tau -->
<g id="edge20" class="edge">
<title>log10_NHI&#45;&gt;log10_peak_tau</title>
<path fill="none" stroke="black" d="M950.77,-706.38C950.77,-616.85 950.77,-365 950.77,-365 950.77,-365 653.92,-365 653.92,-365 653.92,-365 653.92,-346.86 653.92,-346.86"/>
<polygon fill="black" stroke="black" points="657.42,-346.86 653.92,-336.86 650.42,-346.86 657.42,-346.86"/>
</g>
<!-- log10_kinetic_temp -->
<g id="node17" class="node">
<title>log10_kinetic_temp</title>
<ellipse fill="none" stroke="black" cx="515" cy="-617" rx="108.89" ry="42.25"/>
<text text-anchor="middle" x="515" y="-629.57" font-family="Times,serif" font-size="14.00">log10_kinetic_temp</text>
<text text-anchor="middle" x="515" y="-612.32" font-family="Times,serif" font-size="14.00">~</text>
<text text-anchor="middle" x="515" y="-595.07" font-family="Times,serif" font-size="14.00">Normal</text>
</g>
<!-- log10_kinetic_temp&#45;&gt;log10_spin_temp -->
<g id="edge21" class="edge">
<title>log10_kinetic_temp&#45;&gt;log10_spin_temp</title>
<path fill="none" stroke="black" d="M430.55,-589.99C430.55,-589.99 430.55,-550.47 430.55,-550.47"/>
<polygon fill="black" stroke="black" points="434.05,-550.47 430.55,-540.47 427.05,-550.47 434.05,-550.47"/>
</g>
<!-- log10_thermal_fwhm -->
<g id="node22" class="node">
<title>log10_thermal_fwhm</title>
<polygon fill="none" stroke="black" points="666.62,-538.75 501.38,-538.75 501.38,-479 666.62,-479 666.62,-538.75"/>
<text text-anchor="middle" x="584" y="-521.45" font-family="Times,serif" font-size="14.00">log10_thermal_fwhm</text>
<text text-anchor="middle" x="584" y="-504.2" font-family="Times,serif" font-size="14.00">~</text>
<text text-anchor="middle" x="584" y="-486.95" font-family="Times,serif" font-size="14.00">Deterministic</text>
</g>
<!-- log10_kinetic_temp&#45;&gt;log10_thermal_fwhm -->
<g id="edge22" class="edge">
<title>log10_kinetic_temp&#45;&gt;log10_thermal_fwhm</title>
<path fill="none" stroke="black" d="M562.63,-578.57C562.63,-578.57 562.63,-550.53 562.63,-550.53"/>
<polygon fill="black" stroke="black" points="566.13,-550.53 562.63,-540.53 559.13,-550.54 566.13,-550.53"/>
</g>
<!-- log10_density -->
<g id="node18" class="node">
<title>log10_density</title>
<ellipse fill="none" stroke="black" cx="428" cy="-737.5" rx="81.32" ry="42.25"/>
<text text-anchor="middle" x="428" y="-750.07" font-family="Times,serif" font-size="14.00">log10_density</text>
<text text-anchor="middle" x="428" y="-732.82" font-family="Times,serif" font-size="14.00">~</text>
<text text-anchor="middle" x="428" y="-715.57" font-family="Times,serif" font-size="14.00">Normal</text>
</g>
<!-- log10_density&#45;&gt;log10_depth -->
<g id="edge23" class="edge">
<title>log10_density&#45;&gt;log10_depth</title>
<path fill="none" stroke="black" d="M457.71,-697.89C457.71,-689.44 457.71,-683 457.71,-683 457.71,-683 680.08,-683 680.08,-683 680.08,-683 680.08,-658.81 680.08,-658.81"/>
<polygon fill="black" stroke="black" points="683.58,-658.81 680.08,-648.81 676.58,-658.81 683.58,-658.81"/>
</g>
<!-- log10_density&#45;&gt;log10_spin_temp -->
<g id="edge24" class="edge">
<title>log10_density&#45;&gt;log10_spin_temp</title>
<path fill="none" stroke="black" d="M387.01,-700.51C387.01,-700.51 387.01,-550.74 387.01,-550.74"/>
<polygon fill="black" stroke="black" points="390.51,-550.74 387.01,-540.74 383.51,-550.74 390.51,-550.74"/>
</g>
<!-- velocity -->
<g id="node19" class="node">
<title>velocity</title>
<ellipse fill="none" stroke="black" cx="869" cy="-305" rx="50.56" ry="42.25"/>
<text text-anchor="middle" x="869" y="-317.57" font-family="Times,serif" font-size="14.00">velocity</text>
<text text-anchor="middle" x="869" y="-300.32" font-family="Times,serif" font-size="14.00">~</text>
<text text-anchor="middle" x="869" y="-283.07" font-family="Times,serif" font-size="14.00">Normal</text>
</g>
<!-- velocity&#45;&gt;emission -->
<g id="edge25" class="edge">
<title>velocity&#45;&gt;emission</title>
<path fill="none" stroke="black" d="M843.6,-268C716.47,-268 155.33,-268 155.33,-268 155.33,-268 155.33,-225.08 155.33,-225.08"/>
<polygon fill="black" stroke="black" points="158.83,-225.08 155.33,-215.08 151.83,-225.08 158.83,-225.08"/>
</g>
<!-- velocity&#45;&gt;absorption -->
<g id="edge26" class="edge">
<title>velocity&#45;&gt;absorption</title>
<path fill="none" stroke="black" d="M869,-262.3C869,-235.89 869,-207 869,-207 869,-207 1440.55,-207 1440.55,-207"/>
<polygon fill="black" stroke="black" points="1440.55,-210.5 1450.55,-207 1440.55,-203.5 1440.55,-210.5"/>
</g>
<!-- log10_peak_tau&#45;&gt;emission -->
<g id="edge27" class="edge">
<title>log10_peak_tau&#45;&gt;emission</title>
<path fill="none" stroke="black" d="M571.43,-295C436.35,-295 133.03,-295 133.03,-295 133.03,-295 133.03,-232.55 133.03,-232.55"/>
<polygon fill="black" stroke="black" points="136.53,-232.55 133.03,-222.55 129.53,-232.55 136.53,-232.55"/>
</g>
<!-- log10_peak_tau&#45;&gt;absorption -->
<g id="edge28" class="edge">
<title>log10_peak_tau&#45;&gt;absorption</title>
<path fill="none" stroke="black" d="M635,-274.69C635,-241.52 635,-193 635,-193 635,-193 1428.13,-193 1428.13,-193"/>
<polygon fill="black" stroke="black" points="1428.13,-196.5 1438.13,-193 1428.13,-189.5 1428.13,-196.5"/>
</g>
<!-- log10_n_alpha -->
<g id="node21" class="node">
<title>log10_n_alpha</title>
<ellipse fill="none" stroke="black" cx="285" cy="-617" rx="82.91" ry="42.25"/>
<text text-anchor="middle" x="285" y="-629.57" font-family="Times,serif" font-size="14.00">log10_n_alpha</text>
<text text-anchor="middle" x="285" y="-612.32" font-family="Times,serif" font-size="14.00">~</text>
<text text-anchor="middle" x="285" y="-595.07" font-family="Times,serif" font-size="14.00">Normal</text>
</g>
<!-- log10_n_alpha&#45;&gt;log10_spin_temp -->
<g id="edge29" class="edge">
<title>log10_n_alpha&#45;&gt;log10_spin_temp</title>
<path fill="none" stroke="black" d="M343.45,-586.59C343.45,-586.59 343.45,-550.57 343.45,-550.57"/>
<polygon fill="black" stroke="black" points="346.95,-550.57 343.45,-540.57 339.95,-550.57 346.95,-550.57"/>
</g>
<!-- log10_thermal_fwhm&#45;&gt;log10_fwhm -->
<g id="edge30" class="edge">
<title>log10_thermal_fwhm&#45;&gt;log10_fwhm</title>
<path fill="none" stroke="black" d="M622.44,-478.58C622.44,-478.58 622.44,-454.74 622.44,-454.74"/>
<polygon fill="black" stroke="black" points="625.94,-454.74 622.44,-444.74 618.94,-454.74 625.94,-454.74"/>
</g>
<!-- log10_larson_linewidth -->
<g id="node23" class="node">
<title>log10_larson_linewidth</title>
<ellipse fill="none" stroke="black" cx="696" cy="-737.5" rx="127.46" ry="42.25"/>
<text text-anchor="middle" x="696" y="-750.07" font-family="Times,serif" font-size="14.00">log10_larson_linewidth</text>
<text text-anchor="middle" x="696" y="-732.82" font-family="Times,serif" font-size="14.00">~</text>
<text text-anchor="middle" x="696" y="-715.57" font-family="Times,serif" font-size="14.00">Normal</text>
</g>
<!-- log10_larson_linewidth&#45;&gt;log10_nonthermal_fwhm -->
<g id="edge31" class="edge">
<title>log10_larson_linewidth&#45;&gt;log10_nonthermal_fwhm</title>
<path fill="none" stroke="black" d="M764.54,-701.52C764.54,-701.52 764.54,-550.67 764.54,-550.67"/>
<polygon fill="black" stroke="black" points="768.04,-550.67 764.54,-540.67 761.04,-550.67 768.04,-550.67"/>
</g>
</g>
</svg>
