<?xml version="1.0" encoding="UTF-8" standalone="no"?>
<!DOCTYPE svg PUBLIC "-//W3C//DTD SVG 1.1//EN"
 "http://www.w3.org/Graphics/SVG/1.1/DTD/svg11.dtd">
<!-- Generated by graphviz version 9.0.0 (20231125.0833)
 -->
<!-- Pages: 1 -->
<svg width="2763pt" height="828pt"
 viewBox="0.00 0.00 2763.00 828.50" xmlns="http://www.w3.org/2000/svg" xmlns:xlink="http://www.w3.org/1999/xlink">
<g id="graph0" class="graph" transform="scale(1 1) rotate(0) translate(4 824.5)">
<polygon fill="white" stroke="none" points="-4,4 -4,-824.5 2759,-824.5 2759,4 -4,4"/>
<g id="clust1" class="cluster">
<title>clusterv_em (201)</title>
<path fill="none" stroke="black" d="M20,-8C20,-8 174,-8 174,-8 180,-8 186,-14 186,-20 186,-20 186,-559.5 186,-559.5 186,-565.5 180,-571.5 174,-571.5 174,-571.5 20,-571.5 20,-571.5 14,-571.5 8,-565.5 8,-559.5 8,-559.5 8,-20 8,-20 8,-14 14,-8 20,-8"/>
<text text-anchor="middle" x="138.62" y="-15.95" font-family="Times,serif" font-size="14.00">v_em (201)</text>
</g>
<g id="clust2" class="cluster">
<title>clusterv_abs (201)</title>
<path fill="none" stroke="black" d="M2577,-8C2577,-8 2735,-8 2735,-8 2741,-8 2747,-14 2747,-20 2747,-20 2747,-559.5 2747,-559.5 2747,-565.5 2741,-571.5 2735,-571.5 2735,-571.5 2577,-571.5 2577,-571.5 2571,-571.5 2565,-565.5 2565,-559.5 2565,-559.5 2565,-20 2565,-20 2565,-14 2571,-8 2577,-8"/>
<text text-anchor="middle" x="2698.12" y="-15.95" font-family="Times,serif" font-size="14.00">v_abs (201)</text>
</g>
<g id="clust3" class="cluster">
<title>clustercloud (4)</title>
<path fill="none" stroke="black" d="M206,-229.5C206,-229.5 2103,-229.5 2103,-229.5 2109,-229.5 2115,-235.5 2115,-241.5 2115,-241.5 2115,-800.5 2115,-800.5 2115,-806.5 2109,-812.5 2103,-812.5 2103,-812.5 206,-812.5 206,-812.5 200,-812.5 194,-806.5 194,-800.5 194,-800.5 194,-241.5 194,-241.5 194,-235.5 200,-229.5 206,-229.5"/>
<text text-anchor="middle" x="2075.88" y="-237.45" font-family="Times,serif" font-size="14.00">cloud (4)</text>
</g>
<g id="clust4" class="cluster">
<title>clustercoeff (3)</title>
<path fill="none" stroke="black" d="M2135,-229.5C2135,-229.5 2523,-229.5 2523,-229.5 2529,-229.5 2535,-235.5 2535,-241.5 2535,-241.5 2535,-343.25 2535,-343.25 2535,-349.25 2529,-355.25 2523,-355.25 2523,-355.25 2135,-355.25 2135,-355.25 2129,-355.25 2123,-349.25 2123,-343.25 2123,-343.25 2123,-241.5 2123,-241.5 2123,-235.5 2129,-229.5 2135,-229.5"/>
<text text-anchor="middle" x="2498.12" y="-237.45" font-family="Times,serif" font-size="14.00">coeff (3)</text>
</g>
<!-- emission_spectrum -->
<g id="node1" class="node">
<title>emission_spectrum</title>
<path fill="lightgrey" stroke="black" d="M165.62,-101C165.62,-101 36.38,-101 36.38,-101 30.38,-101 24.38,-95 24.38,-89 24.38,-89 24.38,-53.25 24.38,-53.25 24.38,-47.25 30.38,-41.25 36.38,-41.25 36.38,-41.25 165.62,-41.25 165.62,-41.25 171.62,-41.25 177.62,-47.25 177.62,-53.25 177.62,-53.25 177.62,-89 177.62,-89 177.62,-95 171.62,-101 165.62,-101"/>
<text text-anchor="middle" x="101" y="-83.7" font-family="Times,serif" font-size="14.00">emission_spectrum</text>
<text text-anchor="middle" x="101" y="-66.45" font-family="Times,serif" font-size="14.00">~</text>
<text text-anchor="middle" x="101" y="-49.2" font-family="Times,serif" font-size="14.00">ConstantData</text>
</g>
<!-- emission_velocity -->
<g id="node2" class="node">
<title>emission_velocity</title>
<path fill="lightgrey" stroke="black" d="M165.62,-455.37C165.62,-455.37 48.38,-455.37 48.38,-455.37 42.38,-455.37 36.38,-449.37 36.38,-443.37 36.38,-443.37 36.38,-407.62 36.38,-407.62 36.38,-401.62 42.38,-395.62 48.38,-395.62 48.38,-395.62 165.62,-395.62 165.62,-395.62 171.62,-395.62 177.62,-401.62 177.62,-407.62 177.62,-407.62 177.62,-443.37 177.62,-443.37 177.62,-449.37 171.62,-455.37 165.62,-455.37"/>
<text text-anchor="middle" x="107" y="-438.07" font-family="Times,serif" font-size="14.00">emission_velocity</text>
<text text-anchor="middle" x="107" y="-420.82" font-family="Times,serif" font-size="14.00">~</text>
<text text-anchor="middle" x="107" y="-403.57" font-family="Times,serif" font-size="14.00">ConstantData</text>
</g>
<!-- emission -->
<g id="node3" class="node">
<title>emission</title>
<ellipse fill="lightgrey" stroke="black" cx="107" cy="-179.25" rx="55.86" ry="42.25"/>
<text text-anchor="middle" x="107" y="-191.82" font-family="Times,serif" font-size="14.00">emission</text>
<text text-anchor="middle" x="107" y="-174.57" font-family="Times,serif" font-size="14.00">~</text>
<text text-anchor="middle" x="107" y="-157.32" font-family="Times,serif" font-size="14.00">Normal</text>
</g>
<!-- emission_velocity&#45;&gt;emission -->
<g id="edge1" class="edge">
<title>emission_velocity&#45;&gt;emission</title>
<path fill="none" stroke="black" d="M79.07,-395.3C79.07,-395.3 79.07,-227.63 79.07,-227.63"/>
<polygon fill="black" stroke="black" points="82.57,-227.63 79.07,-217.63 75.57,-227.63 82.57,-227.63"/>
</g>
<!-- emission_velocity&#45;&gt;emission -->
<g id="edge2" class="edge">
<title>emission_velocity&#45;&gt;emission</title>
<path fill="none" stroke="black" d="M107,-395.3C107,-395.3 107,-233.18 107,-233.18"/>
<polygon fill="black" stroke="black" points="110.5,-233.18 107,-223.18 103.5,-233.18 110.5,-233.18"/>
</g>
<!-- emission&#45;&gt;emission_spectrum -->
<g id="edge3" class="edge">
<title>emission&#45;&gt;emission_spectrum</title>
<path fill="none" stroke="black" d="M107,-136.52C107,-136.52 107,-112.74 107,-112.74"/>
<polygon fill="black" stroke="black" points="110.5,-112.74 107,-102.74 103.5,-112.74 110.5,-112.74"/>
</g>
<!-- emission_noise -->
<g id="node4" class="node">
<title>emission_noise</title>
<path fill="lightgrey" stroke="black" d="M127.62,-563.5C127.62,-563.5 28.38,-563.5 28.38,-563.5 22.38,-563.5 16.38,-557.5 16.38,-551.5 16.38,-551.5 16.38,-515.75 16.38,-515.75 16.38,-509.75 22.38,-503.75 28.38,-503.75 28.38,-503.75 127.62,-503.75 127.62,-503.75 133.62,-503.75 139.62,-509.75 139.62,-515.75 139.62,-515.75 139.62,-551.5 139.62,-551.5 139.62,-557.5 133.62,-563.5 127.62,-563.5"/>
<text text-anchor="middle" x="78" y="-546.2" font-family="Times,serif" font-size="14.00">emission_noise</text>
<text text-anchor="middle" x="78" y="-528.95" font-family="Times,serif" font-size="14.00">~</text>
<text text-anchor="middle" x="78" y="-511.7" font-family="Times,serif" font-size="14.00">ConstantData</text>
</g>
<!-- emission_noise&#45;&gt;emission -->
<g id="edge4" class="edge">
<title>emission_noise&#45;&gt;emission</title>
<path fill="none" stroke="black" d="M30.38,-503.39C30.38,-417.63 30.38,-179 30.38,-179 30.38,-179 39.4,-179 39.4,-179"/>
<polygon fill="black" stroke="black" points="39.4,-182.5 49.4,-179 39.4,-175.5 39.4,-182.5"/>
</g>
<!-- absorption -->
<g id="node5" class="node">
<title>absorption</title>
<ellipse fill="lightgrey" stroke="black" cx="2638" cy="-179.25" rx="65.41" ry="42.25"/>
<text text-anchor="middle" x="2638" y="-191.82" font-family="Times,serif" font-size="14.00">absorption</text>
<text text-anchor="middle" x="2638" y="-174.57" font-family="Times,serif" font-size="14.00">~</text>
<text text-anchor="middle" x="2638" y="-157.32" font-family="Times,serif" font-size="14.00">Normal</text>
</g>
<!-- absorption_spectrum -->
<g id="node7" class="node">
<title>absorption_spectrum</title>
<path fill="lightgrey" stroke="black" d="M2727.38,-101C2727.38,-101 2584.62,-101 2584.62,-101 2578.62,-101 2572.62,-95 2572.62,-89 2572.62,-89 2572.62,-53.25 2572.62,-53.25 2572.62,-47.25 2578.62,-41.25 2584.62,-41.25 2584.62,-41.25 2727.38,-41.25 2727.38,-41.25 2733.38,-41.25 2739.38,-47.25 2739.38,-53.25 2739.38,-53.25 2739.38,-89 2739.38,-89 2739.38,-95 2733.38,-101 2727.38,-101"/>
<text text-anchor="middle" x="2656" y="-83.7" font-family="Times,serif" font-size="14.00">absorption_spectrum</text>
<text text-anchor="middle" x="2656" y="-66.45" font-family="Times,serif" font-size="14.00">~</text>
<text text-anchor="middle" x="2656" y="-49.2" font-family="Times,serif" font-size="14.00">ConstantData</text>
</g>
<!-- absorption&#45;&gt;absorption_spectrum -->
<g id="edge5" class="edge">
<title>absorption&#45;&gt;absorption_spectrum</title>
<path fill="none" stroke="black" d="M2638.02,-136.52C2638.02,-136.52 2638.02,-112.74 2638.02,-112.74"/>
<polygon fill="black" stroke="black" points="2641.52,-112.74 2638.02,-102.74 2634.52,-112.74 2641.52,-112.74"/>
</g>
<!-- absorption_noise -->
<g id="node6" class="node">
<title>absorption_noise</title>
<path fill="lightgrey" stroke="black" d="M2727.38,-334.87C2727.38,-334.87 2614.62,-334.87 2614.62,-334.87 2608.62,-334.87 2602.62,-328.87 2602.62,-322.87 2602.62,-322.87 2602.62,-287.12 2602.62,-287.12 2602.62,-281.12 2608.62,-275.12 2614.62,-275.12 2614.62,-275.12 2727.38,-275.12 2727.38,-275.12 2733.38,-275.12 2739.38,-281.12 2739.38,-287.12 2739.38,-287.12 2739.38,-322.87 2739.38,-322.87 2739.38,-328.87 2733.38,-334.87 2727.38,-334.87"/>
<text text-anchor="middle" x="2671" y="-317.57" font-family="Times,serif" font-size="14.00">absorption_noise</text>
<text text-anchor="middle" x="2671" y="-300.32" font-family="Times,serif" font-size="14.00">~</text>
<text text-anchor="middle" x="2671" y="-283.07" font-family="Times,serif" font-size="14.00">ConstantData</text>
</g>
<!-- absorption_noise&#45;&gt;absorption -->
<g id="edge6" class="edge">
<title>absorption_noise&#45;&gt;absorption</title>
<path fill="none" stroke="black" d="M2653.02,-274.88C2653.02,-274.88 2653.02,-232.05 2653.02,-232.05"/>
<polygon fill="black" stroke="black" points="2656.52,-232.05 2653.02,-222.05 2649.52,-232.05 2656.52,-232.05"/>
</g>
<!-- absorption_velocity -->
<g id="node8" class="node">
<title>absorption_velocity</title>
<path fill="lightgrey" stroke="black" d="M2715.38,-563.5C2715.38,-563.5 2584.62,-563.5 2584.62,-563.5 2578.62,-563.5 2572.62,-557.5 2572.62,-551.5 2572.62,-551.5 2572.62,-515.75 2572.62,-515.75 2572.62,-509.75 2578.62,-503.75 2584.62,-503.75 2584.62,-503.75 2715.38,-503.75 2715.38,-503.75 2721.38,-503.75 2727.38,-509.75 2727.38,-515.75 2727.38,-515.75 2727.38,-551.5 2727.38,-551.5 2727.38,-557.5 2721.38,-563.5 2715.38,-563.5"/>
<text text-anchor="middle" x="2650" y="-546.2" font-family="Times,serif" font-size="14.00">absorption_velocity</text>
<text text-anchor="middle" x="2650" y="-528.95" font-family="Times,serif" font-size="14.00">~</text>
<text text-anchor="middle" x="2650" y="-511.7" font-family="Times,serif" font-size="14.00">ConstantData</text>
</g>
<!-- absorption_velocity&#45;&gt;absorption -->
<g id="edge7" class="edge">
<title>absorption_velocity&#45;&gt;absorption</title>
<path fill="none" stroke="black" d="M2590.62,-503.41C2590.62,-503.41 2590.62,-220.4 2590.62,-220.4"/>
<polygon fill="black" stroke="black" points="2594.13,-220.4 2590.63,-210.4 2587.13,-220.4 2594.13,-220.4"/>
</g>
<!-- absorption_velocity&#45;&gt;absorption -->
<g id="edge8" class="edge">
<title>absorption_velocity&#45;&gt;absorption</title>
<path fill="none" stroke="black" d="M2596.62,-503.41C2596.62,-503.41 2596.62,-223.97 2596.62,-223.97"/>
<polygon fill="black" stroke="black" points="2600.13,-223.97 2596.63,-213.97 2593.13,-223.97 2600.13,-223.97"/>
</g>
<!-- log10_thermal_ratio -->
<g id="node9" class="node">
<title>log10_thermal_ratio</title>
<polygon fill="none" stroke="black" points="1226.62,-563.5 1067.38,-563.5 1067.38,-503.75 1226.62,-503.75 1226.62,-563.5"/>
<text text-anchor="middle" x="1147" y="-546.2" font-family="Times,serif" font-size="14.00">log10_thermal_ratio</text>
<text text-anchor="middle" x="1147" y="-528.95" font-family="Times,serif" font-size="14.00">~</text>
<text text-anchor="middle" x="1147" y="-511.7" font-family="Times,serif" font-size="14.00">Deterministic</text>
</g>
<!-- log10_thermal_ratio_offset -->
<g id="node11" class="node">
<title>log10_thermal_ratio_offset</title>
<ellipse fill="lightgrey" stroke="black" cx="1147" cy="-425.5" rx="145.49" ry="42.25"/>
<text text-anchor="middle" x="1147" y="-438.07" font-family="Times,serif" font-size="14.00">log10_thermal_ratio_offset</text>
<text text-anchor="middle" x="1147" y="-420.82" font-family="Times,serif" font-size="14.00">~</text>
<text text-anchor="middle" x="1147" y="-403.57" font-family="Times,serif" font-size="14.00">Normal</text>
</g>
<!-- log10_thermal_ratio&#45;&gt;log10_thermal_ratio_offset -->
<g id="edge9" class="edge">
<title>log10_thermal_ratio&#45;&gt;log10_thermal_ratio_offset</title>
<path fill="none" stroke="black" d="M1147,-503.5C1147,-503.5 1147,-479.49 1147,-479.49"/>
<polygon fill="black" stroke="black" points="1150.5,-479.49 1147,-469.49 1143.5,-479.49 1150.5,-479.49"/>
</g>
<!-- log10_xO -->
<g id="node10" class="node">
<title>log10_xO</title>
<ellipse fill="none" stroke="black" cx="680" cy="-762.25" rx="57.98" ry="42.25"/>
<text text-anchor="middle" x="680" y="-774.82" font-family="Times,serif" font-size="14.00">log10_xO</text>
<text text-anchor="middle" x="680" y="-757.57" font-family="Times,serif" font-size="14.00">~</text>
<text text-anchor="middle" x="680" y="-740.32" font-family="Times,serif" font-size="14.00">Normal</text>
</g>
<!-- log10_cooling -->
<g id="node30" class="node">
<title>log10_cooling</title>
<polygon fill="none" stroke="black" points="1193.75,-671.62 1080.25,-671.62 1080.25,-611.87 1193.75,-611.87 1193.75,-671.62"/>
<text text-anchor="middle" x="1137" y="-654.32" font-family="Times,serif" font-size="14.00">log10_cooling</text>
<text text-anchor="middle" x="1137" y="-637.07" font-family="Times,serif" font-size="14.00">~</text>
<text text-anchor="middle" x="1137" y="-619.82" font-family="Times,serif" font-size="14.00">Deterministic</text>
</g>
<!-- log10_xO&#45;&gt;log10_cooling -->
<g id="edge10" class="edge">
<title>log10_xO&#45;&gt;log10_cooling</title>
<path fill="none" stroke="black" d="M680,-719.52C680,-682.55 680,-635 680,-635 680,-635 1068.53,-635 1068.53,-635"/>
<polygon fill="black" stroke="black" points="1068.53,-638.5 1078.53,-635 1068.53,-631.5 1068.53,-638.5"/>
</g>
<!-- log10_equal_thermal_ratio -->
<g id="node16" class="node">
<title>log10_equal_thermal_ratio</title>
<path fill="lightgrey" stroke="black" d="M1237.5,-334.87C1237.5,-334.87 1056.5,-334.87 1056.5,-334.87 1050.5,-334.87 1044.5,-328.87 1044.5,-322.87 1044.5,-322.87 1044.5,-287.12 1044.5,-287.12 1044.5,-281.12 1050.5,-275.12 1056.5,-275.12 1056.5,-275.12 1237.5,-275.12 1237.5,-275.12 1243.5,-275.12 1249.5,-281.12 1249.5,-287.12 1249.5,-287.12 1249.5,-322.87 1249.5,-322.87 1249.5,-328.87 1243.5,-334.87 1237.5,-334.87"/>
<text text-anchor="middle" x="1147" y="-317.57" font-family="Times,serif" font-size="14.00">log10_equal_thermal_ratio</text>
<text text-anchor="middle" x="1147" y="-300.32" font-family="Times,serif" font-size="14.00">~</text>
<text text-anchor="middle" x="1147" y="-283.07" font-family="Times,serif" font-size="14.00">ConstantData</text>
</g>
<!-- log10_thermal_ratio_offset&#45;&gt;log10_equal_thermal_ratio -->
<g id="edge11" class="edge">
<title>log10_thermal_ratio_offset&#45;&gt;log10_equal_thermal_ratio</title>
<path fill="none" stroke="black" d="M1147,-383.01C1147,-383.01 1147,-346.89 1147,-346.89"/>
<polygon fill="black" stroke="black" points="1150.5,-346.89 1147,-336.89 1143.5,-346.89 1150.5,-346.89"/>
</g>
<!-- log10_depth -->
<g id="node12" class="node">
<title>log10_depth</title>
<polygon fill="none" stroke="black" points="1496.75,-671.62 1383.25,-671.62 1383.25,-611.87 1496.75,-611.87 1496.75,-671.62"/>
<text text-anchor="middle" x="1440" y="-654.32" font-family="Times,serif" font-size="14.00">log10_depth</text>
<text text-anchor="middle" x="1440" y="-637.07" font-family="Times,serif" font-size="14.00">~</text>
<text text-anchor="middle" x="1440" y="-619.82" font-family="Times,serif" font-size="14.00">Deterministic</text>
</g>
<!-- log10_nonthermal_fwhm -->
<g id="node14" class="node">
<title>log10_nonthermal_fwhm</title>
<polygon fill="none" stroke="black" points="1572.75,-563.5 1381.25,-563.5 1381.25,-503.75 1572.75,-503.75 1572.75,-563.5"/>
<text text-anchor="middle" x="1477" y="-546.2" font-family="Times,serif" font-size="14.00">log10_nonthermal_fwhm</text>
<text text-anchor="middle" x="1477" y="-528.95" font-family="Times,serif" font-size="14.00">~</text>
<text text-anchor="middle" x="1477" y="-511.7" font-family="Times,serif" font-size="14.00">Deterministic</text>
</g>
<!-- log10_depth&#45;&gt;log10_nonthermal_fwhm -->
<g id="edge12" class="edge">
<title>log10_depth&#45;&gt;log10_nonthermal_fwhm</title>
<path fill="none" stroke="black" d="M1440,-611.63C1440,-611.63 1440,-575.47 1440,-575.47"/>
<polygon fill="black" stroke="black" points="1443.5,-575.47 1440,-565.47 1436.5,-575.47 1443.5,-575.47"/>
</g>
<!-- log10_spin_temp -->
<g id="node13" class="node">
<title>log10_spin_temp</title>
<polygon fill="none" stroke="black" points="563,-671.62 427,-671.62 427,-611.87 563,-611.87 563,-671.62"/>
<text text-anchor="middle" x="495" y="-654.32" font-family="Times,serif" font-size="14.00">log10_spin_temp</text>
<text text-anchor="middle" x="495" y="-637.07" font-family="Times,serif" font-size="14.00">~</text>
<text text-anchor="middle" x="495" y="-619.82" font-family="Times,serif" font-size="14.00">Deterministic</text>
</g>
<!-- log10_spin_temp&#45;&gt;emission -->
<g id="edge13" class="edge">
<title>log10_spin_temp&#45;&gt;emission</title>
<path fill="none" stroke="black" d="M472.33,-611.43C472.33,-509.41 472.33,-185 472.33,-185 472.33,-185 174,-185 174,-185"/>
<polygon fill="black" stroke="black" points="174,-181.5 164,-185 174,-188.5 174,-181.5"/>
</g>
<!-- log10_peak_tau -->
<g id="node18" class="node">
<title>log10_peak_tau</title>
<polygon fill="none" stroke="black" points="1520.12,-334.87 1393.88,-334.87 1393.88,-275.12 1520.12,-275.12 1520.12,-334.87"/>
<text text-anchor="middle" x="1457" y="-317.57" font-family="Times,serif" font-size="14.00">log10_peak_tau</text>
<text text-anchor="middle" x="1457" y="-300.32" font-family="Times,serif" font-size="14.00">~</text>
<text text-anchor="middle" x="1457" y="-283.07" font-family="Times,serif" font-size="14.00">Deterministic</text>
</g>
<!-- log10_spin_temp&#45;&gt;log10_peak_tau -->
<g id="edge14" class="edge">
<title>log10_spin_temp&#45;&gt;log10_peak_tau</title>
<path fill="none" stroke="black" d="M517.67,-611.6C517.67,-539.88 517.67,-365 517.67,-365 517.67,-365 1438.08,-365 1438.08,-365 1438.08,-365 1438.08,-346.86 1438.08,-346.86"/>
<polygon fill="black" stroke="black" points="1441.58,-346.86 1438.08,-336.86 1434.58,-346.86 1441.58,-346.86"/>
</g>
<!-- log10_fwhm -->
<g id="node20" class="node">
<title>log10_fwhm</title>
<polygon fill="none" stroke="black" points="1513.75,-455.37 1400.25,-455.37 1400.25,-395.62 1513.75,-395.62 1513.75,-455.37"/>
<text text-anchor="middle" x="1457" y="-438.07" font-family="Times,serif" font-size="14.00">log10_fwhm</text>
<text text-anchor="middle" x="1457" y="-420.82" font-family="Times,serif" font-size="14.00">~</text>
<text text-anchor="middle" x="1457" y="-403.57" font-family="Times,serif" font-size="14.00">Deterministic</text>
</g>
<!-- log10_nonthermal_fwhm&#45;&gt;log10_fwhm -->
<g id="edge15" class="edge">
<title>log10_nonthermal_fwhm&#45;&gt;log10_fwhm</title>
<path fill="none" stroke="black" d="M1475.92,-503.5C1475.92,-503.5 1475.92,-467.34 1475.92,-467.34"/>
<polygon fill="black" stroke="black" points="1479.42,-467.34 1475.92,-457.34 1472.42,-467.34 1479.42,-467.34"/>
</g>
<!-- larson_power -->
<g id="node15" class="node">
<title>larson_power</title>
<ellipse fill="none" stroke="black" cx="1593" cy="-641.75" rx="78.67" ry="42.25"/>
<text text-anchor="middle" x="1593" y="-654.32" font-family="Times,serif" font-size="14.00">larson_power</text>
<text text-anchor="middle" x="1593" y="-637.07" font-family="Times,serif" font-size="14.00">~</text>
<text text-anchor="middle" x="1593" y="-619.82" font-family="Times,serif" font-size="14.00">Normal</text>
</g>
<!-- larson_power&#45;&gt;log10_nonthermal_fwhm -->
<g id="edge16" class="edge">
<title>larson_power&#45;&gt;log10_nonthermal_fwhm</title>
<path fill="none" stroke="black" d="M1543.54,-608.42C1543.54,-608.42 1543.54,-575.23 1543.54,-575.23"/>
<polygon fill="black" stroke="black" points="1547.04,-575.23 1543.54,-565.23 1540.04,-575.23 1547.04,-575.23"/>
</g>
<!-- log10_NHI -->
<g id="node17" class="node">
<title>log10_NHI</title>
<ellipse fill="none" stroke="black" cx="1770" cy="-762.25" rx="64.88" ry="42.25"/>
<text text-anchor="middle" x="1770" y="-774.82" font-family="Times,serif" font-size="14.00">log10_NHI</text>
<text text-anchor="middle" x="1770" y="-757.57" font-family="Times,serif" font-size="14.00">~</text>
<text text-anchor="middle" x="1770" y="-740.32" font-family="Times,serif" font-size="14.00">Normal</text>
</g>
<!-- log10_NHI&#45;&gt;log10_depth -->
<g id="edge17" class="edge">
<title>log10_NHI&#45;&gt;log10_depth</title>
<path fill="none" stroke="black" d="M1782.98,-720.66C1782.98,-703.26 1782.98,-687 1782.98,-687 1782.98,-687 1494.34,-687 1494.34,-687 1494.34,-687 1494.34,-683.45 1494.34,-683.45"/>
<polygon fill="black" stroke="black" points="1497.84,-683.45 1494.34,-673.45 1490.84,-683.45 1497.84,-683.45"/>
</g>
<!-- log10_NHI&#45;&gt;log10_peak_tau -->
<g id="edge18" class="edge">
<title>log10_NHI&#45;&gt;log10_peak_tau</title>
<path fill="none" stroke="black" d="M1808.93,-728.18C1808.93,-621.98 1808.93,-304 1808.93,-304 1808.93,-304 1531.84,-304 1531.84,-304"/>
<polygon fill="black" stroke="black" points="1531.84,-300.5 1521.84,-304 1531.84,-307.5 1531.84,-300.5"/>
</g>
<!-- log10_heating -->
<g id="node21" class="node">
<title>log10_heating</title>
<polygon fill="none" stroke="black" points="1328.25,-671.62 1211.75,-671.62 1211.75,-611.87 1328.25,-611.87 1328.25,-671.62"/>
<text text-anchor="middle" x="1270" y="-654.32" font-family="Times,serif" font-size="14.00">log10_heating</text>
<text text-anchor="middle" x="1270" y="-637.07" font-family="Times,serif" font-size="14.00">~</text>
<text text-anchor="middle" x="1270" y="-619.82" font-family="Times,serif" font-size="14.00">Deterministic</text>
</g>
<!-- log10_NHI&#45;&gt;log10_heating -->
<g id="edge19" class="edge">
<title>log10_NHI&#45;&gt;log10_heating</title>
<path fill="none" stroke="black" d="M1757.02,-720.39C1757.02,-704.88 1757.02,-691 1757.02,-691 1757.02,-691 1308.83,-691 1308.83,-691 1308.83,-691 1308.83,-683.61 1308.83,-683.61"/>
<polygon fill="black" stroke="black" points="1312.33,-683.61 1308.83,-673.61 1305.33,-683.61 1312.33,-683.61"/>
</g>
<!-- log10_NHI&#45;&gt;log10_cooling -->
<g id="edge20" class="edge">
<title>log10_NHI&#45;&gt;log10_cooling</title>
<path fill="none" stroke="black" d="M1731.07,-727.92C1731.07,-717.62 1731.07,-709 1731.07,-709 1731.07,-709 1169.47,-709 1169.47,-709 1169.47,-709 1169.47,-683.35 1169.47,-683.35"/>
<polygon fill="black" stroke="black" points="1172.97,-683.35 1169.47,-673.35 1165.97,-683.35 1172.97,-683.35"/>
</g>
<!-- log10_peak_tau&#45;&gt;emission -->
<g id="edge21" class="edge">
<title>log10_peak_tau&#45;&gt;emission</title>
<path fill="none" stroke="black" d="M1435.96,-274.81C1435.96,-232.59 1435.96,-161 1435.96,-161 1435.96,-161 169.39,-161 169.39,-161"/>
<polygon fill="black" stroke="black" points="169.39,-157.5 159.39,-161 169.39,-164.5 169.39,-157.5"/>
</g>
<!-- log10_peak_tau&#45;&gt;absorption -->
<g id="edge22" class="edge">
<title>log10_peak_tau&#45;&gt;absorption</title>
<path fill="none" stroke="black" d="M1478.04,-274.62C1478.04,-246.5 1478.04,-209 1478.04,-209 1478.04,-209 2579.22,-209 2579.22,-209"/>
<polygon fill="black" stroke="black" points="2579.22,-212.5 2589.22,-209 2579.22,-205.5 2579.22,-212.5"/>
</g>
<!-- log10_thermal_fwhm -->
<g id="node19" class="node">
<title>log10_thermal_fwhm</title>
<polygon fill="none" stroke="black" points="959.62,-563.5 794.38,-563.5 794.38,-503.75 959.62,-503.75 959.62,-563.5"/>
<text text-anchor="middle" x="877" y="-546.2" font-family="Times,serif" font-size="14.00">log10_thermal_fwhm</text>
<text text-anchor="middle" x="877" y="-528.95" font-family="Times,serif" font-size="14.00">~</text>
<text text-anchor="middle" x="877" y="-511.7" font-family="Times,serif" font-size="14.00">Deterministic</text>
</g>
<!-- log10_thermal_fwhm&#45;&gt;log10_fwhm -->
<g id="edge23" class="edge">
<title>log10_thermal_fwhm&#45;&gt;log10_fwhm</title>
<path fill="none" stroke="black" d="M877,-503.38C877,-493.49 877,-485 877,-485 877,-485 1438.08,-485 1438.08,-485 1438.08,-485 1438.08,-467.11 1438.08,-467.11"/>
<polygon fill="black" stroke="black" points="1441.58,-467.11 1438.08,-457.11 1434.58,-467.11 1441.58,-467.11"/>
</g>
<!-- log10_fwhm&#45;&gt;emission -->
<g id="edge24" class="edge">
<title>log10_fwhm&#45;&gt;emission</title>
<path fill="none" stroke="black" d="M1399.98,-425C1392.61,-425 1387.56,-425 1387.56,-425 1387.56,-425 1387.56,-173 1387.56,-173 1387.56,-173 173.95,-173 173.95,-173"/>
<polygon fill="black" stroke="black" points="173.95,-169.5 163.95,-173 173.95,-176.5 173.95,-169.5"/>
</g>
<!-- log10_fwhm&#45;&gt;absorption -->
<g id="edge25" class="edge">
<title>log10_fwhm&#45;&gt;absorption</title>
<path fill="none" stroke="black" d="M1514.08,-425C1743.31,-425 2584.62,-425 2584.62,-425 2584.62,-425 2584.62,-215.68 2584.62,-215.68"/>
<polygon fill="black" stroke="black" points="2588.13,-215.68 2584.63,-205.68 2581.13,-215.68 2588.13,-215.68"/>
</g>
<!-- log10_fwhm&#45;&gt;log10_peak_tau -->
<g id="edge26" class="edge">
<title>log10_fwhm&#45;&gt;log10_peak_tau</title>
<path fill="none" stroke="black" d="M1475.92,-395.4C1475.92,-395.4 1475.92,-346.64 1475.92,-346.64"/>
<polygon fill="black" stroke="black" points="1479.42,-346.64 1475.92,-336.64 1472.42,-346.64 1479.42,-346.64"/>
</g>
<!-- log10_heating&#45;&gt;log10_thermal_ratio -->
<g id="edge27" class="edge">
<title>log10_heating&#45;&gt;log10_thermal_ratio</title>
<path fill="none" stroke="black" d="M1219.19,-611.63C1219.19,-611.63 1219.19,-575.47 1219.19,-575.47"/>
<polygon fill="black" stroke="black" points="1222.69,-575.47 1219.19,-565.47 1215.69,-575.47 1222.69,-575.47"/>
</g>
<!-- log10_kinetic_temp -->
<g id="node22" class="node">
<title>log10_kinetic_temp</title>
<ellipse fill="none" stroke="black" cx="495" cy="-762.25" rx="108.89" ry="42.25"/>
<text text-anchor="middle" x="495" y="-774.82" font-family="Times,serif" font-size="14.00">log10_kinetic_temp</text>
<text text-anchor="middle" x="495" y="-757.57" font-family="Times,serif" font-size="14.00">~</text>
<text text-anchor="middle" x="495" y="-740.32" font-family="Times,serif" font-size="14.00">Normal</text>
</g>
<!-- log10_kinetic_temp&#45;&gt;log10_spin_temp -->
<g id="edge28" class="edge">
<title>log10_kinetic_temp&#45;&gt;log10_spin_temp</title>
<path fill="none" stroke="black" d="M495,-719.76C495,-719.76 495,-683.63 495,-683.63"/>
<polygon fill="black" stroke="black" points="498.5,-683.63 495,-673.63 491.5,-683.63 498.5,-683.63"/>
</g>
<!-- log10_kinetic_temp&#45;&gt;log10_thermal_fwhm -->
<g id="edge29" class="edge">
<title>log10_kinetic_temp&#45;&gt;log10_thermal_fwhm</title>
<path fill="none" stroke="black" d="M583.45,-737.28C583.45,-677.86 583.45,-533 583.45,-533 583.45,-533 782.54,-533 782.54,-533"/>
<polygon fill="black" stroke="black" points="782.54,-536.5 792.54,-533 782.54,-529.5 782.54,-536.5"/>
</g>
<!-- log10_kinetic_temp&#45;&gt;log10_heating -->
<g id="edge30" class="edge">
<title>log10_kinetic_temp&#45;&gt;log10_heating</title>
<path fill="none" stroke="black" d="M573.22,-732.38C573.22,-715.6 573.22,-698 573.22,-698 573.22,-698 1231.17,-698 1231.17,-698 1231.17,-698 1231.17,-683.36 1231.17,-683.36"/>
<polygon fill="black" stroke="black" points="1234.67,-683.36 1231.17,-673.36 1227.67,-683.36 1234.67,-683.36"/>
</g>
<!-- log10_kinetic_temp&#45;&gt;log10_cooling -->
<g id="edge31" class="edge">
<title>log10_kinetic_temp&#45;&gt;log10_cooling</title>
<path fill="none" stroke="black" d="M593.67,-744.04C593.67,-706.3 593.67,-623 593.67,-623 593.67,-623 1068.37,-623 1068.37,-623"/>
<polygon fill="black" stroke="black" points="1068.37,-626.5 1078.37,-623 1068.37,-619.5 1068.37,-626.5"/>
</g>
<!-- velocity -->
<g id="node23" class="node">
<title>velocity</title>
<ellipse fill="none" stroke="black" cx="1323" cy="-305" rx="50.56" ry="42.25"/>
<text text-anchor="middle" x="1323" y="-317.57" font-family="Times,serif" font-size="14.00">velocity</text>
<text text-anchor="middle" x="1323" y="-300.32" font-family="Times,serif" font-size="14.00">~</text>
<text text-anchor="middle" x="1323" y="-283.07" font-family="Times,serif" font-size="14.00">Normal</text>
</g>
<!-- velocity&#45;&gt;emission -->
<g id="edge32" class="edge">
<title>velocity&#45;&gt;emission</title>
<path fill="none" stroke="black" d="M1297.64,-268C1125.45,-268 134.93,-268 134.93,-268 134.93,-268 134.93,-227.89 134.93,-227.89"/>
<polygon fill="black" stroke="black" points="138.43,-227.89 134.93,-217.89 131.43,-227.89 138.43,-227.89"/>
</g>
<!-- velocity&#45;&gt;absorption -->
<g id="edge33" class="edge">
<title>velocity&#45;&gt;absorption</title>
<path fill="none" stroke="black" d="M1323,-262.31C1323,-232.13 1323,-197 1323,-197 1323,-197 2566.57,-197 2566.57,-197"/>
<polygon fill="black" stroke="black" points="2566.57,-200.5 2576.57,-197 2566.57,-193.5 2566.57,-200.5"/>
</g>
<!-- log10_G0 -->
<g id="node24" class="node">
<title>log10_G0</title>
<ellipse fill="none" stroke="black" cx="1411" cy="-762.25" rx="58.51" ry="42.25"/>
<text text-anchor="middle" x="1411" y="-774.82" font-family="Times,serif" font-size="14.00">log10_G0</text>
<text text-anchor="middle" x="1411" y="-757.57" font-family="Times,serif" font-size="14.00">~</text>
<text text-anchor="middle" x="1411" y="-740.32" font-family="Times,serif" font-size="14.00">Normal</text>
</g>
<!-- log10_G0&#45;&gt;log10_heating -->
<g id="edge34" class="edge">
<title>log10_G0&#45;&gt;log10_heating</title>
<path fill="none" stroke="black" d="M1366.53,-734.43C1366.53,-698.63 1366.53,-641 1366.53,-641 1366.53,-641 1340.17,-641 1340.17,-641"/>
<polygon fill="black" stroke="black" points="1340.17,-637.5 1330.17,-641 1340.17,-644.5 1340.17,-637.5"/>
</g>
<!-- log10_G0&#45;&gt;log10_cooling -->
<g id="edge35" class="edge">
<title>log10_G0&#45;&gt;log10_cooling</title>
<path fill="none" stroke="black" d="M1359.51,-741.56C1359.51,-729.24 1359.51,-716 1359.51,-716 1359.51,-716 1133.78,-716 1133.78,-716 1133.78,-716 1133.78,-683.46 1133.78,-683.46"/>
<polygon fill="black" stroke="black" points="1137.28,-683.46 1133.78,-673.46 1130.28,-683.46 1137.28,-683.46"/>
</g>
<!-- log10_n_alpha -->
<g id="node25" class="node">
<title>log10_n_alpha</title>
<ellipse fill="none" stroke="black" cx="285" cy="-762.25" rx="82.91" ry="42.25"/>
<text text-anchor="middle" x="285" y="-774.82" font-family="Times,serif" font-size="14.00">log10_n_alpha</text>
<text text-anchor="middle" x="285" y="-757.57" font-family="Times,serif" font-size="14.00">~</text>
<text text-anchor="middle" x="285" y="-740.32" font-family="Times,serif" font-size="14.00">Normal</text>
</g>
<!-- log10_n_alpha&#45;&gt;log10_spin_temp -->
<g id="edge36" class="edge">
<title>log10_n_alpha&#45;&gt;log10_spin_temp</title>
<path fill="none" stroke="black" d="M285,-719.5C285,-684.59 285,-641 285,-641 285,-641 415.02,-641 415.02,-641"/>
<polygon fill="black" stroke="black" points="415.02,-644.5 425.02,-641 415.02,-637.5 415.02,-644.5"/>
</g>
<!-- log10_xCII -->
<g id="node26" class="node">
<title>log10_xCII</title>
<ellipse fill="none" stroke="black" cx="1270" cy="-762.25" rx="64.88" ry="42.25"/>
<text text-anchor="middle" x="1270" y="-774.82" font-family="Times,serif" font-size="14.00">log10_xCII</text>
<text text-anchor="middle" x="1270" y="-757.57" font-family="Times,serif" font-size="14.00">~</text>
<text text-anchor="middle" x="1270" y="-740.32" font-family="Times,serif" font-size="14.00">Normal</text>
</g>
<!-- log10_xCII&#45;&gt;log10_heating -->
<g id="edge37" class="edge">
<title>log10_xCII&#45;&gt;log10_heating</title>
<path fill="none" stroke="black" d="M1270,-719.76C1270,-719.76 1270,-683.63 1270,-683.63"/>
<polygon fill="black" stroke="black" points="1273.5,-683.63 1270,-673.63 1266.5,-683.63 1273.5,-683.63"/>
</g>
<!-- log10_xCII&#45;&gt;log10_cooling -->
<g id="edge38" class="edge">
<title>log10_xCII&#45;&gt;log10_cooling</title>
<path fill="none" stroke="black" d="M1208.42,-748C1204.06,-748 1201.33,-748 1201.33,-748 1201.33,-748 1201.33,-631 1201.33,-631 1201.33,-631 1200.59,-631 1200.59,-631"/>
<polygon fill="black" stroke="black" points="1205.47,-627.5 1195.47,-631 1205.47,-634.5 1205.47,-627.5"/>
</g>
<!-- log10_inv_pah_recomb -->
<g id="node27" class="node">
<title>log10_inv_pah_recomb</title>
<ellipse fill="none" stroke="black" cx="881" cy="-762.25" rx="125.33" ry="42.25"/>
<text text-anchor="middle" x="881" y="-774.82" font-family="Times,serif" font-size="14.00">log10_inv_pah_recomb</text>
<text text-anchor="middle" x="881" y="-757.57" font-family="Times,serif" font-size="14.00">~</text>
<text text-anchor="middle" x="881" y="-740.32" font-family="Times,serif" font-size="14.00">Normal</text>
</g>
<!-- log10_inv_pah_recomb&#45;&gt;log10_heating -->
<g id="edge39" class="edge">
<title>log10_inv_pah_recomb&#45;&gt;log10_heating</title>
<path fill="none" stroke="black" d="M973.59,-733.42C973.59,-717.53 973.59,-701 973.59,-701 973.59,-701 1250.58,-701 1250.58,-701 1250.58,-701 1250.58,-683.58 1250.58,-683.58"/>
<polygon fill="black" stroke="black" points="1254.08,-683.58 1250.58,-673.58 1247.08,-683.58 1254.08,-683.58"/>
</g>
<!-- log10_inv_pah_recomb&#45;&gt;log10_cooling -->
<g id="edge40" class="edge">
<title>log10_inv_pah_recomb&#45;&gt;log10_cooling</title>
<path fill="none" stroke="black" d="M987.55,-739.75C987.55,-706.21 987.55,-647 987.55,-647 987.55,-647 1068.56,-647 1068.56,-647"/>
<polygon fill="black" stroke="black" points="1068.56,-650.5 1078.56,-647 1068.56,-643.5 1068.56,-650.5"/>
</g>
<!-- log10_cr_ion_rate -->
<g id="node28" class="node">
<title>log10_cr_ion_rate</title>
<ellipse fill="none" stroke="black" cx="1587" cy="-762.25" rx="99.88" ry="42.25"/>
<text text-anchor="middle" x="1587" y="-774.82" font-family="Times,serif" font-size="14.00">log10_cr_ion_rate</text>
<text text-anchor="middle" x="1587" y="-757.57" font-family="Times,serif" font-size="14.00">~</text>
<text text-anchor="middle" x="1587" y="-740.32" font-family="Times,serif" font-size="14.00">Normal</text>
</g>
<!-- log10_cr_ion_rate&#45;&gt;log10_heating -->
<g id="edge41" class="edge">
<title>log10_cr_ion_rate&#45;&gt;log10_heating</title>
<path fill="none" stroke="black" d="M1491.94,-748.76C1491.94,-728.87 1491.94,-694 1491.94,-694 1491.94,-694 1289.42,-694 1289.42,-694 1289.42,-694 1289.42,-683.35 1289.42,-683.35"/>
<polygon fill="black" stroke="black" points="1292.92,-683.35 1289.42,-673.35 1285.92,-683.35 1292.92,-683.35"/>
</g>
<!-- log10_cr_ion_rate&#45;&gt;log10_cooling -->
<g id="edge42" class="edge">
<title>log10_cr_ion_rate&#45;&gt;log10_cooling</title>
<path fill="none" stroke="black" d="M1489.53,-752.08C1489.53,-737.4 1489.53,-712 1489.53,-712 1489.53,-712 1151.63,-712 1151.63,-712 1151.63,-712 1151.63,-683.46 1151.63,-683.46"/>
<polygon fill="black" stroke="black" points="1155.13,-683.46 1151.63,-673.46 1148.13,-683.46 1155.13,-683.46"/>
</g>
<!-- log10_density -->
<g id="node29" class="node">
<title>log10_density</title>
<ellipse fill="none" stroke="black" cx="1106" cy="-762.25" rx="81.32" ry="42.25"/>
<text text-anchor="middle" x="1106" y="-774.82" font-family="Times,serif" font-size="14.00">log10_density</text>
<text text-anchor="middle" x="1106" y="-757.57" font-family="Times,serif" font-size="14.00">~</text>
<text text-anchor="middle" x="1106" y="-740.32" font-family="Times,serif" font-size="14.00">Normal</text>
</g>
<!-- log10_density&#45;&gt;log10_depth -->
<g id="edge43" class="edge">
<title>log10_density&#45;&gt;log10_depth</title>
<path fill="none" stroke="black" d="M1098.09,-719.74C1098.09,-711.31 1098.09,-705 1098.09,-705 1098.09,-705 1426.38,-705 1426.38,-705 1426.38,-705 1426.38,-683.41 1426.38,-683.41"/>
<polygon fill="black" stroke="black" points="1429.88,-683.41 1426.38,-673.41 1422.88,-683.41 1429.88,-683.41"/>
</g>
<!-- log10_density&#45;&gt;log10_spin_temp -->
<g id="edge44" class="edge">
<title>log10_density&#45;&gt;log10_spin_temp</title>
<path fill="none" stroke="black" d="M1046.03,-733.21C1046.03,-702.67 1046.03,-659 1046.03,-659 1046.03,-659 574.91,-659 574.91,-659"/>
<polygon fill="black" stroke="black" points="574.91,-655.5 564.91,-659 574.91,-662.5 574.91,-655.5"/>
</g>
<!-- log10_density&#45;&gt;log10_heating -->
<g id="edge45" class="edge">
<title>log10_density&#45;&gt;log10_heating</title>
<path fill="none" stroke="black" d="M1183.24,-776C1191.82,-776 1197.54,-776 1197.54,-776 1197.54,-776 1197.54,-651 1197.54,-651 1197.54,-651 1200,-651 1200,-651"/>
<polygon fill="black" stroke="black" points="1200,-654.5 1210,-651 1200,-647.5 1200,-654.5"/>
</g>
<!-- log10_density&#45;&gt;log10_cooling -->
<g id="edge46" class="edge">
<title>log10_density&#45;&gt;log10_cooling</title>
<path fill="none" stroke="black" d="M1115.94,-720.1C1115.94,-720.1 1115.94,-683.43 1115.94,-683.43"/>
<polygon fill="black" stroke="black" points="1119.44,-683.43 1115.94,-673.43 1112.44,-683.43 1119.44,-683.43"/>
</g>
<!-- log10_cooling&#45;&gt;log10_thermal_ratio -->
<g id="edge47" class="edge">
<title>log10_cooling&#45;&gt;log10_thermal_ratio</title>
<path fill="none" stroke="black" d="M1137,-611.63C1137,-611.63 1137,-575.47 1137,-575.47"/>
<polygon fill="black" stroke="black" points="1140.5,-575.47 1137,-565.47 1133.5,-575.47 1140.5,-575.47"/>
</g>
<!-- log10_larson_linewidth -->
<g id="node31" class="node">
<title>log10_larson_linewidth</title>
<ellipse fill="none" stroke="black" cx="1980" cy="-762.25" rx="127.46" ry="42.25"/>
<text text-anchor="middle" x="1980" y="-774.82" font-family="Times,serif" font-size="14.00">log10_larson_linewidth</text>
<text text-anchor="middle" x="1980" y="-757.57" font-family="Times,serif" font-size="14.00">~</text>
<text text-anchor="middle" x="1980" y="-740.32" font-family="Times,serif" font-size="14.00">Normal</text>
</g>
<!-- log10_larson_linewidth&#45;&gt;log10_nonthermal_fwhm -->
<g id="edge48" class="edge">
<title>log10_larson_linewidth&#45;&gt;log10_nonthermal_fwhm</title>
<path fill="none" stroke="black" d="M1980,-719.66C1980,-653.37 1980,-533 1980,-533 1980,-533 1584.6,-533 1584.6,-533"/>
<polygon fill="black" stroke="black" points="1584.6,-529.5 1574.6,-533 1584.6,-536.5 1584.6,-529.5"/>
</g>
<!-- emission_coeffs -->
<g id="node32" class="node">
<title>emission_coeffs</title>
<ellipse fill="none" stroke="black" cx="2221" cy="-305" rx="89.8" ry="42.25"/>
<text text-anchor="middle" x="2221" y="-317.57" font-family="Times,serif" font-size="14.00">emission_coeffs</text>
<text text-anchor="middle" x="2221" y="-300.32" font-family="Times,serif" font-size="14.00">~</text>
<text text-anchor="middle" x="2221" y="-283.07" font-family="Times,serif" font-size="14.00">Normal</text>
</g>
<!-- emission_coeffs&#45;&gt;emission -->
<g id="edge49" class="edge">
<title>emission_coeffs&#45;&gt;emission</title>
<path fill="none" stroke="black" d="M2221,-262.37C2221,-216.18 2221,-149 2221,-149 2221,-149 157.93,-149 157.93,-149"/>
<polygon fill="black" stroke="black" points="157.93,-145.5 147.93,-149 157.93,-152.5 157.93,-145.5"/>
</g>
<!-- absorption_coeffs -->
<g id="node33" class="node">
<title>absorption_coeffs</title>
<ellipse fill="none" stroke="black" cx="2428" cy="-305" rx="99.35" ry="42.25"/>
<text text-anchor="middle" x="2428" y="-317.57" font-family="Times,serif" font-size="14.00">absorption_coeffs</text>
<text text-anchor="middle" x="2428" y="-300.32" font-family="Times,serif" font-size="14.00">~</text>
<text text-anchor="middle" x="2428" y="-283.07" font-family="Times,serif" font-size="14.00">Normal</text>
</g>
<!-- absorption_coeffs&#45;&gt;absorption -->
<g id="edge50" class="edge">
<title>absorption_coeffs&#45;&gt;absorption</title>
<path fill="none" stroke="black" d="M2477.74,-268C2521.61,-268 2578.62,-268 2578.62,-268 2578.62,-268 2578.62,-209.15 2578.62,-209.15"/>
<polygon fill="black" stroke="black" points="2582.13,-209.15 2578.63,-199.15 2575.13,-209.15 2582.13,-209.15"/>
</g>
</g>
</svg>
